<?xml version="1.0" encoding="UTF-8" standalone="no"?>
<svg
   xmlns:dc="http://purl.org/dc/elements/1.1/"
   xmlns:cc="http://creativecommons.org/ns#"
   xmlns:rdf="http://www.w3.org/1999/02/22-rdf-syntax-ns#"
   xmlns:svg="http://www.w3.org/2000/svg"
   xmlns="http://www.w3.org/2000/svg"
   xmlns:sodipodi="http://sodipodi.sourceforge.net/DTD/sodipodi-0.dtd"
   xmlns:inkscape="http://www.inkscape.org/namespaces/inkscape"
   width="906.328pt"
   height="833.914pt"
   viewBox="0 0 906.328 833.914"
   version="1.1"
   id="svg2"
   inkscape:version="0.91 r13725"
   sodipodi:docname="mellophone.svg">
  <metadata
     id="metadata93">
    <rdf:RDF>
      <cc:Work
         rdf:about="">
        <dc:format>image/svg+xml</dc:format>
        <dc:type
           rdf:resource="http://purl.org/dc/dcmitype/StillImage" />
        <dc:title></dc:title>
      </cc:Work>
    </rdf:RDF>
  </metadata>
  <defs
     id="defs91" />
  <sodipodi:namedview
     pagecolor="#ffffff"
     bordercolor="#666666"
     borderopacity="1"
     objecttolerance="10"
     gridtolerance="10"
     guidetolerance="10"
     inkscape:pageopacity="0"
     inkscape:pageshadow="2"
     inkscape:window-width="664"
     inkscape:window-height="480"
     id="namedview89"
     showgrid="false"
     inkscape:zoom="0.22640224"
     inkscape:cx="566.455"
     inkscape:cy="521.19625"
     inkscape:window-x="0"
     inkscape:window-y="23"
     inkscape:window-maximized="0"
     inkscape:current-layer="svg2" />
  <g
     id="surface696">
    <path
       style=" stroke:none;fill-rule:nonzero;fill:rgb(71.398926%,57.998657%,12.199402%);fill-opacity:1;"
       d="M 170.558594 610.371094 L 160.207031 648.15625 C 160.207031 648.15625 164.902344 684.117188 164.667969 687.191406 C 164.667969 687.191406 161.894531 697.980469 158.917969 699.445312 C 158.917969 699.445312 125.429688 699.585938 111.183594 687.460938 C 111.183594 687.460938 107.863281 677.9375 115.859375 670.878906 L 138.390625 646.792969 L 151.695312 604.984375 C 151.695312 604.984375 169.609375 605.148438 170.558594 610.371094 "
       id="path5" />
    <path
       style=" stroke:none;fill-rule:nonzero;fill:rgb(71.398926%,57.998657%,12.199402%);fill-opacity:1;"
       d="M 728.144531 258.152344 C 728.144531 258.152344 680.027344 278.550781 506.980469 207.753906 C 506.980469 207.753906 427.789062 168.644531 360.269531 179.527344 C 360.269531 179.527344 274.679688 195.347656 237.546875 293.402344 L 265.3125 305.515625 C 265.3125 305.515625 305.855469 241.53125 365.109375 240.859375 C 365.109375 240.859375 417.855469 232.949219 468.246094 260.707031 C 468.246094 260.707031 540.238281 293.800781 551.429688 308.972656 C 551.429688 308.972656 621.121094 353.90625 617.089844 390.4375 L 619.21875 416.085938 C 611.027344 487.386719 614.949219 510.363281 614.949219 510.363281 C 614.949219 510.363281 619.460938 523.800781 626.792969 526.699219 C 638.242188 531.222656 659.019531 520.65625 670.996094 510.234375 C 670.996094 510.234375 777.425781 418.851562 835.121094 248.53125 C 835.121094 248.53125 843.558594 221.675781 831.570312 212.855469 C 831.570312 212.855469 822.503906 198.558594 728.144531 258.152344 "
       id="path7" />
    <path
       style=" stroke:none;fill-rule:nonzero;fill:rgb(91.799927%,82.699585%,62.69989%);fill-opacity:1;"
       d="M 200.378906 278.542969 C 200.378906 278.542969 194.375 272.917969 188.148438 275.089844 C 188.148438 275.089844 178.136719 289.605469 177.273438 298.726562 C 177.273438 298.726562 185.128906 303.339844 190.273438 302.28125 C 190.273438 302.28125 201.734375 281.378906 200.378906 278.542969 "
       id="path9" />
    <path
       style=" stroke:none;fill-rule:nonzero;fill:rgb(91.799927%,82.699585%,62.69989%);fill-opacity:1;"
       d="M 185.914062 317.371094 C 185.914062 317.371094 179.910156 311.746094 173.683594 313.917969 C 173.683594 313.917969 163.675781 328.429688 162.8125 337.554688 C 162.8125 337.554688 170.667969 342.164062 175.8125 341.109375 C 175.8125 341.109375 187.269531 320.207031 185.914062 317.371094 "
       id="path11" />
    <path
       style=" stroke:none;fill-rule:nonzero;fill:rgb(91.799927%,82.699585%,62.69989%);fill-opacity:1;"
       d="M 171.113281 360.855469 C 171.113281 360.855469 165.109375 355.230469 158.882812 357.402344 C 158.882812 357.402344 148.875 371.917969 148.011719 381.039062 C 148.011719 381.039062 155.867188 385.652344 161.011719 384.59375 C 161.011719 384.59375 172.46875 363.691406 171.113281 360.855469 "
       id="path13" />
    <path
       style=" stroke:none;fill-rule:nonzero;fill:rgb(48.599243%,38.798523%,2.69928%);fill-opacity:1;"
       d="M 217.828125 449.136719 C 217.828125 449.136719 240.445312 558.589844 333.015625 587.042969 C 425.582031 615.5 484.882812 579.824219 518.078125 555.332031 C 518.078125 555.332031 652.285156 420.582031 540.816406 297.910156 C 540.816406 297.910156 456.535156 228.824219 365.582031 237.625 C 365.582031 237.625 279.671875 249.878906 265.3125 305.515625 L 303.8125 320.226562 C 303.8125 320.226562 315.269531 292.3125 369.8125 288.265625 C 369.8125 288.265625 445.328125 287.867188 491.628906 329.5 C 491.628906 329.5 545.074219 372.132812 530.054688 434.15625 C 530.054688 434.15625 516.535156 503.007812 452.332031 533.191406 C 452.332031 533.191406 410.628906 561.167969 359.011719 540.183594 C 359.011719 540.183594 303.40625 522.777344 289.003906 499.773438 C 231.207031 407.453125 303.789062 319.027344 303.789062 319.027344 L 237.546875 293.40625 L 155.191406 597.921875 C 152.472656 613.910156 167.363281 609.949219 167.363281 609.949219 C 175.148438 609.382812 188.261719 549.25 188.261719 549.25 L 217.828125 449.136719 "
       id="path15" />
    <path
       style=" stroke:none;fill-rule:nonzero;fill:rgb(48.599243%,38.798523%,2.69928%);fill-opacity:1;"
       d="M 312.554688 553.949219 C 306.488281 543.308594 292.570312 541.804688 282.671875 536.417969 C 277.71875 533.722656 274.171875 528.847656 269.492188 525.585938 C 263.050781 521.097656 256.882812 517.890625 248.972656 516.992188 C 232.0625 515.070312 214.199219 519.578125 201.027344 530.617188 C 194.6875 535.933594 189.117188 542.5625 183.875 548.949219 C 178.113281 555.96875 173.28125 563.335938 170.210938 571.925781 C 167.613281 579.214844 179.203125 582.351562 181.785156 575.117188 C 184.3125 568.039062 188.652344 561.832031 193.460938 556.113281 C 198.078125 550.625 202.875 544.914062 208.277344 540.171875 C 219.28125 530.5 236.164062 526.359375 250.480469 529.277344 C 256.203125 530.445312 261.792969 534.339844 266.238281 538.035156 C 270.011719 541.167969 272.632812 544.675781 277.105469 547.035156 C 281.78125 549.503906 286.839844 551.15625 291.710938 553.167969 C 295.386719 554.679688 300.121094 556.371094 302.191406 560.007812 C 306.019531 566.714844 316.390625 560.675781 312.554688 553.949219 "
       id="path17" />
    <path
       style=" stroke:none;fill-rule:nonzero;fill:rgb(48.599243%,38.798523%,2.69928%);fill-opacity:1;"
       d="M 348.082031 483.464844 C 340.203125 500.003906 332.328125 516.546875 324.453125 533.085938 C 321.152344 540.023438 331.492188 546.121094 334.816406 539.144531 C 342.691406 522.601562 350.566406 506.0625 358.441406 489.519531 C 361.746094 482.585938 351.402344 476.488281 348.082031 483.464844 "
       id="path19" />
    <path
       style=" stroke:none;fill-rule:nonzero;fill:rgb(48.599243%,38.798523%,2.69928%);fill-opacity:1;"
       d="M 441.632812 354.226562 C 451.921875 334.625 459.457031 313.742188 463.875 292.046875 C 465.414062 284.507812 453.847656 281.285156 452.304688 288.855469 C 448.085938 309.558594 441.09375 329.460938 431.269531 348.167969 C 427.683594 355 438.039062 361.074219 441.632812 354.226562 "
       id="path21" />
    <path
       style=" stroke:none;fill-rule:nonzero;fill:rgb(71.398926%,57.998657%,12.199402%);fill-opacity:1;"
       d="M 222.480469 316.0625 L 477.324219 404.957031 C 477.324219 404.957031 480.054688 389.449219 453.347656 383.632812 L 386.472656 360.773438 L 342.625 346.871094 C 342.625 346.871094 328.273438 342.878906 330.417969 336.453125 C 330.417969 336.453125 333.957031 330.320312 340.78125 333.617188 L 463.699219 375.242188 C 463.699219 375.242188 502.839844 390.015625 508.746094 395.761719 C 508.746094 395.761719 521.132812 399.109375 523.226562 398.378906 C 523.226562 398.378906 527.058594 389.152344 494.375 374.566406 C 494.375 374.566406 417.347656 343.980469 413.1875 345.433594 C 413.1875 345.433594 373.355469 331.308594 352.914062 325.648438 C 352.914062 325.648438 328.089844 318.472656 324.605469 320.699219 C 324.605469 320.699219 320.078125 320.710938 318.601562 322.226562 L 231.359375 290.09375 "
       id="path23" />
    <path
       style=" stroke:none;fill-rule:nonzero;fill:rgb(71.398926%,57.998657%,12.199402%);fill-opacity:1;"
       d="M 523.226562 398.378906 C 523.226562 398.378906 525.25 414.660156 521.445312 422.96875 C 521.445312 422.96875 512.648438 432.175781 487.507812 423.347656 C 462.371094 414.515625 411.988281 401.359375 411.988281 401.359375 L 347.40625 380.308594 C 347.40625 380.308594 339.414062 380.953125 342.957031 389.335938 L 377.386719 399.984375 C 377.386719 399.984375 385.933594 408.488281 371.5625 414.429688 C 371.5625 414.429688 358.132812 415.074219 339.875 408.097656 C 339.875 408.097656 334.558594 405.296875 332.890625 412.082031 L 331.292969 417.292969 C 331.292969 417.292969 329.226562 422.046875 335.445312 422.980469 C 335.445312 422.980469 411.421875 444.832031 412.75 448.636719 C 412.75 448.636719 441.554688 457.804688 427.808594 478.070312 C 427.808594 478.070312 422.460938 494.875 399.949219 491.515625 C 399.949219 491.515625 355.277344 487.578125 333.746094 476.246094 C 333.746094 476.246094 282.75 463.070312 274.578125 445.800781 L 270.78125 433.25 C 270.78125 433.25 259.550781 384.871094 301.300781 400.855469 C 301.300781 400.855469 314.792969 408.347656 320.398438 400.789062 C 320.398438 400.789062 326.007812 393.230469 319.867188 390.757812 L 277.546875 377.15625 L 238.753906 362.328125 L 209.371094 351.800781 L 218.113281 328.644531 L 317.308594 361.90625 C 317.308594 361.90625 321.382812 364.753906 329.191406 360.609375 C 329.191406 360.609375 339.582031 357.054688 348.949219 362.792969 L 487.3125 408.691406 C 487.3125 408.691406 505.851562 414.914062 507.101562 407.929688 C 507.101562 407.929688 511.75 402.757812 508.746094 395.761719 Z M 523.226562 398.378906 "
       id="path25" />
    <path
       style=" stroke:none;fill-rule:nonzero;fill:rgb(71.398926%,57.998657%,12.199402%);fill-opacity:1;"
       d="M 404.992188 396.304688 C 404.992188 396.304688 384.847656 430.777344 395.109375 435.734375 C 395.109375 435.734375 402.097656 442.832031 412.773438 423.050781 L 420.5625 400.757812 L 435.320312 405.65625 C 435.320312 405.65625 424.03125 435.191406 410.839844 446.3125 C 410.839844 446.3125 402.773438 459.164062 383.65625 453.277344 C 383.65625 453.277344 371.019531 450.152344 376.886719 429.535156 L 391.050781 390.96875 Z M 404.992188 396.304688 "
       id="path27" />
    <path
       style=" stroke:none;fill-rule:nonzero;fill:rgb(100%,100%,100%);fill-opacity:1;"
       d="M 292.5625 426.84375 C 298.574219 425.328125 307.992188 428.964844 314.089844 430.085938 C 340.890625 435.011719 364.429688 440.972656 390.042969 450.28125 C 398.21875 453.25 407.105469 457.546875 409.878906 465.789062 C 410.4375 467.457031 410.703125 469.292969 410.148438 470.960938 C 409.296875 473.507812 406.734375 475.089844 404.183594 475.925781 C 395.210938 478.871094 382.121094 476.761719 373.164062 473.765625 C 345.6875 464.574219 319.601562 460.28125 293.042969 448.695312 C 289.496094 447.148438 285.820312 445.269531 283.84375 441.945312 C 280.242188 435.871094 285.503906 426.757812 292.5625 426.84375 "
       id="path29" />
    <path
       style=" stroke:none;fill-rule:nonzero;fill:rgb(100%,100%,100%);fill-opacity:1;"
       d="M 292.960938 428.289062 C 300.335938 426.863281 308.359375 430.503906 315.554688 431.878906 C 324.585938 433.597656 333.585938 435.4375 342.527344 437.578125 C 359.917969 441.746094 378.105469 446.339844 394.480469 453.652344 C 397.714844 455.097656 400.953125 456.828125 403.601562 459.214844 C 408.269531 463.421875 411.742188 471.640625 403.785156 474.480469 C 396.132812 477.210938 386.742188 475.785156 379.074219 473.90625 C 370.5 471.800781 362.144531 468.660156 353.636719 466.277344 C 344.757812 463.792969 335.832031 461.484375 326.96875 458.941406 C 316.820312 456.023438 306.746094 452.792969 296.980469 448.75 C 292.527344 446.90625 285.808594 444.671875 284.410156 439.425781 C 283.015625 434.222656 287.359375 428.652344 292.5625 428.34375 C 294.480469 428.230469 294.496094 425.226562 292.5625 425.34375 C 286.265625 425.71875 281.113281 431.167969 281.175781 437.578125 C 281.265625 446.363281 291.214844 449.65625 297.949219 452.363281 C 321.015625 461.640625 345.496094 466.429688 369.113281 474.011719 C 378.441406 477.007812 388.019531 479.585938 397.925781 478.65625 C 404.414062 478.050781 413.226562 475.375 411.765625 467.101562 C 410.277344 458.664062 401.914062 453.5625 394.699219 450.5 C 384.304688 446.09375 373.273438 442.835938 362.4375 439.714844 C 349.671875 436.039062 336.738281 432.996094 323.714844 430.402344 C 317.964844 429.257812 312.269531 428.132812 306.582031 426.722656 C 301.84375 425.542969 297.035156 424.453125 292.164062 425.394531 C 290.269531 425.761719 291.074219 428.65625 292.960938 428.289062 "
       id="path31" />
    <path
       style=" stroke:none;fill-rule:nonzero;fill:rgb(71.398926%,57.998657%,12.199402%);fill-opacity:1;"
       d="M 168.777344 369.148438 C 168.777344 369.148438 172.03125 373.167969 190.5625 368.972656 C 190.5625 368.972656 197.546875 366.539062 203.144531 370.773438 L 194.265625 396.742188 C 194.265625 396.742188 185.296875 393.480469 180.550781 384.003906 C 180.550781 384.003906 176.316406 375.785156 166.597656 374.441406 Z M 168.777344 369.148438 "
       id="path33" />
    <path
       style=" stroke:none;fill-rule:nonzero;fill:rgb(71.398926%,57.998657%,12.199402%);fill-opacity:1;"
       d="M 182.628906 327.824219 C 182.628906 327.824219 183.246094 330.019531 199.230469 329.636719 C 199.230469 329.636719 212.515625 324.414062 218.113281 328.644531 L 209.371094 351.800781 C 209.371094 351.800781 200.328125 349.277344 195.722656 339.683594 C 195.722656 339.683594 191.246094 334.542969 180.050781 332.820312 Z M 182.628906 327.824219 "
       id="path35" />
    <path
       style=" stroke:none;fill-rule:nonzero;fill:rgb(71.398926%,57.998657%,12.199402%);fill-opacity:1;"
       d="M 196.992188 288.46875 C 196.992188 288.46875 200.246094 292.488281 218.777344 288.292969 C 218.777344 288.292969 225.761719 285.859375 231.355469 290.09375 L 222.480469 316.0625 C 222.480469 316.0625 213.511719 312.800781 208.765625 303.324219 C 208.765625 303.324219 204.53125 295.105469 194.808594 293.761719 Z M 196.992188 288.46875 "
       id="path37" />
    <path
       style=" stroke:none;fill-rule:nonzero;fill:rgb(71.398926%,57.998657%,12.199402%);fill-opacity:1;"
       d="M 203.144531 370.773438 L 286.6875 398.078125 L 279.128906 423.003906 L 194.265625 396.742188 "
       id="path39" />
    <path
       style=" stroke:none;fill-rule:nonzero;fill:rgb(48.599243%,38.798523%,2.69928%);fill-opacity:1;"
       d="M 572.679688 301.6875 C 606.65625 327.863281 623.929688 346.007812 657.90625 372.183594 C 666.878906 379.097656 676.027344 386.199219 682.214844 395.6875 C 687.449219 403.710938 690.300781 413.09375 691.828125 422.550781 C 697.375 456.925781 683.632812 495.335938 653.828125 513.335938 C 645.683594 518.253906 633.921875 521.042969 627.585938 513.941406 C 624.195312 510.140625 623.578125 504.671875 623.378906 499.585938 C 622.355469 473.957031 627.78125 448.542969 629.40625 422.945312 C 631.027344 397.347656 628.285156 370.03125 613.082031 349.371094 C 599.160156 330.457031 579.636719 317.894531 569.789062 296.570312 "
       id="path41" />
    <path
       style=" stroke:none;fill-rule:nonzero;fill:rgb(30.599976%,25.898743%,19.599915%);fill-opacity:1;"
       d="M 202.757812 381.921875 C 202.757812 381.921875 199.320312 385.960938 201.207031 390.515625 L 306.179688 425.183594 C 306.179688 425.183594 314.089844 418.4375 307.347656 416.15625 Z M 202.757812 381.921875 "
       id="path43" />
    <path
       style=" stroke:none;fill-rule:nonzero;fill:rgb(91.799927%,82.699585%,62.69989%);fill-opacity:1;"
       d="M 202.757812 381.921875 C 202.757812 381.921875 202.277344 376.207031 207.144531 376.15625 L 311.242188 410.828125 C 311.242188 410.828125 313.265625 418.597656 306.542969 416.402344 Z M 202.757812 381.921875 "
       id="path45" />
    <path
       style=" stroke:none;fill-rule:nonzero;fill:rgb(30.599976%,25.898743%,19.599915%);fill-opacity:1;"
       d="M 216.601562 340.363281 C 216.601562 340.363281 215.019531 343.285156 214.960938 348.84375 L 319.933594 383.511719 C 319.933594 383.511719 327.84375 376.765625 321.101562 374.484375 Z M 216.601562 340.363281 "
       id="path47" />
    <path
       style=" stroke:none;fill-rule:nonzero;fill:rgb(91.799927%,82.699585%,62.69989%);fill-opacity:1;"
       d="M 216.601562 340.363281 C 216.601562 340.363281 218.316406 334.996094 220.894531 334.484375 L 324.992188 369.15625 C 324.992188 369.15625 327.019531 376.925781 320.296875 374.730469 Z M 216.601562 340.363281 "
       id="path49" />
    <path
       style=" stroke:none;fill-rule:nonzero;fill:rgb(91.799927%,82.699585%,62.69989%);fill-opacity:1;"
       d="M 230.277344 302.070312 C 230.277344 302.070312 230.402344 297.988281 233.316406 295.453125 L 329.945312 327.910156 C 329.945312 327.910156 331.96875 335.679688 325.25 333.484375 Z M 230.277344 302.070312 "
       id="path51" />
    <path
       style=" stroke:none;fill-rule:nonzero;fill:rgb(91.799927%,82.699585%,62.69989%);fill-opacity:1;"
       d="M 231.949219 461.738281 C 246.789062 506.917969 280.660156 545.503906 323.539062 566.074219 C 366.414062 586.640625 417.710938 588.910156 462.234375 572.207031 C 417.726562 580.742188 370.519531 578.058594 328.730469 560.515625 C 286.945312 542.972656 251.078125 509.902344 233.957031 467.9375 "
       id="path53" />
    <path
       style=" stroke:none;fill-rule:nonzero;fill:rgb(48.999023%,38.798523%,4.699707%);fill-opacity:1;"
       d="M 275.074219 246.355469 C 289.496094 227.355469 311.816406 215.488281 334.984375 209.8125 C 358.152344 204.132812 382.316406 204.132812 406.144531 205.210938 C 420.84375 205.875 435.609375 206.945312 449.90625 210.4375 C 464.796875 214.074219 478.914062 220.269531 493.144531 225.964844 C 561.335938 253.25 633.359375 269.453125 705.023438 285.546875 C 639.140625 285.785156 576.902344 257.816406 512.820312 242.511719 C 491.441406 237.40625 469.757812 233.703125 448.089844 230 C 420.425781 225.273438 392.476562 220.527344 364.457031 222.097656 C 330.8125 223.984375 297.738281 235.183594 269.875 254.125 "
       id="path55" />
    <path
       style=" stroke:none;fill-rule:nonzero;fill:rgb(91.799927%,82.699585%,62.69989%);fill-opacity:1;"
       d="M 267.613281 253.949219 C 282.40625 230.273438 307.460938 210.78125 335.359375 201.242188 C 363.253906 191.703125 393.613281 192.25 417.441406 202.714844 C 392.519531 196.621094 364.5 196.4375 337.652344 204.394531 C 310.800781 212.351562 285.324219 228.824219 269.628906 250.699219 "
       id="path57" />
    <path
       style=" stroke:none;fill-rule:nonzero;fill:rgb(91.799927%,82.699585%,62.69989%);fill-opacity:1;"
       d="M 534.75 463.648438 C 562.273438 427.835938 568.710938 386.535156 552.15625 351.972656 C 535.601562 317.414062 496.28125 290.066406 445.835938 278.03125 C 489.132812 295.179688 524.800781 320.71875 543.121094 352.832031 C 561.441406 384.945312 561.425781 423.796875 538.550781 458.75 "
       id="path59" />
    <path
       style=" stroke:none;fill-rule:nonzero;fill:rgb(30.599976%,25.898743%,19.599915%);fill-opacity:1;"
       d="M 167.273438 610.773438 C 166.457031 613.253906 166.371094 615.90625 166.097656 618.503906 C 165.152344 627.316406 161.941406 635.699219 159.269531 644.15625 C 158.777344 645.714844 158.300781 647.292969 158.136719 648.921875 C 157.964844 650.644531 158.144531 652.378906 158.324219 654.101562 C 159.113281 661.59375 159.902344 669.089844 160.691406 676.585938 C 161.410156 683.453125 161.96875 691.007812 157.976562 696.640625 C 157.496094 697.3125 156.925781 697.972656 156.15625 698.273438 C 155.523438 698.519531 154.816406 698.5 154.136719 698.449219 C 151.226562 698.242188 148.347656 697.601562 145.625 696.546875 C 145.972656 688.746094 146.316406 680.941406 146.664062 673.140625 C 146.871094 668.425781 147.089844 663.675781 148.257812 659.109375 C 148.9375 656.449219 149.933594 653.882812 150.925781 651.328125 L 166.847656 610.328125 "
       id="path61" />
    <path
       style=" stroke:none;fill-rule:nonzero;fill:rgb(30.599976%,25.898743%,19.599915%);fill-opacity:1;"
       d="M 230.277344 302.070312 C 230.277344 302.070312 229.273438 304.808594 228.980469 310.539062 L 324.882812 342.265625 C 324.882812 342.265625 332.792969 335.519531 326.050781 333.238281 Z M 230.277344 302.070312 "
       id="path63" />
    <path
       style=" stroke:none;fill-rule:nonzero;fill:rgb(91.799927%,82.699585%,62.69989%);fill-opacity:1;"
       d="M 344.5 320.710938 C 353.554688 327.28125 355.835938 339.585938 349.59375 348.1875 C 343.347656 356.792969 330.945312 358.4375 321.890625 351.867188 C 312.832031 345.292969 310.554688 332.992188 316.796875 324.386719 C 323.039062 315.785156 335.445312 314.136719 344.5 320.710938 "
       id="path65" />
    <path
       style=" stroke:none;fill-rule:nonzero;fill:rgb(91.799927%,82.699585%,62.69989%);fill-opacity:1;"
       d="M 308.925781 399.652344 C 317.980469 406.222656 320.261719 418.527344 314.019531 427.128906 C 307.773438 435.734375 295.371094 437.378906 286.316406 430.808594 C 277.257812 424.234375 274.976562 411.933594 281.222656 403.328125 C 287.464844 394.726562 299.867188 393.078125 308.925781 399.652344 "
       id="path67" />
    <path
       style=" stroke:none;fill-rule:nonzero;fill:rgb(91.799927%,82.699585%,62.69989%);fill-opacity:1;"
       d="M 326.910156 362.488281 C 335.964844 369.058594 338.246094 381.363281 332.003906 389.964844 C 325.757812 398.570312 313.355469 400.214844 304.300781 393.644531 C 295.242188 387.070312 292.960938 374.769531 299.207031 366.164062 C 305.449219 357.5625 317.855469 355.914062 326.910156 362.488281 "
       id="path69" />
    <path
       style=" stroke:none;fill-rule:nonzero;fill:rgb(30.599976%,25.898743%,19.599915%);fill-opacity:1;"
       d="M 319.042969 373.328125 C 321.796875 375.328125 322.492188 379.066406 320.589844 381.683594 C 318.691406 384.300781 314.921875 384.800781 312.167969 382.800781 C 309.414062 380.804688 308.71875 377.0625 310.617188 374.445312 C 312.515625 371.828125 316.289062 371.328125 319.042969 373.328125 "
       id="path71" />
    <path
       style=" stroke:none;fill-rule:nonzero;fill:rgb(30.599976%,25.898743%,19.599915%);fill-opacity:1;"
       d="M 301.058594 410.492188 C 303.8125 412.492188 304.507812 416.230469 302.605469 418.847656 C 300.707031 421.464844 296.9375 421.964844 294.183594 419.96875 C 291.429688 417.96875 290.734375 414.226562 292.632812 411.609375 C 294.53125 408.996094 298.304688 408.492188 301.058594 410.492188 "
       id="path73" />
    <path
       style=" stroke:none;fill-rule:nonzero;fill:rgb(30.599976%,25.898743%,19.599915%);fill-opacity:1;"
       d="M 336.632812 331.550781 C 339.386719 333.550781 340.082031 337.289062 338.183594 339.90625 C 336.285156 342.523438 332.511719 343.023438 329.757812 341.027344 C 327.003906 339.027344 326.308594 335.285156 328.207031 332.667969 C 330.109375 330.054688 333.878906 329.550781 336.632812 331.550781 "
       id="path75" />
    <path
       style=" stroke:none;fill-rule:nonzero;fill:rgb(48.599243%,38.798523%,2.69928%);fill-opacity:1;"
       d="M 199.339844 280.746094 C 199.339844 280.746094 197.984375 275.753906 192.871094 277.011719 C 192.871094 277.011719 183.335938 290.617188 182.125 298.46875 C 182.125 298.46875 185.71875 300.78125 189.898438 300.382812 C 190.652344 301.339844 201.480469 284.894531 199.339844 280.746094 "
       id="path77" />
    <path
       style=" stroke:none;fill-rule:nonzero;fill:rgb(48.599243%,38.798523%,2.69928%);fill-opacity:1;"
       d="M 184.96875 319.3125 C 184.96875 319.3125 183.613281 314.324219 178.5 315.578125 C 178.5 315.578125 168.964844 329.1875 167.757812 337.039062 C 167.757812 337.039062 171.347656 339.351562 175.53125 338.949219 C 175.53125 338.949219 185.894531 321.917969 184.96875 319.3125 "
       id="path79" />
    <path
       style=" stroke:none;fill-rule:nonzero;fill:rgb(48.599243%,38.798523%,2.69928%);fill-opacity:1;"
       d="M 170 362.902344 C 170 362.902344 168.179688 358.058594 163.207031 359.792969 C 163.207031 359.792969 154.996094 374.234375 154.53125 382.167969 C 154.53125 382.167969 158.324219 384.128906 162.449219 383.339844 C 162.449219 383.339844 171.167969 365.40625 170 362.902344 "
       id="path81" />
    <path
       style=" stroke:none;fill-rule:nonzero;fill:rgb(91.799927%,82.699585%,62.69989%);fill-opacity:1;"
       d="M 198.480469 335.042969 C 198.480469 335.042969 195.859375 333.183594 203.761719 333.234375 C 203.761719 333.234375 210.25 330.652344 213.089844 333.007812 L 209.132812 345.257812 C 209.132812 345.257812 204.621094 343.761719 202.1875 338.554688 "
       id="path83" />
    <path
       style=" stroke:none;fill-rule:nonzero;fill:rgb(91.799927%,82.699585%,62.69989%);fill-opacity:1;"
       d="M 183.015625 376.742188 C 183.015625 376.742188 182.707031 376.425781 192.644531 374.195312 C 192.644531 374.195312 196.386719 372.890625 199.402344 375.203125 L 194.699219 389.28125 C 194.699219 389.28125 189.878906 387.488281 187.304688 382.332031 "
       id="path85" />
    <path
       style=" stroke:none;fill-rule:nonzero;fill:rgb(91.799927%,82.699585%,62.69989%);fill-opacity:1;"
       d="M 210.707031 295.769531 C 210.707031 295.769531 211.78125 296.109375 220.394531 294.214844 C 220.394531 294.214844 223.632812 293.085938 226.273438 295.179688 L 222.328125 307.714844 C 222.328125 307.714844 218.121094 306.066406 215.835938 301.433594 "
       id="path87" />
  </g>
</svg>
