<?xml version="1.0" encoding="UTF-8" standalone="no"?>
<svg
   xmlns:dc="http://purl.org/dc/elements/1.1/"
   xmlns:cc="http://creativecommons.org/ns#"
   xmlns:rdf="http://www.w3.org/1999/02/22-rdf-syntax-ns#"
   xmlns:svg="http://www.w3.org/2000/svg"
   xmlns="http://www.w3.org/2000/svg"
   xmlns:sodipodi="http://sodipodi.sourceforge.net/DTD/sodipodi-0.dtd"
   xmlns:inkscape="http://www.inkscape.org/namespaces/inkscape"
   width="906.328pt"
   height="833.914pt"
   viewBox="0 0 906.328 833.914"
   version="1.1"
   id="svg2"
   inkscape:version="0.91 r13725"
   sodipodi:docname="mellophone.ai.svg">
  <metadata
     id="metadata93">
    <rdf:RDF>
      <cc:Work
         rdf:about="">
        <dc:format>image/svg+xml</dc:format>
        <dc:type
           rdf:resource="http://purl.org/dc/dcmitype/StillImage" />
        <dc:title></dc:title>
      </cc:Work>
    </rdf:RDF>
  </metadata>
  <defs
     id="defs91" />
  <sodipodi:namedview
     pagecolor="#ffffff"
     bordercolor="#666666"
     borderopacity="1"
     objecttolerance="10"
     gridtolerance="10"
     guidetolerance="10"
     inkscape:pageopacity="0"
     inkscape:pageshadow="2"
     inkscape:window-width="664"
     inkscape:window-height="480"
     id="namedview89"
     showgrid="false"
     inkscape:zoom="0.22640224"
     inkscape:cx="566.455"
     inkscape:cy="521.19625"
     inkscape:window-x="0"
     inkscape:window-y="23"
     inkscape:window-maximized="0"
     inkscape:current-layer="svg2" />
  <g
     id="surface694">
    <path
       style=" stroke:none;fill-rule:nonzero;fill:rgb(76.470947%,63.922119%,15.293884%);fill-opacity:1;"
       d="M 167.195312 595.234375 L 156.84375 633.019531 C 156.84375 633.019531 161.539062 668.980469 161.304688 672.054688 C 161.304688 672.054688 158.53125 682.84375 155.554688 684.308594 C 155.554688 684.308594 122.0625 684.449219 107.820312 672.324219 C 107.820312 672.324219 104.5 662.800781 112.496094 655.742188 L 135.023438 631.65625 L 148.332031 589.847656 C 148.332031 589.847656 166.246094 590.011719 167.195312 595.234375 "
       id="path5" />
    <path
       style=" stroke:none;fill-rule:nonzero;fill:rgb(76.470947%,63.922119%,15.293884%);fill-opacity:1;"
       d="M 724.78125 243.015625 C 724.78125 243.015625 676.664062 263.414062 503.613281 192.617188 C 503.613281 192.617188 424.425781 153.507812 356.90625 164.390625 C 356.90625 164.390625 271.316406 180.210938 234.183594 278.265625 L 261.945312 290.378906 C 261.945312 290.378906 302.488281 226.394531 361.746094 225.722656 C 361.746094 225.722656 414.492188 217.8125 464.882812 245.570312 C 464.882812 245.570312 536.875 278.664062 548.066406 293.835938 C 548.066406 293.835938 617.757812 338.769531 613.726562 375.300781 L 615.855469 400.949219 C 607.660156 472.25 611.585938 495.226562 611.585938 495.226562 C 611.585938 495.226562 616.097656 508.664062 623.429688 511.5625 C 634.878906 516.085938 655.65625 505.519531 667.632812 495.097656 C 667.632812 495.097656 774.0625 403.714844 831.757812 233.398438 C 831.757812 233.398438 840.195312 206.539062 828.207031 197.71875 C 828.207031 197.71875 819.140625 183.421875 724.78125 243.015625 "
       id="path7" />
    <path
       style=" stroke:none;fill-rule:nonzero;fill:rgb(93.333435%,85.882568%,68.62793%);fill-opacity:1;"
       d="M 197.011719 263.40625 C 197.011719 263.40625 191.007812 257.78125 184.785156 259.953125 C 184.785156 259.953125 174.773438 274.46875 173.910156 283.589844 C 173.910156 283.589844 181.765625 288.203125 186.910156 287.144531 C 186.910156 287.144531 198.371094 266.242188 197.011719 263.40625 "
       id="path9" />
    <path
       style=" stroke:none;fill-rule:nonzero;fill:rgb(93.333435%,85.882568%,68.62793%);fill-opacity:1;"
       d="M 182.550781 302.234375 C 182.550781 302.234375 176.546875 296.609375 170.320312 298.78125 C 170.320312 298.78125 160.3125 313.296875 159.449219 322.417969 C 159.449219 322.417969 167.300781 327.027344 172.449219 325.972656 C 172.449219 325.972656 183.90625 305.070312 182.550781 302.234375 "
       id="path11" />
    <path
       style=" stroke:none;fill-rule:nonzero;fill:rgb(93.333435%,85.882568%,68.62793%);fill-opacity:1;"
       d="M 167.75 345.71875 C 167.75 345.71875 161.746094 340.09375 155.519531 342.265625 C 155.519531 342.265625 145.511719 356.78125 144.648438 365.902344 C 144.648438 365.902344 152.503906 370.515625 157.648438 369.457031 C 157.648438 369.457031 169.105469 348.554688 167.75 345.71875 "
       id="path13" />
    <path
       style=" stroke:none;fill-rule:nonzero;fill:rgb(56.079102%,45.881653%,0.784302%);fill-opacity:1;"
       d="M 214.464844 434 C 214.464844 434 237.082031 543.453125 329.648438 571.90625 C 422.21875 600.363281 481.519531 564.6875 514.714844 540.195312 C 514.714844 540.195312 648.921875 405.445312 537.453125 282.773438 C 537.453125 282.773438 453.171875 213.6875 362.21875 222.488281 C 362.21875 222.488281 276.308594 234.742188 261.945312 290.378906 L 300.449219 305.089844 C 300.449219 305.089844 311.902344 277.175781 366.449219 273.128906 C 366.449219 273.128906 441.964844 272.730469 488.265625 314.363281 C 488.265625 314.363281 541.710938 356.996094 526.691406 419.019531 C 526.691406 419.019531 513.171875 487.871094 448.96875 518.054688 C 448.96875 518.054688 407.265625 546.03125 355.648438 525.046875 C 355.648438 525.046875 300.042969 507.640625 285.640625 484.636719 C 227.84375 392.316406 300.425781 303.890625 300.425781 303.890625 L 234.183594 278.269531 L 151.824219 582.785156 C 149.109375 598.773438 164 594.8125 164 594.8125 C 171.785156 594.246094 184.898438 534.113281 184.898438 534.113281 L 214.464844 434 "
       id="path15" />
    <path
       style=" stroke:none;fill-rule:nonzero;fill:rgb(56.079102%,45.881653%,0.784302%);fill-opacity:1;"
       d="M 309.191406 538.8125 C 303.125 528.171875 289.207031 526.667969 279.308594 521.28125 C 274.355469 518.585938 270.808594 513.710938 266.128906 510.449219 C 259.6875 505.960938 253.519531 502.753906 245.609375 501.855469 C 228.699219 499.933594 210.835938 504.441406 197.664062 515.480469 C 191.324219 520.796875 185.753906 527.425781 180.511719 533.8125 C 174.746094 540.832031 169.917969 548.199219 166.847656 556.789062 C 164.246094 564.078125 175.839844 567.214844 178.421875 559.980469 C 180.949219 552.902344 185.285156 546.695312 190.097656 540.976562 C 194.714844 535.488281 199.511719 529.777344 204.914062 525.035156 C 215.917969 515.363281 232.800781 511.222656 247.113281 514.140625 C 252.839844 515.308594 258.429688 519.203125 262.875 522.898438 C 266.648438 526.03125 269.269531 529.539062 273.742188 531.902344 C 278.414062 534.367188 283.476562 536.019531 288.347656 538.03125 C 292.023438 539.542969 296.757812 541.234375 298.828125 544.871094 C 302.652344 551.578125 313.027344 545.539062 309.191406 538.8125 "
       id="path17" />
    <path
       style=" stroke:none;fill-rule:nonzero;fill:rgb(56.079102%,45.881653%,0.784302%);fill-opacity:1;"
       d="M 344.71875 468.328125 C 336.839844 484.867188 328.964844 501.410156 321.089844 517.949219 C 317.789062 524.886719 328.128906 530.984375 331.453125 524.007812 C 339.328125 507.464844 347.203125 490.925781 355.078125 474.382812 C 358.382812 467.449219 348.039062 461.351562 344.71875 468.328125 "
       id="path19" />
    <path
       style=" stroke:none;fill-rule:nonzero;fill:rgb(56.079102%,45.881653%,0.784302%);fill-opacity:1;"
       d="M 438.269531 339.089844 C 448.558594 319.488281 456.09375 298.605469 460.511719 276.910156 C 462.046875 269.371094 450.484375 266.148438 448.941406 273.71875 C 444.722656 294.421875 437.730469 314.324219 427.90625 333.03125 C 424.320312 339.863281 434.671875 345.9375 438.269531 339.089844 "
       id="path21" />
    <path
       style=" stroke:none;fill-rule:nonzero;fill:rgb(76.470947%,63.922119%,15.293884%);fill-opacity:1;"
       d="M 219.117188 300.925781 L 473.957031 389.820312 C 473.957031 389.820312 476.691406 374.3125 449.984375 368.496094 L 383.109375 345.636719 L 339.261719 331.734375 C 339.261719 331.734375 324.910156 327.742188 327.054688 321.316406 C 327.054688 321.316406 330.59375 315.183594 337.417969 318.480469 L 460.335938 360.105469 C 460.335938 360.105469 499.476562 374.882812 505.378906 380.625 C 505.378906 380.625 517.769531 383.972656 519.863281 383.242188 C 519.863281 383.242188 523.695312 374.015625 491.011719 359.429688 C 491.011719 359.429688 413.984375 328.84375 409.824219 330.296875 C 409.824219 330.296875 369.992188 316.171875 349.550781 310.511719 C 349.550781 310.511719 324.726562 303.335938 321.242188 305.5625 C 321.242188 305.5625 316.710938 305.574219 315.238281 307.089844 L 227.992188 274.957031 "
       id="path23" />
    <path
       style=" stroke:none;fill-rule:nonzero;fill:rgb(76.470947%,63.922119%,15.293884%);fill-opacity:1;"
       d="M 297.9375 385.71875 C 297.9375 385.71875 311.429688 393.210938 317.035156 385.652344 C 317.035156 385.652344 322.644531 378.09375 316.503906 375.621094 L 274.183594 362.019531 L 235.390625 347.191406 L 206.007812 336.664062 L 214.75 313.507812 L 313.945312 346.769531 C 313.945312 346.769531 318.019531 349.617188 325.828125 345.472656 C 325.828125 345.472656 336.21875 341.917969 345.585938 347.65625 L 483.949219 393.554688 C 483.949219 393.554688 502.488281 399.777344 503.738281 392.796875 C 503.738281 392.796875 508.386719 387.625 505.382812 380.625 L 519.863281 383.242188 C 519.863281 383.242188 521.886719 399.523438 518.078125 407.832031 C 518.078125 407.832031 509.28125 417.039062 484.144531 408.210938 C 459.007812 399.378906 408.625 386.222656 408.625 386.222656 L 344.039062 365.171875 C 344.039062 365.171875 336.050781 365.816406 339.59375 374.199219 L 374.023438 384.847656 C 374.023438 384.847656 382.570312 393.351562 368.195312 399.292969 C 368.195312 399.292969 354.769531 399.9375 336.511719 392.960938 C 336.511719 392.960938 331.191406 390.160156 329.523438 396.945312 L 327.929688 402.15625 C 327.929688 402.15625 325.863281 406.910156 332.082031 407.847656 C 332.082031 407.847656 408.058594 429.695312 409.386719 433.5 C 409.386719 433.5 426.550781 440.859375 424.445312 462.933594 "
       id="path25" />
    <path
       style=" stroke:none;fill-rule:nonzero;fill:rgb(76.470947%,63.922119%,15.293884%);fill-opacity:1;"
       d="M 401.628906 381.167969 C 401.628906 381.167969 381.484375 415.640625 391.742188 420.597656 C 391.742188 420.597656 398.734375 427.695312 409.410156 407.914062 L 417.199219 385.621094 L 431.957031 390.519531 C 431.957031 390.519531 420.667969 420.054688 407.476562 431.175781 C 407.476562 431.175781 399.410156 444.027344 380.289062 438.140625 C 380.289062 438.140625 367.65625 435.015625 373.523438 414.398438 L 387.6875 375.832031 Z M 401.628906 381.167969 "
       id="path27" />
    <path
       style=" stroke:none;fill-rule:nonzero;fill:rgb(76.470947%,63.922119%,15.293884%);fill-opacity:1;"
       d="M 165.414062 354.011719 C 165.414062 354.011719 168.667969 358.03125 187.199219 353.839844 C 187.199219 353.839844 194.183594 351.402344 199.78125 355.636719 L 190.902344 381.605469 C 190.902344 381.605469 181.933594 378.34375 177.1875 368.867188 C 177.1875 368.867188 172.953125 360.648438 163.230469 359.304688 Z M 165.414062 354.011719 "
       id="path29" />
    <path
       style=" stroke:none;fill-rule:nonzero;fill:rgb(76.470947%,63.922119%,15.293884%);fill-opacity:1;"
       d="M 179.265625 312.6875 C 179.265625 312.6875 179.882812 314.882812 195.867188 314.5 C 195.867188 314.5 209.152344 309.277344 214.75 313.507812 L 206.007812 336.664062 C 206.007812 336.664062 196.964844 334.140625 192.359375 324.546875 C 192.359375 324.546875 187.882812 319.40625 176.6875 317.683594 Z M 179.265625 312.6875 "
       id="path31" />
    <path
       style=" stroke:none;fill-rule:nonzero;fill:rgb(76.470947%,63.922119%,15.293884%);fill-opacity:1;"
       d="M 193.628906 273.332031 C 193.628906 273.332031 196.882812 277.351562 215.414062 273.15625 C 215.414062 273.15625 222.398438 270.722656 227.992188 274.957031 L 219.117188 300.925781 C 219.117188 300.925781 210.148438 297.664062 205.402344 288.1875 C 205.402344 288.1875 201.167969 279.96875 191.445312 278.625 Z M 193.628906 273.332031 "
       id="path33" />
    <path
       style=" stroke:none;fill-rule:nonzero;fill:rgb(76.470947%,63.922119%,15.293884%);fill-opacity:1;"
       d="M 199.78125 355.636719 L 283.324219 382.941406 L 275.765625 407.867188 L 190.902344 381.605469 "
       id="path35" />
    <path
       style=" stroke:none;fill-rule:nonzero;fill:rgb(76.470947%,63.922119%,15.293884%);fill-opacity:1;"
       d="M 424.445312 462.933594 L 405.800781 457.324219 C 405.800781 457.324219 406.265625 467.347656 369.476562 457.144531 C 369.476562 457.144531 307.195312 435.183594 294.257812 429.164062 C 294.257812 429.164062 280.621094 426.949219 278.910156 412.6875 C 277.199219 398.425781 278.910156 412.6875 278.910156 412.6875 C 278.910156 412.6875 274.195312 406.636719 274.335938 400.421875 C 274.476562 394.207031 274.335938 400.421875 274.335938 400.421875 L 265.859375 404.800781 C 265.859375 404.800781 268.832031 429.878906 275.101562 436.808594 C 275.101562 436.808594 329.875 469.144531 379.699219 474.421875 C 379.699219 474.421875 416.730469 485.429688 424.445312 462.933594 "
       id="path37" />
    <path
       style=" stroke:none;fill-rule:nonzero;fill:rgb(76.470947%,63.922119%,15.293884%);fill-opacity:1;"
       d="M 424.445312 462.933594 C 424.445312 462.933594 428.601562 443.117188 402.25 431.15625 L 314.148438 401.027344 C 314.148438 401.027344 314.789062 407.78125 309.988281 413.007812 C 305.191406 418.234375 309.988281 413.007812 309.988281 413.007812 L 372.296875 435.894531 C 372.296875 435.894531 402.808594 442.324219 405.800781 457.324219 "
       id="path39" />
    <path
       style=" stroke:none;fill-rule:nonzero;fill:rgb(56.079102%,45.881653%,0.784302%);fill-opacity:1;"
       d="M 569.316406 286.550781 C 603.292969 312.726562 620.566406 330.871094 654.542969 357.046875 C 663.515625 363.960938 672.664062 371.0625 678.851562 380.550781 C 684.085938 388.574219 686.9375 397.957031 688.464844 407.414062 C 694.011719 441.789062 680.269531 480.199219 650.464844 498.199219 C 642.320312 503.117188 630.558594 505.90625 624.222656 498.804688 C 620.832031 495.003906 620.214844 489.535156 620.015625 484.449219 C 618.992188 458.820312 624.417969 433.40625 626.042969 407.808594 C 627.664062 382.210938 624.921875 354.894531 609.71875 334.234375 C 595.796875 315.320312 576.273438 302.757812 566.425781 281.433594 "
       id="path41" />
    <path
       style=" stroke:none;fill-rule:nonzero;fill:rgb(38.038635%,32.548523%,25.489807%);fill-opacity:1;"
       d="M 199.394531 366.789062 C 199.394531 366.789062 195.957031 370.828125 197.84375 375.378906 L 302.816406 410.046875 C 302.816406 410.046875 310.726562 403.300781 303.984375 401.019531 Z M 199.394531 366.789062 "
       id="path43" />
    <path
       style=" stroke:none;fill-rule:nonzero;fill:rgb(93.333435%,85.882568%,68.62793%);fill-opacity:1;"
       d="M 199.394531 366.789062 C 199.394531 366.789062 198.914062 361.070312 203.777344 361.019531 L 307.875 395.691406 C 307.875 395.691406 309.902344 403.460938 303.179688 401.265625 Z M 199.394531 366.789062 "
       id="path45" />
    <path
       style=" stroke:none;fill-rule:nonzero;fill:rgb(38.038635%,32.548523%,25.489807%);fill-opacity:1;"
       d="M 213.234375 325.226562 C 213.234375 325.226562 211.65625 328.148438 211.597656 333.707031 L 316.566406 368.375 C 316.566406 368.375 324.476562 361.628906 317.734375 359.347656 Z M 213.234375 325.226562 "
       id="path47" />
    <path
       style=" stroke:none;fill-rule:nonzero;fill:rgb(93.333435%,85.882568%,68.62793%);fill-opacity:1;"
       d="M 213.234375 325.226562 C 213.234375 325.226562 214.953125 319.859375 217.53125 319.347656 L 321.628906 354.019531 C 321.628906 354.019531 323.65625 361.789062 316.933594 359.59375 Z M 213.234375 325.226562 "
       id="path49" />
    <path
       style=" stroke:none;fill-rule:nonzero;fill:rgb(93.333435%,85.882568%,68.62793%);fill-opacity:1;"
       d="M 226.914062 286.933594 C 226.914062 286.933594 227.039062 282.851562 229.949219 280.316406 L 326.582031 312.773438 C 326.582031 312.773438 328.605469 320.542969 321.882812 318.347656 Z M 226.914062 286.933594 "
       id="path51" />
    <path
       style=" stroke:none;fill-rule:nonzero;fill:rgb(93.333435%,85.882568%,68.62793%);fill-opacity:1;"
       d="M 228.582031 446.601562 C 243.425781 491.78125 277.296875 530.367188 320.175781 550.9375 C 363.050781 571.503906 414.347656 573.773438 458.871094 557.070312 C 414.363281 565.605469 367.15625 562.921875 325.367188 545.378906 C 283.578125 527.835938 247.714844 494.765625 230.59375 452.800781 "
       id="path53" />
    <path
       style=" stroke:none;fill-rule:nonzero;fill:rgb(56.471252%,45.881653%,3.921509%);fill-opacity:1;"
       d="M 271.710938 231.21875 C 286.132812 212.21875 308.453125 200.351562 331.621094 194.675781 C 354.789062 188.996094 378.953125 188.996094 402.78125 190.074219 C 417.480469 190.738281 432.246094 191.808594 446.542969 195.300781 C 461.433594 198.9375 475.550781 205.132812 489.78125 210.828125 C 557.972656 238.113281 629.996094 254.316406 701.660156 270.410156 C 635.777344 270.648438 573.539062 242.679688 509.457031 227.375 C 488.078125 222.269531 466.390625 218.566406 444.722656 214.863281 C 417.058594 210.136719 389.113281 205.390625 361.089844 206.960938 C 327.449219 208.847656 294.375 220.046875 266.507812 238.988281 "
       id="path55" />
    <path
       style=" stroke:none;fill-rule:nonzero;fill:rgb(93.333435%,85.882568%,68.62793%);fill-opacity:1;"
       d="M 264.25 238.8125 C 279.042969 215.136719 304.097656 195.644531 331.996094 186.105469 C 359.890625 176.566406 390.25 177.109375 414.078125 187.578125 C 389.152344 181.484375 361.136719 181.300781 334.285156 189.257812 C 307.4375 197.214844 281.960938 213.6875 266.261719 235.5625 "
       id="path57" />
    <path
       style=" stroke:none;fill-rule:nonzero;fill:rgb(93.333435%,85.882568%,68.62793%);fill-opacity:1;"
       d="M 531.386719 448.511719 C 558.910156 412.699219 565.347656 371.398438 548.792969 336.835938 C 532.238281 302.277344 492.917969 274.929688 442.472656 262.894531 C 485.769531 280.042969 521.4375 305.582031 539.757812 337.695312 C 558.078125 369.808594 558.058594 408.660156 535.1875 443.613281 "
       id="path59" />
    <path
       style=" stroke:none;fill-rule:nonzero;fill:rgb(38.038635%,32.548523%,25.489807%);fill-opacity:1;"
       d="M 163.910156 595.636719 C 163.09375 598.117188 163.007812 600.769531 162.730469 603.367188 C 161.789062 612.179688 158.578125 620.5625 155.90625 629.019531 C 155.414062 630.578125 154.9375 632.15625 154.773438 633.785156 C 154.597656 635.507812 154.78125 637.242188 154.960938 638.964844 C 155.75 646.460938 156.539062 653.957031 157.328125 661.449219 C 158.046875 668.316406 158.601562 675.871094 154.609375 681.503906 C 154.132812 682.175781 153.5625 682.835938 152.792969 683.136719 C 152.15625 683.382812 151.453125 683.363281 150.773438 683.3125 C 147.863281 683.105469 144.984375 682.464844 142.261719 681.410156 C 142.605469 673.609375 142.953125 665.804688 143.300781 658.003906 C 143.507812 653.289062 143.722656 648.539062 144.894531 643.972656 C 145.574219 641.3125 146.570312 638.75 147.5625 636.191406 L 163.480469 595.191406 "
       id="path61" />
    <path
       style=" stroke:none;fill-rule:nonzero;fill:rgb(38.038635%,32.548523%,25.489807%);fill-opacity:1;"
       d="M 226.914062 286.933594 C 226.914062 286.933594 225.910156 289.671875 225.617188 295.402344 L 321.519531 327.128906 C 321.519531 327.128906 329.429688 320.382812 322.6875 318.101562 Z M 226.914062 286.933594 "
       id="path63" />
    <path
       style=" stroke:none;fill-rule:nonzero;fill:rgb(93.333435%,85.882568%,68.62793%);fill-opacity:1;"
       d="M 341.136719 305.574219 C 350.191406 312.144531 352.472656 324.449219 346.230469 333.050781 C 339.984375 341.65625 327.582031 343.300781 318.527344 336.730469 C 309.46875 330.15625 307.191406 317.855469 313.433594 309.25 C 319.675781 300.648438 332.082031 299 341.136719 305.574219 "
       id="path65" />
    <path
       style=" stroke:none;fill-rule:nonzero;fill:rgb(93.333435%,85.882568%,68.62793%);fill-opacity:1;"
       d="M 305.5625 384.515625 C 314.617188 391.085938 316.898438 403.390625 310.65625 411.992188 C 304.410156 420.597656 292.007812 422.242188 282.953125 415.671875 C 273.894531 409.097656 271.613281 396.796875 277.859375 388.191406 C 284.101562 379.589844 296.503906 377.941406 305.5625 384.515625 "
       id="path67" />
    <path
       style=" stroke:none;fill-rule:nonzero;fill:rgb(93.333435%,85.882568%,68.62793%);fill-opacity:1;"
       d="M 323.546875 347.351562 C 332.601562 353.921875 334.882812 366.226562 328.640625 374.828125 C 322.394531 383.433594 309.992188 385.078125 300.9375 378.507812 C 291.878906 371.933594 289.597656 359.632812 295.84375 351.027344 C 302.085938 342.425781 314.488281 340.777344 323.546875 347.351562 "
       id="path69" />
    <path
       style=" stroke:none;fill-rule:nonzero;fill:rgb(38.038635%,32.548523%,25.489807%);fill-opacity:1;"
       d="M 315.679688 358.191406 C 318.433594 360.191406 319.128906 363.929688 317.226562 366.546875 C 315.328125 369.164062 311.558594 369.664062 308.804688 367.664062 C 306.050781 365.667969 305.355469 361.925781 307.253906 359.308594 C 309.152344 356.691406 312.925781 356.191406 315.679688 358.191406 "
       id="path71" />
    <path
       style=" stroke:none;fill-rule:nonzero;fill:rgb(38.038635%,32.548523%,25.489807%);fill-opacity:1;"
       d="M 297.695312 395.355469 C 300.449219 397.355469 301.140625 401.09375 299.242188 403.710938 C 297.34375 406.328125 293.574219 406.828125 290.816406 404.832031 C 288.0625 402.832031 287.371094 399.089844 289.269531 396.472656 C 291.167969 393.859375 294.941406 393.355469 297.695312 395.355469 "
       id="path73" />
    <path
       style=" stroke:none;fill-rule:nonzero;fill:rgb(38.038635%,32.548523%,25.489807%);fill-opacity:1;"
       d="M 333.269531 316.414062 C 336.023438 318.414062 336.71875 322.152344 334.820312 324.769531 C 332.917969 327.386719 329.148438 327.886719 326.394531 325.890625 C 323.640625 323.890625 322.945312 320.148438 324.84375 317.53125 C 326.742188 314.917969 330.515625 314.414062 333.269531 316.414062 "
       id="path75" />
    <path
       style=" stroke:none;fill-rule:nonzero;fill:rgb(56.079102%,45.881653%,0.784302%);fill-opacity:1;"
       d="M 195.976562 265.609375 C 195.976562 265.609375 194.621094 260.617188 189.507812 261.875 C 189.507812 261.875 179.96875 275.480469 178.761719 283.332031 C 178.761719 283.332031 182.351562 285.644531 186.535156 285.246094 C 187.289062 286.203125 198.117188 269.757812 195.976562 265.609375 "
       id="path77" />
    <path
       style=" stroke:none;fill-rule:nonzero;fill:rgb(56.079102%,45.881653%,0.784302%);fill-opacity:1;"
       d="M 181.605469 304.175781 C 181.605469 304.175781 180.25 299.1875 175.136719 300.441406 C 175.136719 300.441406 165.601562 314.050781 164.394531 321.902344 C 164.394531 321.902344 167.984375 324.214844 172.167969 323.8125 C 172.167969 323.8125 182.53125 306.78125 181.605469 304.175781 "
       id="path79" />
    <path
       style=" stroke:none;fill-rule:nonzero;fill:rgb(56.079102%,45.881653%,0.784302%);fill-opacity:1;"
       d="M 166.636719 347.765625 C 166.636719 347.765625 164.816406 342.921875 159.84375 344.65625 C 159.84375 344.65625 151.628906 359.097656 151.167969 367.03125 C 151.167969 367.03125 154.957031 368.992188 159.085938 368.203125 C 159.085938 368.203125 167.804688 350.269531 166.636719 347.765625 "
       id="path81" />
    <path
       style=" stroke:none;fill-rule:nonzero;fill:rgb(93.333435%,85.882568%,68.62793%);fill-opacity:1;"
       d="M 195.117188 319.90625 C 195.117188 319.90625 192.496094 318.046875 200.398438 318.097656 C 200.398438 318.097656 206.886719 315.515625 209.726562 317.871094 L 205.769531 330.121094 C 205.769531 330.121094 201.253906 328.625 198.824219 323.417969 "
       id="path83" />
    <path
       style=" stroke:none;fill-rule:nonzero;fill:rgb(93.333435%,85.882568%,68.62793%);fill-opacity:1;"
       d="M 179.652344 361.605469 C 179.652344 361.605469 179.34375 361.289062 189.28125 359.058594 C 189.28125 359.058594 193.023438 357.753906 196.039062 360.066406 L 191.335938 374.144531 C 191.335938 374.144531 186.515625 372.351562 183.941406 367.195312 "
       id="path85" />
    <path
       style=" stroke:none;fill-rule:nonzero;fill:rgb(93.333435%,85.882568%,68.62793%);fill-opacity:1;"
       d="M 207.34375 280.632812 C 207.34375 280.632812 208.417969 280.972656 217.027344 279.078125 C 217.027344 279.078125 220.269531 277.949219 222.910156 280.042969 L 218.964844 292.578125 C 218.964844 292.578125 214.757812 290.929688 212.472656 286.296875 "
       id="path87" />
  </g>
</svg>
