<?xml version="1.0" encoding="UTF-8" standalone="no"?>
<svg
   xmlns:dc="http://purl.org/dc/elements/1.1/"
   xmlns:cc="http://creativecommons.org/ns#"
   xmlns:rdf="http://www.w3.org/1999/02/22-rdf-syntax-ns#"
   xmlns:svg="http://www.w3.org/2000/svg"
   xmlns="http://www.w3.org/2000/svg"
   xmlns:sodipodi="http://sodipodi.sourceforge.net/DTD/sodipodi-0.dtd"
   xmlns:inkscape="http://www.inkscape.org/namespaces/inkscape"
   width="200pt"
   height="200pt"
   viewBox="0 0 200 200"
   version="1.1"
   id="svg2"
   inkscape:version="0.91 r13725"
   sodipodi:docname="mellophonesmall.svg">
  <metadata
     id="metadata93">
    <rdf:RDF>
      <cc:Work
         rdf:about="">
        <dc:format>image/svg+xml</dc:format>
        <dc:type
           rdf:resource="http://purl.org/dc/dcmitype/StillImage" />
        <dc:title></dc:title>
      </cc:Work>
    </rdf:RDF>
  </metadata>
  <defs
     id="defs91" />
  <sodipodi:namedview
     pagecolor="#ffffff"
     bordercolor="#666666"
     borderopacity="1"
     objecttolerance="10"
     gridtolerance="10"
     guidetolerance="10"
     inkscape:pageopacity="0"
     inkscape:pageshadow="2"
     inkscape:window-width="664"
     inkscape:window-height="480"
     id="namedview89"
     showgrid="false"
     inkscape:zoom="0.944"
     inkscape:cx="125"
     inkscape:cy="125"
     inkscape:window-x="297"
     inkscape:window-y="41"
     inkscape:window-maximized="0"
     inkscape:current-layer="svg2" />
  <g
     id="surface880">
    <path
       style=" stroke:none;fill-rule:nonzero;fill:rgb(76.470947%,63.922119%,15.293884%);fill-opacity:1;"
       d="M 27.910156 145.300781 L 25.382812 154.53125 C 25.382812 154.53125 26.527344 163.316406 26.46875 164.070312 C 26.46875 164.070312 25.792969 166.707031 25.066406 167.0625 C 25.066406 167.0625 16.882812 167.097656 13.40625 164.136719 C 13.40625 164.136719 12.59375 161.808594 14.546875 160.085938 L 20.050781 154.199219 L 23.300781 143.984375 C 23.300781 143.984375 27.679688 144.027344 27.910156 145.300781 "
       id="path5" />
    <path
       style=" stroke:none;fill-rule:nonzero;fill:rgb(76.470947%,63.922119%,15.293884%);fill-opacity:1;"
       d="M 164.128906 59.253906 C 164.128906 59.253906 152.375 64.238281 110.097656 46.941406 C 110.097656 46.941406 90.753906 37.386719 74.257812 40.046875 C 74.257812 40.046875 53.347656 43.910156 44.273438 67.867188 L 51.058594 70.824219 C 51.058594 70.824219 60.964844 55.195312 75.4375 55.03125 C 75.4375 55.03125 88.324219 53.097656 100.636719 59.878906 C 100.636719 59.878906 118.222656 67.964844 120.957031 71.667969 C 120.957031 71.667969 137.984375 82.648438 137 91.574219 L 137.519531 97.835938 C 135.515625 115.257812 136.476562 120.871094 136.476562 120.871094 C 136.476562 120.871094 137.578125 124.152344 139.371094 124.859375 C 142.164062 125.964844 147.242188 123.386719 150.167969 120.839844 C 150.167969 120.839844 176.167969 98.515625 190.261719 56.90625 C 190.261719 56.90625 192.324219 50.34375 189.398438 48.1875 C 189.398438 48.1875 187.179688 44.695312 164.128906 59.253906 "
       id="path7" />
    <path
       style=" stroke:none;fill-rule:nonzero;fill:rgb(93.333435%,85.882568%,68.62793%);fill-opacity:1;"
       d="M 35.195312 64.234375 C 35.195312 64.234375 33.726562 62.863281 32.207031 63.390625 C 32.207031 63.390625 29.761719 66.9375 29.550781 69.164062 C 29.550781 69.164062 31.46875 70.292969 32.726562 70.035156 C 32.726562 70.035156 35.527344 64.929688 35.195312 64.234375 "
       id="path9" />
    <path
       style=" stroke:none;fill-rule:nonzero;fill:rgb(93.333435%,85.882568%,68.62793%);fill-opacity:1;"
       d="M 31.660156 73.722656 C 31.660156 73.722656 30.195312 72.347656 28.671875 72.878906 C 28.671875 72.878906 26.230469 76.421875 26.019531 78.652344 C 26.019531 78.652344 27.9375 79.777344 29.195312 79.519531 C 29.195312 79.519531 31.992188 74.414062 31.660156 73.722656 "
       id="path11" />
    <path
       style=" stroke:none;fill-rule:nonzero;fill:rgb(93.333435%,85.882568%,68.62793%);fill-opacity:1;"
       d="M 28.046875 84.34375 C 28.046875 84.34375 26.578125 82.972656 25.058594 83.5 C 25.058594 83.5 22.613281 87.046875 22.402344 89.277344 C 22.402344 89.277344 24.320312 90.402344 25.578125 90.144531 C 25.578125 90.144531 28.375 85.039062 28.046875 84.34375 "
       id="path13" />
    <path
       style=" stroke:none;fill-rule:nonzero;fill:rgb(56.079102%,45.881653%,0.784302%);fill-opacity:1;"
       d="M 39.457031 105.914062 C 39.457031 105.914062 44.984375 132.652344 67.597656 139.601562 C 90.210938 146.554688 104.699219 137.839844 112.808594 131.855469 C 112.808594 131.855469 145.597656 98.9375 118.363281 68.96875 C 118.363281 68.96875 97.773438 52.089844 75.554688 54.238281 C 75.554688 54.238281 54.566406 57.234375 51.058594 70.824219 L 60.464844 74.417969 C 60.464844 74.417969 63.261719 67.597656 76.589844 66.609375 C 76.589844 66.609375 95.035156 66.511719 106.347656 76.683594 C 106.347656 76.683594 119.40625 87.101562 115.734375 102.253906 C 115.734375 102.253906 112.433594 119.074219 96.746094 126.445312 C 96.746094 126.445312 86.558594 133.28125 73.949219 128.15625 C 73.949219 128.15625 60.367188 123.902344 56.847656 118.28125 C 42.726562 95.726562 60.457031 74.125 60.457031 74.125 L 44.277344 67.867188 L 24.15625 142.261719 C 23.492188 146.167969 27.128906 145.199219 27.128906 145.199219 C 29.03125 145.0625 32.234375 130.371094 32.234375 130.371094 L 39.457031 105.914062 "
       id="path15" />
    <path
       style=" stroke:none;fill-rule:nonzero;fill:rgb(56.079102%,45.881653%,0.784302%);fill-opacity:1;"
       d="M 66.515625 129.230469 C 63.878906 125.75 60.738281 125.316406 57.296875 123.078125 C 53.488281 120.601562 51.226562 118.207031 46.34375 117.90625 C 35.703125 117.253906 27.253906 125.414062 23.453125 134.703125 C 20.53125 141.847656 32.136719 144.957031 35.023438 137.894531 C 36.769531 133.632812 42.699219 127.808594 47.511719 130.5 C 49.015625 131.34375 50.046875 132.832031 51.585938 133.710938 C 52.652344 134.320312 54.011719 134.875 55.179688 135.257812 C 56.148438 135.578125 57.589844 137.179688 56.152344 135.285156 C 60.757812 141.363281 71.183594 135.390625 66.515625 129.230469 "
       id="path17" />
    <path
       style=" stroke:none;fill-rule:nonzero;fill:rgb(56.079102%,45.881653%,0.784302%);fill-opacity:1;"
       d="M 67.363281 112.011719 C 65.441406 116.050781 63.515625 120.09375 61.59375 124.132812 C 60.199219 127.058594 60.78125 130.609375 63.746094 132.34375 C 66.359375 133.871094 70.554688 133.128906 71.953125 130.1875 C 73.878906 126.148438 75.800781 122.109375 77.726562 118.066406 C 79.117188 115.144531 78.535156 111.589844 75.574219 109.855469 C 72.957031 108.328125 68.761719 109.070312 67.363281 112.011719 "
       id="path19" />
    <path
       style=" stroke:none;fill-rule:nonzero;fill:rgb(56.079102%,45.881653%,0.784302%);fill-opacity:1;"
       d="M 98.050781 85.011719 C 100.71875 79.855469 102.75 74.425781 103.941406 68.742188 C 104.605469 65.570312 103.011719 62.253906 99.75 61.359375 C 96.769531 60.539062 93.035156 62.363281 92.367188 65.550781 C 91.382812 70.246094 89.894531 74.695312 87.6875 78.957031 C 84.140625 85.804688 94.492188 91.882812 98.050781 85.011719 "
       id="path21" />
    <path
       style=" stroke:none;fill-rule:nonzero;fill:rgb(76.470947%,63.922119%,15.293884%);fill-opacity:1;"
       d="M 40.59375 73.402344 L 102.851562 95.121094 C 102.851562 95.121094 103.519531 91.332031 96.996094 89.910156 L 80.660156 84.324219 L 69.945312 80.929688 C 69.945312 80.929688 66.441406 79.953125 66.964844 78.382812 C 66.964844 78.382812 67.828125 76.886719 69.496094 77.691406 L 99.527344 87.859375 C 99.527344 87.859375 109.085938 91.46875 110.53125 92.871094 C 110.53125 92.871094 113.554688 93.691406 114.066406 93.511719 C 114.066406 93.511719 115.003906 91.257812 107.019531 87.695312 C 107.019531 87.695312 88.203125 80.222656 87.183594 80.578125 C 87.183594 80.578125 77.453125 77.125 72.460938 75.742188 C 72.460938 75.742188 66.394531 73.988281 65.542969 74.535156 C 65.542969 74.535156 64.4375 74.539062 64.078125 74.90625 L 42.761719 67.058594 "
       id="path23" />
    <path
       style=" stroke:none;fill-rule:nonzero;fill:rgb(76.470947%,63.922119%,15.293884%);fill-opacity:1;"
       d="M 114.066406 93.511719 C 114.066406 93.511719 114.5625 97.488281 113.632812 99.519531 C 113.632812 99.519531 111.484375 101.769531 105.339844 99.613281 C 99.199219 97.453125 86.890625 94.238281 86.890625 94.238281 L 71.113281 89.097656 C 71.113281 89.097656 69.160156 89.253906 70.027344 91.304688 L 78.4375 93.90625 C 78.4375 93.90625 80.527344 95.980469 77.015625 97.433594 C 77.015625 97.433594 73.734375 97.589844 69.273438 95.886719 C 69.273438 95.886719 67.976562 95.203125 67.566406 96.859375 L 67.175781 98.132812 C 67.175781 98.132812 66.671875 99.292969 68.191406 99.523438 C 68.191406 99.523438 86.753906 104.859375 87.078125 105.789062 C 87.078125 105.789062 94.117188 108.03125 90.757812 112.980469 C 90.757812 112.980469 89.449219 117.085938 83.949219 116.265625 C 83.949219 116.265625 73.039062 115.304688 67.777344 112.535156 C 67.777344 112.535156 55.320312 109.316406 53.324219 105.097656 L 52.394531 102.03125 C 52.394531 102.03125 49.652344 90.210938 59.851562 94.117188 C 59.851562 94.117188 63.144531 95.949219 64.515625 94.101562 C 64.515625 94.101562 65.886719 92.253906 64.386719 91.648438 L 54.046875 88.328125 L 44.570312 84.703125 L 37.390625 82.132812 L 39.527344 76.476562 L 63.761719 84.601562 C 63.761719 84.601562 64.757812 85.296875 66.664062 84.285156 C 66.664062 84.285156 69.203125 83.414062 71.492188 84.816406 L 105.292969 96.03125 C 105.292969 96.03125 109.824219 97.550781 110.128906 95.847656 C 110.128906 95.847656 111.261719 94.582031 110.53125 92.871094 Z M 114.066406 93.511719 "
       id="path25" />
    <path
       style=" stroke:none;fill-rule:nonzero;fill:rgb(76.470947%,63.922119%,15.293884%);fill-opacity:1;"
       d="M 85.183594 93.003906 C 85.183594 93.003906 80.261719 101.425781 82.765625 102.636719 C 82.765625 102.636719 84.476562 104.371094 87.082031 99.539062 L 88.988281 94.09375 L 92.589844 95.289062 C 92.589844 95.289062 89.832031 102.503906 86.613281 105.222656 C 86.613281 105.222656 84.640625 108.363281 79.96875 106.925781 C 79.96875 106.925781 76.882812 106.160156 78.316406 101.125 L 81.777344 91.703125 Z M 85.183594 93.003906 "
       id="path27" />
    <path
       style=" stroke:none;fill-rule:nonzero;fill:rgb(100%,100%,100%);fill-opacity:1;"
       d="M 57.714844 100.464844 C 59.183594 100.09375 61.484375 100.984375 62.976562 101.257812 C 69.523438 102.460938 75.273438 103.917969 81.53125 106.191406 C 83.527344 106.917969 85.699219 107.964844 86.375 109.980469 C 86.511719 110.386719 86.578125 110.835938 86.441406 111.242188 C 86.234375 111.867188 85.609375 112.253906 84.984375 112.457031 C 82.792969 113.175781 79.597656 112.660156 77.40625 111.929688 C 70.695312 109.683594 64.320312 108.632812 57.832031 105.804688 C 56.96875 105.425781 56.070312 104.96875 55.585938 104.15625 C 54.707031 102.671875 55.992188 100.445312 57.714844 100.464844 "
       id="path29" />
    <path
       style=" stroke:none;fill-rule:nonzero;fill:rgb(100%,100%,100%);fill-opacity:1;"
       d="M 57.714844 101.964844 C 61.460938 101.75 65.835938 103.277344 69.464844 104.144531 C 71.695312 104.675781 73.90625 105.273438 76.097656 105.949219 C 77.703125 106.441406 80.914062 106.898438 82.140625 108.09375 C 83.855469 108.46875 83.808594 109.535156 82 111.292969 C 80.5625 111.207031 79.164062 110.9375 77.804688 110.484375 C 75.6875 109.945312 73.601562 109.191406 71.488281 108.609375 C 69.421875 108.039062 67.339844 107.503906 65.285156 106.882812 C 64.101562 106.53125 62.929688 106.152344 61.761719 105.742188 C 59.753906 105.417969 58.535156 104.140625 58.113281 101.910156 C 59.992188 101.460938 59.195312 98.566406 57.316406 99.019531 C 52.136719 100.269531 53.597656 105.429688 57.433594 107.25 C 62.171875 109.5 67.464844 110.570312 72.480469 111.996094 C 76.28125 113.078125 80.621094 115.070312 84.675781 114.046875 C 90.570312 112.5625 87.085938 107.074219 83.3125 105.300781 C 79.25 103.390625 74.613281 102.289062 70.261719 101.25 C 66.324219 100.3125 61.777344 98.734375 57.714844 98.964844 C 55.796875 99.074219 55.785156 102.078125 57.714844 101.964844 "
       id="path31" />
    <path
       style=" stroke:none;fill-rule:nonzero;fill:rgb(76.470947%,63.922119%,15.293884%);fill-opacity:1;"
       d="M 27.476562 86.371094 C 27.476562 86.371094 28.269531 87.351562 32.796875 86.328125 C 32.796875 86.328125 34.503906 85.734375 35.871094 86.769531 L 33.703125 93.113281 C 33.703125 93.113281 31.511719 92.316406 30.351562 90 C 30.351562 90 29.316406 87.992188 26.941406 87.664062 Z M 27.476562 86.371094 "
       id="path33" />
    <path
       style=" stroke:none;fill-rule:nonzero;fill:rgb(76.470947%,63.922119%,15.293884%);fill-opacity:1;"
       d="M 30.859375 76.277344 C 30.859375 76.277344 31.011719 76.8125 34.914062 76.71875 C 34.914062 76.71875 38.160156 75.441406 39.527344 76.476562 L 37.390625 82.132812 C 37.390625 82.132812 35.183594 81.515625 34.058594 79.171875 C 34.058594 79.171875 32.964844 77.917969 30.230469 77.496094 Z M 30.859375 76.277344 "
       id="path35" />
    <path
       style=" stroke:none;fill-rule:nonzero;fill:rgb(76.470947%,63.922119%,15.293884%);fill-opacity:1;"
       d="M 34.367188 66.660156 C 34.367188 66.660156 35.164062 67.644531 39.691406 66.617188 C 39.691406 66.617188 41.394531 66.023438 42.761719 67.058594 L 40.59375 73.402344 C 40.59375 73.402344 38.402344 72.605469 37.242188 70.289062 C 37.242188 70.289062 36.210938 68.28125 33.835938 67.953125 Z M 34.367188 66.660156 "
       id="path37" />
    <path
       style=" stroke:none;fill-rule:nonzero;fill:rgb(76.470947%,63.922119%,15.293884%);fill-opacity:1;"
       d="M 35.871094 86.769531 L 56.28125 93.4375 L 54.433594 99.527344 L 33.703125 93.113281 "
       id="path39" />
    <path
       style=" stroke:none;fill-rule:nonzero;fill:rgb(56.079102%,45.881653%,0.784302%);fill-opacity:1;"
       d="M 126.148438 69.890625 C 134.449219 76.285156 138.667969 80.71875 146.96875 87.113281 C 149.164062 88.800781 151.398438 90.535156 152.910156 92.855469 C 154.1875 94.816406 154.882812 97.105469 155.257812 99.417969 C 156.613281 107.816406 153.253906 117.199219 145.972656 121.597656 C 143.984375 122.796875 141.109375 123.480469 139.5625 121.742188 C 138.734375 120.816406 138.585938 119.480469 138.535156 118.238281 C 138.285156 111.976562 139.609375 105.765625 140.007812 99.515625 C 140.402344 93.261719 139.734375 86.585938 136.019531 81.539062 C 132.617188 76.917969 127.847656 73.851562 125.445312 68.640625 "
       id="path41" />
    <path
       style=" stroke:none;fill-rule:nonzero;fill:rgb(38.038635%,32.548523%,25.489807%);fill-opacity:1;"
       d="M 35.777344 89.492188 C 35.777344 89.492188 34.9375 90.480469 35.398438 91.589844 L 61.042969 100.058594 C 61.042969 100.058594 62.976562 98.414062 61.328125 97.855469 Z M 35.777344 89.492188 "
       id="path43" />
    <path
       style=" stroke:none;fill-rule:nonzero;fill:rgb(93.333435%,85.882568%,68.62793%);fill-opacity:1;"
       d="M 35.777344 89.492188 C 35.777344 89.492188 35.660156 88.097656 36.847656 88.082031 L 62.277344 96.554688 C 62.277344 96.554688 62.773438 98.453125 61.132812 97.914062 Z M 35.777344 89.492188 "
       id="path45" />
    <path
       style=" stroke:none;fill-rule:nonzero;fill:rgb(38.038635%,32.548523%,25.489807%);fill-opacity:1;"
       d="M 39.15625 79.339844 C 39.15625 79.339844 38.773438 80.050781 38.757812 81.410156 L 64.402344 89.878906 C 64.402344 89.878906 66.335938 88.230469 64.6875 87.675781 Z M 39.15625 79.339844 "
       id="path47" />
    <path
       style=" stroke:none;fill-rule:nonzero;fill:rgb(93.333435%,85.882568%,68.62793%);fill-opacity:1;"
       d="M 39.15625 79.339844 C 39.15625 79.339844 39.578125 78.027344 40.207031 77.902344 L 65.640625 86.375 C 65.640625 86.375 66.132812 88.269531 64.492188 87.734375 Z M 39.15625 79.339844 "
       id="path49" />
    <path
       style=" stroke:none;fill-rule:nonzero;fill:rgb(93.333435%,85.882568%,68.62793%);fill-opacity:1;"
       d="M 42.5 69.984375 C 42.5 69.984375 42.53125 68.988281 43.242188 68.367188 L 66.847656 76.296875 C 66.847656 76.296875 67.34375 78.195312 65.703125 77.660156 Z M 42.5 69.984375 "
       id="path51" />
    <path
       style=" stroke:none;fill-rule:nonzero;fill:rgb(93.333435%,85.882568%,68.62793%);fill-opacity:1;"
       d="M 42.90625 108.992188 C 46.535156 120.027344 54.808594 129.453125 65.285156 134.480469 C 75.757812 139.503906 88.289062 140.058594 99.167969 135.980469 C 88.292969 138.0625 76.761719 137.40625 66.550781 133.121094 C 56.34375 128.835938 47.582031 120.757812 43.398438 110.503906 "
       id="path53" />
    <path
       style=" stroke:none;fill-rule:nonzero;fill:rgb(56.471252%,45.881653%,3.921509%);fill-opacity:1;"
       d="M 53.445312 56.371094 C 56.964844 51.730469 62.417969 48.832031 68.078125 47.445312 C 73.738281 46.058594 79.644531 46.058594 85.464844 46.320312 C 89.054688 46.480469 92.664062 46.746094 96.15625 47.597656 C 99.792969 48.488281 103.242188 50 106.71875 51.390625 C 123.378906 58.058594 140.972656 62.015625 158.480469 65.949219 C 142.386719 66.003906 127.179688 59.171875 111.527344 55.433594 C 106.300781 54.1875 101.003906 53.28125 95.710938 52.375 C 88.953125 51.222656 82.125 50.0625 75.28125 50.445312 C 67.0625 50.90625 58.980469 53.644531 52.171875 58.269531 "
       id="path55" />
    <path
       style=" stroke:none;fill-rule:nonzero;fill:rgb(93.333435%,85.882568%,68.62793%);fill-opacity:1;"
       d="M 51.621094 58.226562 C 55.234375 52.445312 61.355469 47.679688 68.171875 45.351562 C 74.988281 43.019531 82.402344 43.152344 88.222656 45.710938 C 82.136719 44.222656 75.289062 44.175781 68.730469 46.121094 C 62.171875 48.066406 55.949219 52.089844 52.113281 57.433594 "
       id="path57" />
    <path
       style=" stroke:none;fill-rule:nonzero;fill:rgb(93.333435%,85.882568%,68.62793%);fill-opacity:1;"
       d="M 116.882812 109.457031 C 123.605469 100.707031 125.179688 90.617188 121.136719 82.175781 C 117.089844 73.730469 107.484375 67.050781 95.160156 64.109375 C 105.738281 68.300781 114.453125 74.539062 118.929688 82.386719 C 123.402344 90.230469 123.398438 99.722656 117.8125 108.261719 "
       id="path59" />
    <path
       style=" stroke:none;fill-rule:nonzero;fill:rgb(38.038635%,32.548523%,25.489807%);fill-opacity:1;"
       d="M 27.109375 145.398438 C 26.90625 146.007812 26.886719 146.652344 26.820312 147.289062 C 26.589844 149.441406 25.804688 151.488281 25.152344 153.554688 C 25.03125 153.9375 24.914062 154.320312 24.875 154.71875 C 24.832031 155.140625 24.875 155.566406 24.921875 155.984375 C 25.113281 157.816406 25.308594 159.648438 25.5 161.480469 C 25.675781 163.15625 25.8125 165 24.835938 166.378906 C 24.71875 166.542969 24.578125 166.703125 24.390625 166.777344 C 24.238281 166.835938 24.066406 166.832031 23.898438 166.820312 C 23.1875 166.769531 22.484375 166.613281 21.820312 166.355469 C 21.902344 164.449219 21.988281 162.542969 22.074219 160.636719 C 22.125 159.484375 22.175781 158.324219 22.460938 157.207031 C 22.628906 156.558594 22.871094 155.933594 23.113281 155.308594 L 27.003906 145.289062 "
       id="path61" />
    <path
       style=" stroke:none;fill-rule:nonzero;fill:rgb(38.038635%,32.548523%,25.489807%);fill-opacity:1;"
       d="M 42.5 69.984375 C 42.5 69.984375 42.253906 70.652344 42.183594 72.050781 L 65.613281 79.804688 C 65.613281 79.804688 67.542969 78.15625 65.898438 77.597656 Z M 42.5 69.984375 "
       id="path63" />
    <path
       style=" stroke:none;fill-rule:nonzero;fill:rgb(93.333435%,85.882568%,68.62793%);fill-opacity:1;"
       d="M 70.40625 74.539062 C 72.617188 76.144531 73.175781 79.148438 71.648438 81.25 C 70.125 83.351562 67.09375 83.753906 64.878906 82.148438 C 62.667969 80.542969 62.113281 77.539062 63.636719 75.4375 C 65.160156 73.335938 68.191406 72.929688 70.40625 74.539062 "
       id="path65" />
    <path
       style=" stroke:none;fill-rule:nonzero;fill:rgb(93.333435%,85.882568%,68.62793%);fill-opacity:1;"
       d="M 61.714844 93.824219 C 63.925781 95.429688 64.484375 98.433594 62.957031 100.535156 C 61.433594 102.636719 58.402344 103.039062 56.1875 101.433594 C 53.976562 99.828125 53.421875 96.824219 54.945312 94.722656 C 56.46875 92.621094 59.5 92.21875 61.714844 93.824219 "
       id="path67" />
    <path
       style=" stroke:none;fill-rule:nonzero;fill:rgb(93.333435%,85.882568%,68.62793%);fill-opacity:1;"
       d="M 66.105469 84.742188 C 68.320312 86.347656 68.878906 89.355469 67.351562 91.457031 C 65.824219 93.558594 62.796875 93.960938 60.582031 92.355469 C 58.371094 90.75 57.8125 87.742188 59.339844 85.640625 C 60.863281 83.539062 63.894531 83.136719 66.105469 84.742188 "
       id="path69" />
    <path
       style=" stroke:none;fill-rule:nonzero;fill:rgb(38.038635%,32.548523%,25.489807%);fill-opacity:1;"
       d="M 64.183594 87.390625 C 64.859375 87.878906 65.027344 88.792969 64.5625 89.433594 C 64.101562 90.074219 63.179688 90.195312 62.503906 89.707031 C 61.832031 89.21875 61.664062 88.304688 62.128906 87.664062 C 62.589844 87.027344 63.511719 86.902344 64.183594 87.390625 "
       id="path71" />
    <path
       style=" stroke:none;fill-rule:nonzero;fill:rgb(38.038635%,32.548523%,25.489807%);fill-opacity:1;"
       d="M 59.792969 96.472656 C 60.464844 96.960938 60.632812 97.875 60.167969 98.511719 C 59.707031 99.152344 58.785156 99.273438 58.113281 98.785156 C 57.4375 98.296875 57.269531 97.382812 57.734375 96.746094 C 58.199219 96.105469 59.117188 95.984375 59.792969 96.472656 "
       id="path73" />
    <path
       style=" stroke:none;fill-rule:nonzero;fill:rgb(38.038635%,32.548523%,25.489807%);fill-opacity:1;"
       d="M 68.484375 77.1875 C 69.15625 77.671875 69.324219 78.585938 68.859375 79.226562 C 68.398438 79.867188 67.476562 79.988281 66.800781 79.5 C 66.128906 79.011719 65.960938 78.097656 66.425781 77.457031 C 66.886719 76.820312 67.808594 76.699219 68.484375 77.1875 "
       id="path75" />
    <path
       style=" stroke:none;fill-rule:nonzero;fill:rgb(56.079102%,45.881653%,0.784302%);fill-opacity:1;"
       d="M 34.941406 64.773438 C 34.941406 64.773438 34.609375 63.554688 33.359375 63.863281 C 33.359375 63.863281 31.03125 67.1875 30.734375 69.105469 C 30.734375 69.105469 31.613281 69.667969 32.636719 69.570312 C 32.820312 69.804688 35.464844 65.789062 34.941406 64.773438 "
       id="path77" />
    <path
       style=" stroke:none;fill-rule:nonzero;fill:rgb(56.079102%,45.881653%,0.784302%);fill-opacity:1;"
       d="M 31.429688 74.195312 C 31.429688 74.195312 31.101562 72.976562 29.851562 73.285156 C 29.851562 73.285156 27.519531 76.609375 27.226562 78.527344 C 27.226562 78.527344 28.101562 79.089844 29.125 78.992188 C 29.125 78.992188 31.65625 74.832031 31.429688 74.195312 "
       id="path79" />
    <path
       style=" stroke:none;fill-rule:nonzero;fill:rgb(56.079102%,45.881653%,0.784302%);fill-opacity:1;"
       d="M 27.773438 84.84375 C 27.773438 84.84375 27.328125 83.660156 26.113281 84.085938 C 26.113281 84.085938 24.109375 87.613281 23.996094 89.550781 C 23.996094 89.550781 24.921875 90.03125 25.929688 89.835938 C 25.929688 89.835938 28.058594 85.457031 27.773438 84.84375 "
       id="path81" />
    <path
       style=" stroke:none;fill-rule:nonzero;fill:rgb(93.333435%,85.882568%,68.62793%);fill-opacity:1;"
       d="M 34.730469 78.039062 C 34.730469 78.039062 34.089844 77.585938 36.023438 77.597656 C 36.023438 77.597656 37.609375 76.964844 38.300781 77.542969 L 37.335938 80.535156 C 37.335938 80.535156 36.230469 80.167969 35.636719 78.894531 "
       id="path83" />
    <path
       style=" stroke:none;fill-rule:nonzero;fill:rgb(93.333435%,85.882568%,68.62793%);fill-opacity:1;"
       d="M 30.953125 88.226562 C 30.953125 88.226562 30.878906 88.148438 33.304688 87.605469 C 33.304688 87.605469 34.21875 87.285156 34.957031 87.851562 L 33.808594 91.289062 C 33.808594 91.289062 32.628906 90.851562 32.003906 89.59375 "
       id="path85" />
    <path
       style=" stroke:none;fill-rule:nonzero;fill:rgb(93.333435%,85.882568%,68.62793%);fill-opacity:1;"
       d="M 37.71875 68.445312 C 37.71875 68.445312 37.980469 68.527344 40.085938 68.066406 C 40.085938 68.066406 40.875 67.789062 41.519531 68.300781 L 40.558594 71.363281 C 40.558594 71.363281 39.53125 70.960938 38.972656 69.828125 "
       id="path87" />
  </g>
</svg>
