<?xml version="1.0" encoding="UTF-8" standalone="no"?>
<svg
   xmlns:dc="http://purl.org/dc/elements/1.1/"
   xmlns:cc="http://creativecommons.org/ns#"
   xmlns:rdf="http://www.w3.org/1999/02/22-rdf-syntax-ns#"
   xmlns:svg="http://www.w3.org/2000/svg"
   xmlns="http://www.w3.org/2000/svg"
   xmlns:sodipodi="http://sodipodi.sourceforge.net/DTD/sodipodi-0.dtd"
   xmlns:inkscape="http://www.inkscape.org/namespaces/inkscape"
   width="906.328pt"
   height="833.914pt"
   viewBox="0 0 906.328 833.914"
   version="1.1"
   id="svg2"
   inkscape:version="0.91 r13725"
   sodipodi:docname="shout.svg">
  <metadata
     id="metadata21">
    <rdf:RDF>
      <cc:Work
         rdf:about="">
        <dc:format>image/svg+xml</dc:format>
        <dc:type
           rdf:resource="http://purl.org/dc/dcmitype/StillImage" />
        <dc:title></dc:title>
      </cc:Work>
    </rdf:RDF>
  </metadata>
  <defs
     id="defs19" />
  <sodipodi:namedview
     pagecolor="#ffffff"
     bordercolor="#666666"
     borderopacity="1"
     objecttolerance="10"
     gridtolerance="10"
     guidetolerance="10"
     inkscape:pageopacity="0"
     inkscape:pageshadow="2"
     inkscape:window-width="664"
     inkscape:window-height="480"
     id="namedview17"
     showgrid="false"
     inkscape:zoom="0.22640224"
     inkscape:cx="566.455"
     inkscape:cy="521.19625"
     inkscape:window-x="0"
     inkscape:window-y="23"
     inkscape:window-maximized="0"
     inkscape:current-layer="svg2" />
  <g
     id="surface606">
    <path
       style=" stroke:none;fill-rule:nonzero;fill:rgb(9.799194%,14.498901%,13.699341%);fill-opacity:1;"
       d="M 230.40625 412.910156 C 236.636719 418.851562 245.171875 424.730469 256.171875 426.398438 C 262.085938 427.296875 268.804688 426.605469 268.738281 421.035156 C 268.683594 416.605469 264.429688 415.539062 258.53125 414.234375 C 236.730469 409.921875 226.660156 402.929688 226.648438 384.921875 C 226.636719 363.839844 239.546875 351.835938 254.390625 347.003906 C 264.136719 343.828125 272.957031 345.824219 279.394531 350.613281 L 274.832031 379 C 269.566406 374.710938 261.820312 372.230469 253.683594 373.566406 C 247.488281 374.585938 241.675781 377 241.699219 381.75 C 241.71875 385.15625 244.675781 385.730469 249.957031 385.867188 C 268.828125 386.578125 283.507812 391.789062 283.941406 421.035156 C 284.34375 448.273438 272.496094 457.898438 255.648438 452.742188 C 240.976562 448.257812 231.414062 439.210938 224.894531 432.28125 Z M 230.40625 412.910156 "
       id="path5" />
    <path
       style=" stroke:none;fill-rule:nonzero;fill:rgb(9.799194%,14.498901%,13.699341%);fill-opacity:1;"
       d="M 347.730469 419.859375 L 318.601562 417.710938 L 319.605469 467.78125 L 304.242188 463.375 L 301.949219 335.789062 L 316.867188 331.234375 L 317.871094 381.300781 L 346.773438 378.867188 L 345.457031 322.503906 L 360.375 317.945312 L 364.410156 480.625 L 349.046875 476.222656 Z M 347.730469 419.859375 "
       id="path7" />
    <path
       style=" stroke:none;fill-rule:nonzero;fill:rgb(9.799194%,14.498901%,13.699341%);fill-opacity:1;"
       d="M 433.78125 398.929688 C 432.785156 365.59375 424.050781 346.949219 414.285156 348.515625 C 404.457031 350.085938 396.8125 369.253906 397.636719 399.109375 C 398.453125 428.71875 407.214844 448.050781 417.195312 449.523438 C 427.113281 450.988281 434.769531 431.992188 433.78125 398.929688 M 381.863281 399.1875 C 380.464844 346.230469 392.757812 301.933594 412.753906 295.417969 C 432.6875 288.925781 447.550781 333.714844 449.554688 398.851562 C 451.558594 463.984375 439.292969 508.910156 418.726562 502.621094 C 398.097656 496.3125 383.265625 452.144531 381.863281 399.1875 "
       id="path9" />
    <path
       style=" stroke:none;fill-rule:nonzero;fill:rgb(9.799194%,14.498901%,13.699341%);fill-opacity:1;"
       d="M 479.738281 281.496094 L 483.320312 392.117188 C 484.65625 433.367188 491.300781 458.894531 500.328125 460.191406 C 509.351562 461.492188 514.304688 435.804688 512.820312 391.480469 L 508.828125 272.613281 L 523.746094 268.058594 L 528.300781 401.589844 C 531.421875 493.042969 519.359375 533.398438 502.574219 528.265625 C 485.785156 523.128906 470.984375 480.507812 468.480469 401.460938 L 464.820312 286.050781 Z M 479.738281 281.496094 "
       id="path11" />
    <path
       style=" stroke:none;fill-rule:nonzero;fill:rgb(9.799194%,14.498901%,13.699341%);fill-opacity:1;"
       d="M 542 262.484375 L 600.675781 244.5625 L 603.660156 326.433594 L 581.855469 329.574219 L 589.589844 545.183594 L 573.714844 540.632812 L 566.320312 331.8125 L 544.515625 334.953125 Z M 542 262.484375 "
       id="path13" />
    <path
       style=" stroke:none;fill-rule:nonzero;fill:rgb(9.799194%,14.498901%,13.699341%);fill-opacity:1;"
       d="M 620.046875 238.648438 L 637.453125 233.332031 L 643.785156 436.851562 L 628.59375 435.863281 Z M 649.28125 519.667969 C 650.542969 553.523438 646.878906 572.398438 641.175781 570.65625 C 635.472656 568.910156 630.332031 548.054688 629.128906 515.410156 C 627.925781 482.765625 631.585938 463.769531 637.234375 464.425781 C 642.878906 465.078125 648.015625 485.8125 649.28125 519.667969 "
       id="path15" />
  </g>
</svg>
