<?xml version="1.0" encoding="UTF-8" standalone="no"?>
<svg
   xmlns:dc="http://purl.org/dc/elements/1.1/"
   xmlns:cc="http://creativecommons.org/ns#"
   xmlns:rdf="http://www.w3.org/1999/02/22-rdf-syntax-ns#"
   xmlns:svg="http://www.w3.org/2000/svg"
   xmlns="http://www.w3.org/2000/svg"
   xmlns:sodipodi="http://sodipodi.sourceforge.net/DTD/sodipodi-0.dtd"
   xmlns:inkscape="http://www.inkscape.org/namespaces/inkscape"
   width="906.328pt"
   height="833.914pt"
   viewBox="0 0 906.328 833.914"
   version="1.1"
   id="svg2"
   inkscape:version="0.91 r13725"
   sodipodi:docname="bluephone.svg">
  <metadata
     id="metadata83">
    <rdf:RDF>
      <cc:Work
         rdf:about="">
        <dc:format>image/svg+xml</dc:format>
        <dc:type
           rdf:resource="http://purl.org/dc/dcmitype/StillImage" />
        <dc:title></dc:title>
      </cc:Work>
    </rdf:RDF>
  </metadata>
  <defs
     id="defs81" />
  <sodipodi:namedview
     pagecolor="#ffffff"
     bordercolor="#666666"
     borderopacity="1"
     objecttolerance="10"
     gridtolerance="10"
     guidetolerance="10"
     inkscape:pageopacity="0"
     inkscape:pageshadow="2"
     inkscape:window-width="664"
     inkscape:window-height="480"
     id="namedview79"
     showgrid="false"
     inkscape:zoom="0.22640224"
     inkscape:cx="566.455"
     inkscape:cy="521.19625"
     inkscape:window-x="0"
     inkscape:window-y="23"
     inkscape:window-maximized="0"
     inkscape:current-layer="svg2" />
  <g
     id="surface606">
    <path
       style=" stroke:none;fill-rule:nonzero;fill:rgb(20.799255%,35.299683%,30.999756%);fill-opacity:1;"
       d="M 147.46875 576.042969 L 137.25 613.863281 C 137.25 613.863281 142.066406 649.808594 141.84375 652.882812 C 141.84375 652.882812 139.109375 663.683594 136.136719 665.15625 C 136.136719 665.15625 102.648438 665.410156 88.359375 653.335938 C 88.359375 653.335938 85.007812 643.824219 92.976562 636.738281 L 115.425781 612.574219 L 128.585938 570.722656 C 128.585938 570.722656 146.503906 570.820312 147.46875 576.042969 "
       id="path5" />
    <path
       style=" stroke:none;fill-rule:nonzero;fill:rgb(45.098877%,65.098572%,58.799744%);fill-opacity:1;"
       d="M 703.835938 221.90625 C 703.835938 221.90625 655.792969 242.46875 482.5 172.265625 C 482.5 172.265625 403.175781 133.433594 335.695312 144.546875 C 335.695312 144.546875 250.160156 160.664062 213.367188 258.847656 L 241.171875 270.859375 C 241.171875 270.859375 281.492188 206.738281 340.746094 205.859375 C 340.746094 205.859375 393.464844 197.769531 443.949219 225.351562 C 443.949219 225.351562 516.054688 258.199219 527.300781 273.335938 C 527.300781 273.335938 597.148438 318.027344 593.242188 354.574219 L 595.460938 380.214844 C 587.507812 451.542969 591.511719 474.503906 591.511719 474.503906 C 591.511719 474.503906 596.070312 487.925781 603.414062 490.800781 C 614.875 495.28125 635.617188 484.644531 647.558594 474.183594 C 647.558594 474.183594 753.675781 382.433594 810.78125 211.917969 C 810.78125 211.917969 819.125 185.03125 807.109375 176.25 C 807.109375 176.25 797.992188 161.984375 703.835938 221.90625 "
       id="path7" />
    <path
       style=" stroke:none;fill-rule:nonzero;fill:rgb(20.799255%,35.299683%,30.999756%);fill-opacity:1;"
       d="M 176.144531 244.113281 C 176.144531 244.113281 170.121094 238.507812 163.902344 240.703125 C 163.902344 240.703125 153.941406 255.25 153.109375 264.375 C 153.109375 264.375 160.984375 268.960938 166.125 267.886719 C 166.125 267.886719 177.511719 246.945312 176.144531 244.113281 "
       id="path9" />
    <path
       style=" stroke:none;fill-rule:nonzero;fill:rgb(20.799255%,35.299683%,30.999756%);fill-opacity:1;"
       d="M 161.816406 282.992188 C 161.816406 282.992188 155.792969 277.386719 149.574219 279.578125 C 149.574219 279.578125 139.613281 294.128906 138.78125 303.253906 C 138.78125 303.253906 146.652344 307.839844 151.792969 306.761719 C 151.792969 306.761719 163.179688 285.824219 161.816406 282.992188 "
       id="path11" />
    <path
       style=" stroke:none;fill-rule:nonzero;fill:rgb(20.799255%,35.299683%,30.999756%);fill-opacity:1;"
       d="M 147.164062 326.527344 C 147.164062 326.527344 141.144531 320.921875 134.921875 323.113281 C 134.921875 323.113281 124.964844 337.664062 124.132812 346.789062 C 124.132812 346.789062 132.003906 351.375 137.144531 350.300781 C 137.144531 350.300781 148.53125 329.359375 147.164062 326.527344 "
       id="path13" />
    <path
       style=" stroke:none;fill-rule:nonzero;fill:rgb(45.098877%,65.098572%,58.799744%);fill-opacity:1;"
       d="M 194.179688 414.644531 C 194.179688 414.644531 217.179688 524.019531 309.84375 552.15625 C 402.507812 580.292969 461.6875 544.414062 494.796875 519.808594 C 494.796875 519.808594 628.539062 384.59375 516.648438 262.304688 C 516.648438 262.304688 432.132812 193.511719 341.207031 202.625 C 341.207031 202.625 255.339844 215.179688 241.171875 270.859375 L 279.722656 285.4375 C 279.722656 285.4375 291.082031 257.484375 345.613281 253.25 C 345.613281 253.25 421.125 252.59375 467.570312 294.066406 C 467.570312 294.066406 521.160156 336.515625 506.355469 398.589844 C 506.355469 398.589844 493.074219 467.488281 428.972656 497.890625 C 428.972656 497.890625 387.371094 526.011719 335.679688 505.203125 C 335.679688 505.203125 280.015625 487.992188 265.535156 465.039062 C 207.417969 372.914062 279.695312 284.242188 279.695312 284.242188 L 213.367188 258.847656 L 132.058594 563.644531 C 129.398438 579.644531 144.273438 575.632812 144.273438 575.632812 C 152.054688 575.039062 164.960938 514.859375 164.960938 514.859375 L 194.179688 414.644531 "
       id="path15" />
    <path
       style=" stroke:none;fill-rule:nonzero;fill:rgb(45.098877%,65.098572%,58.799744%);fill-opacity:1;"
       d="M 291.871094 517.636719 C 285.359375 506.304688 271.40625 504.816406 260.859375 499.125 C 256.492188 496.765625 252.539062 491.726562 247.640625 488.335938 C 240.730469 483.554688 234.035156 480.316406 225.582031 479.394531 C 207.863281 477.460938 189.265625 482.449219 175.554688 494.046875 C 169.238281 499.394531 163.6875 506.03125 158.46875 512.4375 C 152.375 519.90625 147.328125 527.648438 144.105469 536.78125 C 140.238281 547.726562 157.625 552.433594 161.460938 541.566406 C 163.78125 534.996094 167.851562 529.15625 172.289062 523.84375 C 176.890625 518.332031 181.675781 512.625 187.050781 507.847656 C 197.214844 498.820312 213.027344 495.019531 226.292969 497.5625 C 237.242188 499.664062 242.96875 510.054688 252.265625 514.921875 C 257.179688 517.492188 262.496094 519.191406 267.609375 521.308594 C 269.554688 522.113281 271.480469 522.980469 273.300781 524.054688 C 275.117188 525.125 275.734375 525.6875 276.328125 526.71875 C 282.101562 536.761719 297.660156 527.707031 291.871094 517.636719 "
       id="path17" />
    <path
       style=" stroke:none;fill-rule:nonzero;fill:rgb(45.098877%,65.098572%,58.799744%);fill-opacity:1;"
       d="M 321.972656 446.992188 C 314.15625 463.558594 306.335938 480.128906 298.519531 496.695312 C 296.445312 501.089844 297.292969 506.40625 301.746094 509.007812 C 305.660156 511.296875 311.976562 510.195312 314.058594 505.78125 C 321.878906 489.214844 329.695312 472.644531 337.515625 456.078125 C 339.589844 451.683594 338.738281 446.367188 334.285156 443.761719 C 330.375 441.476562 324.058594 442.578125 321.972656 446.992188 "
       id="path19" />
    <path
       style=" stroke:none;fill-rule:nonzero;fill:rgb(45.098877%,65.098572%,58.799744%);fill-opacity:1;"
       d="M 420.238281 320.496094 C 430.578125 300.636719 438.179688 279.484375 442.574219 257.527344 C 444.839844 246.214844 427.492188 241.375 425.21875 252.742188 C 421.121094 273.207031 414.335938 292.894531 404.695312 311.410156 C 399.355469 321.671875 414.882812 330.785156 420.238281 320.496094 "
       id="path21" />
    <path
       style=" stroke:none;fill-rule:nonzero;fill:rgb(45.098877%,65.098572%,58.799744%);fill-opacity:1;"
       d="M 198.375 281.558594 L 453.523438 369.570312 C 453.523438 369.570312 456.199219 354.054688 429.476562 348.332031 L 362.523438 325.703125 L 318.625 311.949219 C 318.625 311.949219 304.261719 308.007812 306.386719 301.578125 C 306.386719 301.578125 309.902344 295.429688 316.734375 298.703125 L 439.800781 339.90625 C 439.800781 339.90625 478.992188 354.542969 484.914062 360.269531 C 484.914062 360.269531 497.316406 363.574219 499.402344 362.835938 C 499.402344 362.835938 503.207031 353.597656 470.472656 339.125 C 470.472656 339.125 393.339844 308.804688 389.183594 310.269531 C 389.183594 310.269531 349.304688 296.28125 328.84375 290.691406 C 328.84375 290.691406 303.992188 283.601562 300.515625 285.84375 C 300.515625 285.84375 295.988281 285.871094 294.519531 287.390625 L 207.164062 255.554688 "
       id="path23" />
    <path
       style=" stroke:none;fill-rule:nonzero;fill:rgb(45.098877%,65.098572%,58.799744%);fill-opacity:1;"
       d="M 277.488281 366.074219 C 277.488281 366.074219 291.007812 373.523438 296.585938 365.945312 C 296.585938 365.945312 302.167969 358.367188 296.023438 355.914062 L 253.65625 342.460938 L 214.808594 327.765625 L 185.390625 317.339844 L 194.054688 294.15625 L 293.363281 327.074219 C 293.363281 327.074219 297.449219 329.90625 305.242188 325.738281 C 305.242188 325.738281 315.621094 322.144531 325.003906 327.851562 L 463.527344 373.273438 C 463.527344 373.273438 482.085938 379.433594 483.3125 372.445312 C 483.3125 372.445312 487.941406 367.257812 484.914062 360.269531 L 499.402344 362.835938 C 499.402344 362.835938 501.484375 379.109375 497.707031 387.429688 C 497.707031 387.429688 488.941406 396.667969 463.773438 387.925781 C 438.605469 379.183594 388.175781 366.199219 388.175781 366.199219 L 323.523438 345.371094 C 323.523438 345.371094 315.53125 346.042969 319.105469 354.414062 L 353.570312 364.945312 C 353.570312 364.945312 362.148438 373.417969 347.792969 379.40625 C 347.792969 379.40625 334.371094 380.101562 316.089844 373.183594 C 316.089844 373.183594 310.761719 370.402344 309.113281 377.195312 L 307.535156 382.414062 C 307.535156 382.414062 305.488281 387.175781 311.710938 388.085938 C 311.710938 388.085938 387.761719 409.675781 389.101562 413.476562 C 389.101562 413.476562 406.292969 420.773438 404.261719 442.855469 "
       id="path25" />
    <path
       style=" stroke:none;fill-rule:nonzero;fill:rgb(45.098877%,65.098572%,58.799744%);fill-opacity:1;"
       d="M 381.164062 361.171875 C 381.164062 361.171875 361.136719 395.710938 371.414062 400.632812 C 371.414062 400.632812 378.433594 407.707031 389.035156 387.890625 L 396.75 365.570312 L 411.523438 370.414062 C 411.523438 370.414062 400.335938 399.988281 387.183594 411.15625 C 387.183594 411.15625 379.160156 424.035156 360.023438 418.214844 C 360.023438 418.214844 347.378906 415.132812 353.171875 394.5 L 367.203125 355.882812 Z M 381.164062 361.171875 "
       id="path27" />
    <path
       style=" stroke:none;fill-rule:nonzero;fill:rgb(45.098877%,65.098572%,58.799744%);fill-opacity:1;"
       d="M 144.859375 334.828125 C 144.859375 334.828125 148.125 338.835938 166.640625 334.578125 C 166.640625 334.578125 173.617188 332.121094 179.230469 336.332031 L 170.441406 362.335938 C 170.441406 362.335938 161.460938 359.101562 156.683594 349.644531 C 156.683594 349.644531 152.421875 341.4375 142.695312 340.128906 Z M 144.859375 334.828125 "
       id="path29" />
    <path
       style=" stroke:none;fill-rule:nonzero;fill:rgb(45.098877%,65.098572%,58.799744%);fill-opacity:1;"
       d="M 158.566406 293.457031 C 158.566406 293.457031 159.191406 295.648438 175.171875 295.210938 C 175.171875 295.210938 188.441406 289.941406 194.050781 294.15625 L 185.390625 317.339844 C 185.390625 317.339844 176.339844 314.847656 171.703125 305.269531 C 171.703125 305.269531 167.207031 300.144531 156.007812 298.457031 Z M 158.566406 293.457031 "
       id="path31" />
    <path
       style=" stroke:none;fill-rule:nonzero;fill:rgb(45.098877%,65.098572%,58.799744%);fill-opacity:1;"
       d="M 172.605469 254.554688 C 172.605469 254.554688 175.875 258.558594 194.390625 254.304688 C 194.390625 254.304688 201.367188 251.847656 206.980469 256.058594 L 198.191406 282.058594 C 198.191406 282.058594 189.210938 278.828125 184.433594 269.367188 C 184.433594 269.367188 180.171875 261.160156 170.441406 259.855469 Z M 172.605469 254.554688 "
       id="path33" />
    <path
       style=" stroke:none;fill-rule:nonzero;fill:rgb(45.098877%,65.098572%,58.799744%);fill-opacity:1;"
       d="M 179.230469 336.332031 L 297.46875 367.390625 L 296.585938 396.101562 L 170.441406 362.335938 "
       id="path35" />
    <path
       style=" stroke:none;fill-rule:nonzero;fill:rgb(45.098877%,65.098572%,58.799744%);fill-opacity:1;"
       d="M 404.261719 442.855469 L 385.597656 437.308594 C 385.597656 437.308594 386.097656 447.332031 349.273438 437.257812 C 349.273438 437.257812 286.917969 415.507812 273.960938 409.535156 C 273.960938 409.535156 262.191406 400.421875 260.429688 386.164062 C 258.667969 371.910156 256.28125 382.664062 256.28125 382.664062 C 256.28125 382.664062 253.820312 387.078125 253.941406 380.863281 C 254.058594 374.644531 253.941406 380.863281 253.941406 380.863281 L 243.789062 379.664062 C 243.789062 379.664062 248.535156 410.335938 254.828125 417.246094 C 254.828125 417.246094 309.710938 449.390625 359.554688 454.5 C 359.554688 454.5 396.625 465.378906 404.261719 442.855469 "
       id="path37" />
    <path
       style=" stroke:none;fill-rule:nonzero;fill:rgb(45.098877%,65.098572%,58.799744%);fill-opacity:1;"
       d="M 404.261719 442.855469 C 404.261719 442.855469 408.351562 423.027344 381.957031 411.15625 L 293.753906 381.328125 C 293.753906 381.328125 294.417969 388.082031 289.636719 393.328125 C 284.855469 398.570312 289.636719 393.328125 289.636719 393.328125 L 352.019531 415.996094 C 352.019531 415.996094 382.554688 422.324219 385.597656 437.308594 "
       id="path39" />
    <path
       style=" stroke:none;fill-rule:nonzero;fill:rgb(20.799255%,35.299683%,30.999756%);fill-opacity:1;"
       d="M 548.527344 265.972656 C 582.59375 292.035156 599.925781 310.117188 633.992188 336.179688 C 642.988281 343.0625 652.160156 350.128906 658.382812 359.597656 C 663.644531 367.605469 666.53125 376.976562 668.089844 386.429688 C 673.753906 420.785156 660.144531 459.238281 630.402344 477.34375 C 622.273438 482.289062 610.519531 485.117188 604.160156 478.039062 C 600.761719 474.25 600.125 468.78125 599.902344 463.695312 C 598.792969 438.070312 604.132812 412.636719 605.667969 387.035156 C 607.199219 361.433594 604.367188 334.125 589.09375 313.519531 C 575.105469 294.652344 555.539062 282.15625 545.617188 260.867188 "
       id="path41" />
    <path
       style=" stroke:none;fill-rule:nonzero;fill:rgb(20.799255%,35.299683%,30.999756%);fill-opacity:1;"
       d="M 195.359375 353.101562 C 195.359375 353.101562 191.933594 357.152344 193.835938 361.695312 L 298.925781 396.003906 C 298.925781 396.003906 306.8125 389.230469 300.0625 386.972656 Z M 195.359375 353.101562 "
       id="path43" />
    <path
       style=" stroke:none;fill-rule:nonzero;fill:rgb(64.698792%,84.298706%,74.899292%);fill-opacity:1;"
       d="M 195.359375 353.101562 C 195.359375 353.101562 194.855469 347.386719 199.722656 347.316406 L 303.9375 381.632812 C 303.9375 381.632812 305.988281 389.394531 299.261719 387.222656 Z M 195.359375 353.101562 "
       id="path45" />
    <path
       style=" stroke:none;fill-rule:nonzero;fill:rgb(20.799255%,35.299683%,30.999756%);fill-opacity:1;"
       d="M 209.054688 311.492188 C 209.054688 311.492188 207.484375 314.417969 207.445312 319.976562 L 312.535156 354.28125 C 312.535156 354.28125 320.421875 347.511719 313.671875 345.253906 Z M 209.054688 311.492188 "
       id="path47" />
    <path
       style=" stroke:none;fill-rule:nonzero;fill:rgb(64.698792%,84.298706%,74.899292%);fill-opacity:1;"
       d="M 209.054688 311.492188 C 209.054688 311.492188 210.753906 306.117188 213.332031 305.597656 L 317.546875 339.914062 C 317.546875 339.914062 319.597656 347.675781 312.871094 345.503906 Z M 209.054688 311.492188 "
       id="path49" />
    <path
       style=" stroke:none;fill-rule:nonzero;fill:rgb(64.698792%,84.298706%,74.899292%);fill-opacity:1;"
       d="M 222.601562 273.152344 C 222.601562 273.152344 222.710938 269.070312 225.617188 266.523438 L 322.355469 298.652344 C 322.355469 298.652344 324.40625 306.410156 317.679688 304.238281 Z M 222.601562 273.152344 "
       id="path51" />
    <path
       style=" stroke:none;fill-rule:nonzero;fill:rgb(20.799255%,35.299683%,30.999756%);fill-opacity:1;"
       d="M 250.730469 211.667969 C 265.085938 192.617188 287.367188 180.675781 310.515625 174.917969 C 333.664062 169.160156 357.828125 169.078125 381.660156 170.070312 C 396.359375 170.683594 411.132812 171.707031 425.4375 175.148438 C 440.339844 178.734375 454.476562 184.878906 468.730469 190.527344 C 537.015625 217.578125 609.09375 233.53125 680.8125 249.378906 C 614.933594 249.84375 552.59375 222.085938 488.464844 207.007812 C 467.066406 201.976562 445.367188 198.34375 423.6875 194.714844 C 396.007812 190.082031 368.042969 185.433594 340.027344 187.105469 C 306.390625 189.105469 273.355469 200.417969 245.554688 219.457031 "
       id="path53" />
    <path
       style=" stroke:none;fill-rule:nonzero;fill:rgb(64.698792%,84.298706%,74.899292%);fill-opacity:1;"
       d="M 243.292969 219.289062 C 258.007812 195.5625 282.996094 175.984375 310.859375 166.347656 C 338.722656 156.714844 369.082031 157.152344 392.945312 167.535156 C 368 161.527344 339.984375 161.441406 313.160156 169.492188 C 286.339844 177.542969 260.921875 194.101562 245.296875 216.03125 "
       id="path55" />
    <path
       style=" stroke:none;fill-rule:nonzero;fill:rgb(64.698792%,84.298706%,74.899292%);fill-opacity:1;"
       d="M 511.152344 428.066406 C 538.554688 392.160156 544.847656 350.835938 528.175781 316.332031 C 511.5 281.828125 472.085938 254.617188 421.601562 242.753906 C 464.957031 259.753906 500.710938 285.167969 519.140625 317.21875 C 537.570312 349.269531 537.691406 388.121094 514.9375 423.152344 "
       id="path57" />
    <path
       style=" stroke:none;fill-rule:nonzero;fill:rgb(20.799255%,35.299683%,30.999756%);fill-opacity:1;"
       d="M 222.601562 273.152344 C 222.601562 273.152344 221.605469 275.894531 221.335938 281.625 L 317.34375 313.019531 C 317.34375 313.019531 325.230469 306.25 318.480469 303.988281 Z M 222.601562 273.152344 "
       id="path59" />
    <path
       style=" stroke:none;fill-rule:nonzero;fill:rgb(64.698792%,84.298706%,74.899292%);fill-opacity:1;"
       d="M 336.886719 291.398438 C 345.964844 297.941406 348.289062 310.234375 342.074219 318.859375 C 335.863281 327.484375 323.464844 329.171875 314.382812 322.632812 C 305.304688 316.089844 302.984375 303.796875 309.199219 295.171875 C 315.410156 286.546875 327.808594 284.859375 336.886719 291.398438 "
       id="path61" />
    <path
       style=" stroke:none;fill-rule:nonzero;fill:rgb(64.698792%,84.298706%,74.899292%);fill-opacity:1;"
       d="M 301.585938 370.460938 C 310.664062 377.003906 312.984375 389.296875 306.773438 397.921875 C 300.558594 406.546875 288.160156 408.238281 279.082031 401.695312 C 270.003906 395.15625 267.679688 382.859375 273.894531 374.234375 C 280.109375 365.609375 292.503906 363.921875 301.585938 370.460938 "
       id="path63" />
    <path
       style=" stroke:none;fill-rule:nonzero;fill:rgb(64.698792%,84.298706%,74.899292%);fill-opacity:1;"
       d="M 319.441406 333.234375 C 328.519531 339.777344 330.84375 352.070312 324.628906 360.695312 C 318.414062 369.320312 306.015625 371.011719 296.9375 364.46875 C 287.859375 357.929688 285.535156 345.632812 291.75 337.007812 C 297.964844 328.382812 310.363281 326.695312 319.441406 333.234375 "
       id="path65" />
    <path
       style=" stroke:none;fill-rule:nonzero;fill:rgb(20.799255%,35.299683%,30.999756%);fill-opacity:1;"
       d="M 311.609375 344.101562 C 314.371094 346.09375 315.078125 349.832031 313.1875 352.453125 C 311.300781 355.078125 307.527344 355.589844 304.765625 353.601562 C 302.007812 351.613281 301.300781 347.875 303.191406 345.25 C 305.078125 342.628906 308.851562 342.113281 311.609375 344.101562 "
       id="path67" />
    <path
       style="fill:none;stroke-width:1;stroke-linecap:butt;stroke-linejoin:miter;stroke:rgb(32.199097%,65.098572%,54.899597%);stroke-opacity:1;stroke-miterlimit:10;"
       d="M -0.001625 0.0015375 C 2.760094 -1.99065 3.467125 -5.728931 1.5765 -8.350025 C -0.310219 -10.975025 -4.083656 -11.486744 -6.845375 -9.498463 C -9.603187 -7.510181 -10.310219 -3.7719 -8.419594 -1.1469 C -6.532875 1.474194 -2.759437 1.989819 -0.001625 0.0015375 Z M -0.001625 0.0015375 "
       transform="matrix(1,0,0,-1,311.611,344.1031)"
       id="path69" />
    <path
       style=" stroke:none;fill-rule:nonzero;fill:rgb(20.799255%,35.299683%,30.999756%);fill-opacity:1;"
       d="M 293.753906 381.328125 C 296.515625 383.320312 297.222656 387.058594 295.332031 389.679688 C 293.441406 392.304688 289.671875 392.816406 286.910156 390.828125 C 284.148438 388.839844 283.445312 385.101562 285.332031 382.476562 C 287.222656 379.855469 290.992188 379.339844 293.753906 381.328125 "
       id="path71" />
    <path
       style="fill:none;stroke-width:1;stroke-linecap:butt;stroke-linejoin:miter;stroke:rgb(32.199097%,65.098572%,54.899597%);stroke-opacity:1;stroke-miterlimit:10;"
       d="M -0.00059375 0.001675 C 2.761125 -1.990513 3.468156 -5.728794 1.577531 -8.349888 C -0.313094 -10.974888 -4.082625 -11.486606 -6.844344 -9.498325 C -9.606063 -7.510044 -10.309188 -3.771763 -8.422469 -1.146763 C -6.531844 1.474331 -2.762313 1.989956 -0.00059375 0.001675 Z M -0.00059375 0.001675 "
       transform="matrix(1,0,0,-1,293.7545,381.3298)"
       id="path73" />
    <path
       style=" stroke:none;fill-rule:nonzero;fill:rgb(20.799255%,35.299683%,30.999756%);fill-opacity:1;"
       d="M 329.058594 302.265625 C 331.820312 304.253906 332.523438 307.996094 330.636719 310.617188 C 328.746094 313.242188 324.976562 313.753906 322.214844 311.765625 C 319.453125 309.777344 318.746094 306.039062 320.636719 303.414062 C 322.527344 300.792969 326.296875 300.277344 329.058594 302.265625 "
       id="path75" />
    <path
       style="fill:none;stroke-width:1;stroke-linecap:butt;stroke-linejoin:miter;stroke:rgb(32.199097%,65.098572%,54.899597%);stroke-opacity:1;stroke-miterlimit:10;"
       d="M 0.00069375 0.000675 C 2.762412 -1.987606 3.465537 -5.729794 1.578819 -8.350887 C -0.311806 -10.975887 -4.081338 -11.487606 -6.843056 -9.499325 C -9.604775 -7.511044 -10.311806 -3.772762 -8.421181 -1.147762 C -6.530556 1.473331 -2.761025 1.988956 0.00069375 0.000675 Z M 0.00069375 0.000675 "
       transform="matrix(1,0,0,-1,329.0579,302.2663)"
       id="path77" />
  </g>
</svg>
