<?xml version="1.0" encoding="UTF-8" standalone="no"?>
<svg
   xmlns:dc="http://purl.org/dc/elements/1.1/"
   xmlns:cc="http://creativecommons.org/ns#"
   xmlns:rdf="http://www.w3.org/1999/02/22-rdf-syntax-ns#"
   xmlns:svg="http://www.w3.org/2000/svg"
   xmlns="http://www.w3.org/2000/svg"
   xmlns:sodipodi="http://sodipodi.sourceforge.net/DTD/sodipodi-0.dtd"
   xmlns:inkscape="http://www.inkscape.org/namespaces/inkscape"
   width="1280pt"
   height="1280pt"
   viewBox="0 0 1280 1280"
   version="1.1"
   id="svg2"
   inkscape:version="0.91 r13725"
   sodipodi:docname="boogie.svg">
  <metadata
     id="metadata79">
    <rdf:RDF>
      <cc:Work
         rdf:about="">
        <dc:format>image/svg+xml</dc:format>
        <dc:type
           rdf:resource="http://purl.org/dc/dcmitype/StillImage" />
        <dc:title></dc:title>
      </cc:Work>
    </rdf:RDF>
  </metadata>
  <defs
     id="defs77" />
  <sodipodi:namedview
     pagecolor="#ffffff"
     bordercolor="#666666"
     borderopacity="1"
     objecttolerance="10"
     gridtolerance="10"
     guidetolerance="10"
     inkscape:pageopacity="0"
     inkscape:pageshadow="2"
     inkscape:window-width="664"
     inkscape:window-height="480"
     id="namedview75"
     showgrid="false"
     inkscape:zoom="0.1475"
     inkscape:cx="800"
     inkscape:cy="800"
     inkscape:window-x="0"
     inkscape:window-y="23"
     inkscape:window-maximized="0"
     inkscape:current-layer="svg2" />
  <g
     id="surface799">
    <path
       style=" stroke:none;fill-rule:nonzero;fill:rgb(15.361023%,9.33075%,9.864807%);fill-opacity:1;"
       d="M 628.847656 105.105469 C 628.847656 105.105469 641.304688 99.488281 636.4375 110.300781 L 624.515625 125.082031 L 629.703125 131.367188 C 629.703125 131.367188 630.96875 137.402344 622.6875 138.898438 L 617.472656 135.539062 L 608.703125 148.117188 C 608.703125 148.117188 606.75 151.238281 609.097656 151.972656 C 609.097656 151.972656 613.914062 151.480469 614.011719 152.441406 C 614.011719 152.441406 621.695312 154.578125 613.707031 158.964844 C 613.707031 158.964844 609.984375 160.640625 603.332031 159.050781 C 603.332031 159.050781 597.832031 156.046875 597.199219 146.699219 C 597.199219 146.699219 599.367188 139.339844 603.023438 137.019531 L 608.210938 130.644531 L 602.195312 125.746094 C 602.195312 125.746094 600.09375 121.09375 601.125 121.636719 C 601.125 121.636719 603.910156 117.132812 605.226562 117.324219 C 605.226562 117.324219 611.558594 118.945312 612.75 121.097656 Z M 628.847656 105.105469 "
       id="path5" />
    <path
       style=" stroke:none;fill-rule:nonzero;fill:rgb(15.361023%,9.33075%,9.864807%);fill-opacity:1;"
       d="M 669.722656 116.332031 C 669.722656 116.332031 664.558594 115.699219 662.070312 120.757812 L 633.421875 161.03125 C 633.421875 161.03125 630.117188 164.179688 632.238281 168.136719 C 632.238281 168.136719 634.820312 170.859375 638.417969 169.265625 L 654.824219 152.863281 C 654.824219 152.863281 660.882812 148.507812 658.648438 154.894531 C 658.648438 154.894531 650.5625 170.414062 652.8125 175.039062 C 652.8125 175.039062 654.484375 183.898438 656.921875 183.4375 C 656.921875 183.4375 665.371094 186.890625 667.648438 180.726562 C 667.648438 180.726562 669.863281 177.980469 668.277344 176.019531 C 668.277344 176.019531 665.148438 174.179688 663.40625 176.941406 C 663.40625 176.941406 661.269531 179.429688 660.238281 175.800781 C 660.238281 175.800781 665.738281 157.03125 668.671875 155.085938 C 668.671875 155.085938 674.675781 148.214844 671.671875 144.261719 C 671.671875 144.261719 669.042969 139.542969 665.046875 140.472656 C 665.046875 140.472656 659.222656 140.003906 658.960938 142.3125 C 658.960938 142.3125 672.761719 124.238281 672.496094 120.984375 C 672.496094 120.984375 673.023438 117.136719 669.722656 116.332031 "
       id="path7" />
    <path
       style=" stroke:none;fill-rule:nonzero;fill:rgb(15.361023%,9.33075%,9.864807%);fill-opacity:1;"
       d="M 687.855469 175.464844 C 693.65625 178.027344 699.871094 180.355469 706.117188 177.828125 C 710.574219 176.027344 715.035156 171.402344 715.683594 166.507812 C 716.429688 160.828125 711.363281 156.902344 706.492188 155.28125 C 700.324219 153.222656 694.1875 154.769531 689.0625 158.574219 C 680.109375 165.234375 675.878906 180.082031 684.617188 188.875 C 690.5625 194.859375 702.082031 194.496094 708.429688 189.410156 C 712.191406 186.394531 708.03125 180.996094 704.050781 181.886719 C 702.828125 182.160156 701.378906 183.058594 700.28125 183.609375 C 695.101562 186.195312 699.652344 193.960938 704.824219 191.378906 C 704.863281 191.359375 707.859375 190.25 706.445312 190.566406 C 704.984375 188.058594 703.523438 185.550781 702.066406 183.042969 C 703.0625 182.246094 700.59375 183.824219 700.097656 183.980469 C 698.625 184.445312 695.992188 184.136719 694.277344 183.78125 C 688.195312 182.515625 687.808594 174.738281 690.5 170.078125 C 692.921875 165.886719 699.722656 160.882812 704.652344 164.195312 C 707.453125 166.078125 704.980469 168.769531 702.386719 169.671875 C 699.167969 170.792969 695.28125 168.96875 692.398438 167.695312 C 687.148438 165.375 682.5625 173.128906 687.855469 175.464844 "
       id="path9" />
    <path
       style=" stroke:none;fill-rule:nonzero;fill:rgb(15.361023%,9.33075%,9.864807%);fill-opacity:1;"
       d="M 766.160156 192.191406 C 766.160156 192.191406 776.511719 187.300781 771.882812 196.632812 C 771.882812 196.632812 785.363281 198.023438 779.132812 208.984375 C 779.132812 208.984375 794.164062 206.683594 792.445312 215.507812 C 792.445312 215.507812 788.171875 225.601562 779.195312 234.835938 C 779.195312 234.835938 777.609375 236.183594 778.5 236.652344 C 778.5 236.652344 787.769531 237.433594 780.640625 243.136719 C 780.640625 243.136719 776.167969 244.714844 771.425781 243.6875 C 771.425781 243.6875 767.292969 244.136719 767.347656 237.785156 C 767.347656 237.785156 767.453125 234.210938 774.78125 227.886719 C 774.78125 227.886719 780.550781 221.183594 779.03125 219.519531 C 779.03125 219.519531 777.023438 216.148438 771.238281 220.957031 C 771.238281 220.957031 762.261719 229.46875 758.84375 228.550781 C 758.84375 228.550781 752.972656 228.238281 755 223.640625 L 766.867188 212 C 766.867188 212 771.191406 206.863281 764.742188 208.132812 L 750.074219 215.988281 C 750.074219 215.988281 745.378906 219.917969 741.765625 217.449219 C 741.765625 217.449219 738.824219 216.34375 742.375 210.511719 Z M 766.160156 192.191406 "
       id="path11" />
    <path
       style=" stroke:none;fill-rule:nonzero;fill:rgb(15.361023%,9.33075%,9.864807%);fill-opacity:1;"
       d="M 797.527344 253.085938 C 798.855469 258.269531 800.847656 263.5 805.917969 266.039062 C 810.277344 268.222656 816.992188 267.851562 820.898438 264.824219 C 824.738281 261.847656 825.164062 256.636719 823.734375 252.261719 C 822.070312 247.171875 818.011719 243.855469 812.871094 242.652344 C 802.207031 240.148438 790.160156 245.957031 786.292969 256.457031 C 783.300781 264.574219 789.933594 274.113281 798.226562 275.410156 C 801.148438 275.867188 805.238281 273.417969 803.765625 269.875 C 802.671875 267.246094 800.691406 266.671875 798.175781 265.878906 C 792.640625 264.136719 790.269531 272.824219 795.785156 274.558594 C 796.597656 274.816406 797.417969 275.054688 798.210938 275.367188 C 797.164062 274.320312 796.113281 273.273438 795.066406 272.222656 C 795.074219 272.238281 795.078125 272.253906 795.085938 272.265625 C 796.929688 270.421875 798.777344 268.578125 800.621094 266.730469 C 797.785156 266.289062 796.480469 265.457031 795.171875 262.671875 C 792.851562 257.734375 799.636719 252.65625 803.894531 251.515625 C 807.105469 250.652344 817.054688 250.9375 815.472656 256.859375 C 815.023438 258.539062 811.933594 258.839844 810.234375 258.15625 C 807.484375 257.042969 806.851562 253.207031 806.207031 250.691406 C 804.773438 245.085938 796.089844 247.460938 797.527344 253.085938 "
       id="path13" />
    <path
       style=" stroke:none;fill-rule:nonzero;fill:rgb(15.361023%,9.33075%,9.864807%);fill-opacity:1;"
       d="M 839.570312 280.378906 C 839.570312 280.378906 844.988281 277.121094 847.53125 279.582031 C 847.53125 279.582031 852.953125 282.324219 849.441406 284.398438 L 820.902344 299.585938 C 820.902344 299.585938 817.398438 301.070312 818.613281 302.300781 C 818.613281 302.300781 820.230469 303.824219 822.015625 302.875 C 822.015625 302.875 824.546875 302.925781 823.9375 303.867188 C 823.9375 303.867188 825.835938 306.273438 820.230469 307.0625 C 820.230469 307.0625 813.25 308.855469 811.839844 305.625 C 811.839844 305.625 807.269531 301.46875 812.011719 296.5625 Z M 839.570312 280.378906 "
       id="path15" />
    <path
       style=" stroke:none;fill-rule:nonzero;fill:rgb(15.361023%,9.33075%,9.864807%);fill-opacity:1;"
       d="M 851.042969 313.648438 C 851.042969 313.648438 856.828125 311.082031 859.113281 313.890625 C 859.113281 313.890625 864.253906 317.363281 860.507812 318.988281 L 830.242188 330.523438 C 830.242188 330.523438 826.570312 331.558594 827.652344 332.957031 C 827.652344 332.957031 829.113281 334.699219 831.003906 333.980469 C 831.003906 333.980469 833.535156 334.359375 832.824219 335.230469 C 832.824219 335.230469 834.46875 337.898438 828.757812 337.957031 C 828.757812 337.957031 821.566406 338.847656 820.5 335.410156 C 820.5 335.410156 816.363281 330.625 821.652344 326.316406 Z M 851.042969 313.648438 "
       id="path17" />
    <path
       style=" stroke:none;fill-rule:nonzero;fill:rgb(15.361023%,9.33075%,9.864807%);fill-opacity:1;"
       d="M 870.859375 363.511719 C 868.242188 353.816406 858.175781 350.429688 849.046875 351.828125 C 840.632812 353.117188 828.632812 356.304688 829.246094 366.929688 C 829.753906 375.730469 838.253906 381.59375 846.515625 381.984375 C 856.554688 382.457031 864.558594 375.351562 869.839844 367.546875 C 873.097656 362.734375 865.300781 358.226562 862.070312 363.003906 C 859.324219 367.058594 855.652344 371.035156 850.8125 372.480469 C 846.671875 373.71875 840.941406 372.667969 838.835938 368.464844 C 836.136719 363.0625 845.113281 361.800781 848.714844 361.03125 C 853.605469 359.992188 860.582031 359.980469 862.179688 365.90625 C 863.6875 371.492188 872.371094 369.121094 870.859375 363.511719 "
       id="path19" />
    <path
       style=" stroke:none;fill-rule:nonzero;fill:rgb(15.361023%,9.33075%,9.864807%);fill-opacity:1;"
       d="M 883.835938 404.527344 C 883.835938 404.527344 889.664062 405.648438 889.984375 408.222656 C 889.984375 408.222656 891.832031 412.796875 883.980469 411.890625 L 868.960938 410.917969 C 868.960938 410.917969 870.121094 416.996094 867.820312 416.347656 C 867.820312 416.347656 865.246094 416.667969 863.828125 416.132812 C 862.40625 415.605469 859.4375 410.84375 859.4375 410.84375 C 859.4375 410.84375 854.96875 408.144531 847.753906 410.550781 C 847.753906 410.550781 844.714844 411.128906 846.429688 412.921875 C 846.429688 412.921875 851.140625 415.691406 848.296875 417.894531 C 848.296875 417.894531 847.296875 419.574219 843.386719 417.6875 C 843.386719 417.6875 837.296875 415.179688 839.175781 408.523438 C 839.175781 408.523438 838.605469 403.132812 856.265625 402.625 C 856.265625 402.625 855.222656 395.664062 860.324219 396.582031 C 860.324219 396.582031 864.746094 395.738281 865.527344 401.320312 L 865.945312 402.550781 Z M 883.835938 404.527344 "
       id="path21" />
    <path
       style=" stroke:none;fill-rule:nonzero;fill:rgb(15.361023%,9.33075%,9.864807%);fill-opacity:1;"
       d="M 873.324219 450.761719 C 873.859375 440.851562 865.289062 434.457031 856.3125 432.960938 C 848.214844 431.613281 835.839844 430.625 832.878906 440.507812 C 830.472656 448.542969 835.730469 456.679688 842.898438 460.082031 C 852.242188 464.515625 862.601562 460.902344 870.378906 455.003906 C 874.933594 451.546875 870.457031 443.730469 865.835938 447.234375 C 861.691406 450.378906 856.75 453.367188 851.328125 453.105469 C 847.21875 452.910156 842.324219 450.28125 841.433594 445.910156 C 840.183594 439.753906 848.8125 441.15625 852.660156 441.527344 C 857.984375 442.046875 864.671875 444.304688 864.324219 450.761719 C 864.011719 456.550781 873.011719 456.53125 873.324219 450.761719 "
       id="path23" />
    <path
       style=" stroke:none;fill-rule:nonzero;fill:rgb(15.361023%,9.33075%,9.864807%);fill-opacity:1;"
       d="M 855.113281 493.03125 C 855.113281 493.03125 857.398438 493.757812 860.105469 490.355469 C 860.105469 490.355469 860.570312 485.90625 856.171875 484.984375 L 832.878906 480.417969 C 832.878906 480.417969 824.746094 478.882812 828.988281 486.007812 C 828.988281 486.007812 828.921875 490.644531 848.785156 498.4375 C 848.785156 498.4375 854.621094 501.796875 848.171875 502.175781 L 833.773438 500.621094 C 833.773438 500.621094 828.296875 498.554688 827.199219 503.675781 C 827.199219 503.675781 825.589844 513.703125 832.683594 515.398438 C 832.683594 515.398438 838.503906 520.519531 838.453125 514.0625 L 835.585938 509.507812 C 835.585938 509.507812 836.210938 508.515625 837.851562 508.792969 C 837.851562 508.792969 852.777344 510.59375 853.933594 509.84375 C 853.933594 509.84375 860.59375 510.046875 860.515625 502.613281 C 860.515625 502.613281 859.25 497.035156 854.234375 495.023438 L 851.898438 493.128906 Z M 855.113281 493.03125 "
       id="path25" />
    <path
       style=" stroke:none;fill-rule:nonzero;fill:rgb(15.361023%,9.33075%,9.864807%);fill-opacity:1;"
       d="M 823.425781 529.722656 C 819.035156 532.300781 814.570312 535.5 813.316406 540.75 C 812.222656 545.316406 814.09375 551.285156 817.425781 554.597656 C 821.328125 558.472656 827.089844 557.539062 831.316406 554.769531 C 836.292969 551.507812 838.121094 546 837.496094 540.253906 C 836.355469 529.714844 827.210938 520.171875 816.300781 519.847656 C 807.984375 519.605469 801.082031 528.605469 802.089844 536.574219 C 802.59375 540.59375 806.566406 542.320312 809.769531 539.757812 C 811.390625 538.457031 811.183594 535.820312 811.230469 533.988281 C 811.367188 528.195312 802.367188 528.199219 802.230469 533.988281 C 802.207031 534.84375 802.203125 535.695312 802.125 536.546875 C 802.5625 535.484375 803.003906 534.425781 803.441406 533.363281 C 803.429688 533.371094 803.417969 533.382812 803.40625 533.394531 L 811.089844 536.574219 C 810.761719 533.976562 811.03125 533.007812 812.714844 531.039062 C 816.175781 527 821.613281 529.796875 824.792969 533.113281 C 827.730469 536.179688 831.769531 545.824219 825.464844 547.792969 C 823.792969 548.316406 823.957031 548.207031 822.996094 546.945312 C 822.421875 546.195312 821.910156 544.382812 821.992188 543.4375 C 822.25 540.480469 825.742188 538.800781 827.96875 537.492188 C 832.960938 534.5625 828.4375 526.777344 823.425781 529.722656 "
       id="path27" />
    <path
       style=" stroke:none;fill-rule:nonzero;fill:rgb(15.361023%,9.33075%,9.864807%);fill-opacity:1;"
       d="M 800.035156 591.195312 C 800.035156 591.195312 793.585938 593.371094 803.78125 598.882812 C 803.78125 598.882812 813.144531 599.003906 813.101562 584.785156 C 813.101562 584.785156 810.371094 575.355469 794.03125 571.171875 C 794.03125 571.171875 773.828125 568.664062 786.246094 558.472656 C 786.246094 558.472656 789.761719 550.339844 782.214844 555.289062 C 782.214844 555.289062 771.507812 561.011719 773.828125 568.664062 C 773.828125 568.664062 780.753906 579.230469 792.285156 577.066406 C 792.285156 577.066406 804.109375 579.132812 805.523438 584.25 C 805.523438 584.25 807.488281 592.351562 800.035156 591.195312 "
       id="path29" />
    <path
       style="fill:none;stroke-width:25;stroke-linecap:butt;stroke-linejoin:miter;stroke:rgb(15.361023%,9.33075%,9.864807%);stroke-opacity:1;stroke-miterlimit:10;"
       d="M -0.00003125 -0.0012 C -0.00003125 -0.0012 -287.687531 9.522238 -285.535188 -264.587137 C -285.535188 -264.587137 -298.933625 -473.020731 -89.203156 -537.766825 C -89.203156 -537.766825 74.781219 -578.286356 182.609344 -465.106669 "
       transform="matrix(1,0,0,-1,587.168,132.9363)"
       id="path31" />
    <path
       style="fill:none;stroke-width:7;stroke-linecap:butt;stroke-linejoin:miter;stroke:rgb(15.361023%,9.33075%,9.864807%);stroke-opacity:1;stroke-miterlimit:10;"
       d="M 0.001125 -0.0014875 C 0.001125 -0.0014875 -308.834812 19.932106 -328.342625 -272.524925 C -328.342625 -272.524925 -352.42075 -534.911644 -109.713719 -598.880394 C -109.713719 -598.880394 81.208156 -645.716331 190.938625 -518.985862 "
       transform="matrix(1,0,0,-1,596.327,102.3032)"
       id="path33" />
    <path
       style="fill:none;stroke-width:16;stroke-linecap:butt;stroke-linejoin:miter;stroke:rgb(13.729858%,12.159729%,12.548828%);stroke-opacity:1;stroke-miterlimit:10;"
       d="M 0.00063125 0.0015125 C 0.00063125 -14.119581 -11.292337 -25.5688 -25.222025 -25.5688 C -39.151712 -25.5688 -50.440775 -14.119581 -50.440775 0.0015125 C -50.440775 14.1187 -39.151712 25.567919 -25.222025 25.567919 C -11.292337 25.567919 0.00063125 14.1187 0.00063125 0.0015125 Z M 0.00063125 0.0015125 "
       transform="matrix(1,0,0,-1,432.3939,354.4312)"
       id="path35" />
    <path
       style=" stroke:none;fill-rule:nonzero;fill:rgb(13.729858%,12.159729%,12.548828%);fill-opacity:1;"
       d="M 382.40625 360.488281 C 378.621094 360.488281 375.527344 357.390625 375.527344 353.605469 L 375.527344 276.375 C 375.527344 272.589844 378.621094 269.496094 382.40625 269.496094 C 386.191406 269.496094 389.289062 272.589844 389.289062 276.375 L 389.289062 353.605469 C 389.289062 357.390625 386.191406 360.488281 382.40625 360.488281 "
       id="path37" />
    <path
       style="fill:none;stroke-width:16;stroke-linecap:butt;stroke-linejoin:miter;stroke:rgb(13.729858%,12.159729%,12.548828%);stroke-opacity:1;stroke-miterlimit:10;"
       d="M 0.000025 0.00023125 C 0.000025 -14.120863 -11.292944 -25.566175 -25.222631 -25.566175 C -39.148412 -25.566175 -50.441381 -14.120863 -50.441381 0.00023125 C -50.441381 14.121325 -39.148412 25.566637 -25.222631 25.566637 C -11.292944 25.566637 0.000025 14.121325 0.000025 0.00023125 Z M 0.000025 0.00023125 "
       transform="matrix(1,0,0,-1,508.2031,353.3557)"
       id="path39" />
    <path
       style="fill:none;stroke-width:16;stroke-linecap:butt;stroke-linejoin:miter;stroke:rgb(13.729858%,12.159729%,12.548828%);stroke-opacity:1;stroke-miterlimit:10;"
       d="M 0.00010625 -0.00175625 C 0.00010625 -14.118944 -11.292863 -25.568162 -25.22255 -25.568162 C -39.148331 -25.568162 -50.4413 -14.118944 -50.4413 -0.00175625 C -50.4413 14.119338 -39.148331 25.568556 -25.22255 25.568556 C -11.292863 25.568556 0.00010625 14.119338 0.00010625 -0.00175625 Z M 0.00010625 -0.00175625 "
       transform="matrix(1,0,0,-1,583.8788,354.4084)"
       id="path41" />
    <path
       style="fill:none;stroke-width:16;stroke-linecap:butt;stroke-linejoin:miter;stroke:rgb(13.729858%,12.159729%,12.548828%);stroke-opacity:1;stroke-miterlimit:10;"
       d="M -0.00083125 -0.00040625 C -0.00083125 -14.1215 -11.2938 -25.566812 -25.219581 -25.566812 C -39.149269 -25.566812 -50.442238 -14.1215 -50.442238 -0.00040625 C -50.442238 14.120688 -39.149269 25.566 -25.219581 25.566 C -11.2938 25.566 -0.00083125 14.120688 -0.00083125 -0.00040625 Z M -0.00083125 -0.00040625 "
       transform="matrix(1,0,0,-1,661.7313,354.066)"
       id="path43" />
    <path
       style=" stroke:none;fill-rule:nonzero;fill:rgb(13.729858%,12.159729%,12.548828%);fill-opacity:1;"
       d="M 661.9375 443.257812 C 657.679688 443.257812 654.199219 439.777344 654.199219 435.523438 L 654.199219 326.257812 C 654.199219 322 657.679688 318.519531 661.9375 318.519531 C 666.191406 318.519531 669.671875 322 669.671875 326.257812 L 669.671875 435.523438 C 669.671875 439.777344 666.191406 443.257812 661.9375 443.257812 "
       id="path45" />
    <path
       style=" stroke:none;fill-rule:nonzero;fill:rgb(13.729858%,12.159729%,12.548828%);fill-opacity:1;"
       d="M 695.460938 385.808594 C 691.121094 385.808594 687.566406 382.253906 687.566406 377.910156 L 687.566406 328.871094 C 687.566406 324.527344 691.121094 320.976562 695.460938 320.976562 C 699.804688 320.976562 703.359375 324.527344 703.359375 328.871094 L 703.359375 377.910156 C 703.359375 382.253906 699.804688 385.808594 695.460938 385.808594 "
       id="path47" />
    <path
       style="fill:none;stroke-width:16;stroke-linecap:butt;stroke-linejoin:miter;stroke:rgb(13.729858%,12.159729%,12.548828%);stroke-opacity:1;stroke-miterlimit:10;"
       d="M 0.00123125 -0.0008375 C 0.00123125 -12.469587 -10.48705 -11.340681 -24.3933 -11.340681 C -38.322987 -11.340681 -53.022206 -11.879744 -50.440175 -0.0008375 C -47.783925 12.245256 -39.151112 22.577288 -25.221425 22.577288 C -11.291737 22.577288 0.00123125 12.471819 0.00123125 -0.0008375 Z M 0.00123125 -0.0008375 "
       transform="matrix(1,0,0,-1,775.9558,349.7726)"
       id="path49" />
    <path
       style=" stroke:none;fill-rule:nonzero;fill:rgb(13.729858%,12.159729%,12.548828%);fill-opacity:1;"
       d="M 770.328125 379.144531 C 758.863281 381.621094 744.46875 382.550781 736.976562 373.222656 C 735.039062 370.8125 733.882812 367.613281 732.972656 363.507812 C 732.5625 361.660156 732.816406 363.191406 732.714844 361.71875 C 732.648438 360.828125 732.589844 359.945312 732.574219 359.054688 C 732.558594 358.101562 732.59375 357.15625 732.632812 356.207031 C 732.652344 355.707031 732.714844 355.214844 732.753906 354.714844 C 732.847656 353.601562 732.464844 356.550781 732.746094 354.753906 C 733.371094 350.722656 731.71875 346.734375 727.507812 345.527344 C 723.957031 344.511719 718.902344 346.769531 718.28125 350.765625 C 716.476562 362.386719 718.546875 374.683594 726.371094 383.828125 C 738.207031 397.664062 758.042969 397.121094 774.316406 393.609375 C 783.746094 391.574219 779.757812 377.109375 770.328125 379.144531 "
       id="path51" />
    <path
       style="fill:none;stroke-width:16;stroke-linecap:butt;stroke-linejoin:miter;stroke:rgb(13.729858%,12.159729%,12.548828%);stroke-opacity:1;stroke-miterlimit:10;"
       d="M -0.000925 -0.0006875 C -0.000925 -14.121781 -11.293894 -25.567094 -25.219675 -25.567094 C -39.149362 -25.567094 -50.442331 -14.121781 -50.442331 -0.0006875 C -50.442331 14.120406 -39.149362 25.565719 -25.219675 25.565719 C -11.293894 25.565719 -0.000925 14.120406 -0.000925 -0.0006875 Z M -0.000925 -0.0006875 "
       transform="matrix(1,0,0,-1,511.3603,488.9915)"
       id="path53" />
    <path
       style="fill:none;stroke-width:16;stroke-linecap:butt;stroke-linejoin:miter;stroke:rgb(13.729858%,12.159729%,12.548828%);stroke-opacity:1;stroke-miterlimit:10;"
       d="M 0.0001 0.00164375 C 0.0001 -14.11945 -11.292869 -25.568669 -25.222556 -25.568669 C -39.148337 -25.568669 -50.441306 -14.11945 -50.441306 0.00164375 C -50.441306 14.118831 -39.148337 25.56805 -25.222556 25.56805 C -11.292869 25.56805 0.0001 14.118831 0.0001 0.00164375 Z M 0.0001 0.00164375 "
       transform="matrix(1,0,0,-1,584.4374,487.3493)"
       id="path55" />
    <path
       style="fill:none;stroke-width:16;stroke-linecap:butt;stroke-linejoin:miter;stroke:rgb(13.729858%,12.159729%,12.548828%);stroke-opacity:1;stroke-miterlimit:10;"
       d="M 0.00083125 0.0018 C 0.00083125 -14.119294 -11.292138 -25.568512 -25.221825 -25.568512 C -39.151513 -25.568512 -50.440575 -14.119294 -50.440575 0.0018 C -50.440575 14.118988 -39.151513 25.568206 -25.221825 25.568206 C -11.292138 25.568206 0.00083125 14.118988 0.00083125 0.0018 Z M 0.00083125 0.0018 "
       transform="matrix(1,0,0,-1,662.5187,486.1893)"
       id="path57" />
    <path
       style=" stroke:none;fill-rule:nonzero;fill:rgb(13.729858%,12.159729%,12.548828%);fill-opacity:1;"
       d="M 663.273438 579.175781 C 659.015625 579.175781 655.535156 575.695312 655.535156 571.441406 L 655.535156 462.171875 C 655.535156 457.917969 659.015625 454.4375 663.273438 454.4375 C 667.527344 454.4375 671.007812 457.917969 671.007812 462.171875 L 671.007812 571.441406 C 671.007812 575.695312 667.527344 579.175781 663.273438 579.175781 "
       id="path59" />
    <path
       style=" stroke:none;fill-rule:nonzero;fill:rgb(13.729858%,12.159729%,12.548828%);fill-opacity:1;"
       d="M 698.570312 519.765625 C 694.226562 519.765625 690.671875 516.210938 690.671875 511.867188 L 690.671875 462.828125 C 690.671875 458.488281 694.226562 454.933594 698.570312 454.933594 C 702.914062 454.933594 706.464844 458.488281 706.464844 462.828125 L 706.464844 511.867188 C 706.464844 516.210938 702.914062 519.765625 698.570312 519.765625 "
       id="path61" />
    <path
       style="fill:none;stroke-width:16;stroke-linecap:butt;stroke-linejoin:miter;stroke:rgb(13.729858%,12.159729%,12.548828%);stroke-opacity:1;stroke-miterlimit:10;"
       d="M 0.0014375 0.00081875 C 0.0014375 -12.471837 -10.486844 -11.342931 -24.393094 -11.342931 C -38.322781 -11.342931 -53.022 -11.881994 -50.443875 0.00081875 C -47.783719 12.246913 -39.150906 22.578944 -25.221219 22.578944 C -11.291531 22.578944 0.0014375 12.469569 0.0014375 0.00081875 Z M 0.0014375 0.00081875 "
       transform="matrix(1,0,0,-1,776.3345,480.1141)"
       id="path63" />
    <path
       style=" stroke:none;fill-rule:nonzero;fill:rgb(13.729858%,12.159729%,12.548828%);fill-opacity:1;"
       d="M 770.707031 509.488281 C 759.242188 511.960938 744.847656 512.894531 737.355469 503.5625 C 735.417969 501.152344 734.261719 497.957031 733.351562 493.851562 C 732.941406 492.003906 733.195312 493.53125 733.09375 492.058594 C 733.027344 491.171875 732.96875 490.285156 732.953125 489.394531 C 732.9375 488.445312 732.972656 487.5 733.011719 486.546875 C 733.03125 486.050781 733.09375 485.554688 733.132812 485.058594 C 733.226562 483.945312 732.84375 486.894531 733.125 485.09375 C 733.75 481.066406 732.097656 477.074219 727.886719 475.867188 C 724.335938 474.855469 719.28125 477.109375 718.660156 481.105469 C 716.855469 492.726562 718.925781 505.023438 726.746094 514.171875 C 738.585938 528.003906 758.421875 527.464844 774.695312 523.949219 C 784.125 521.917969 780.136719 507.453125 770.707031 509.488281 "
       id="path65" />
    <path
       style=" stroke:none;fill-rule:nonzero;fill:rgb(13.729858%,12.159729%,12.548828%);fill-opacity:1;"
       d="M 375.785156 516.355469 C 371.136719 516.355469 367.335938 512.550781 367.335938 507.902344 L 367.335938 465.929688 C 367.335938 461.28125 371.136719 457.476562 375.785156 457.476562 C 380.4375 457.476562 384.238281 461.28125 384.238281 465.929688 L 384.238281 507.902344 C 384.238281 512.550781 380.4375 516.355469 375.785156 516.355469 "
       id="path67" />
    <path
       style=" stroke:none;fill-rule:nonzero;fill:rgb(13.729858%,12.159729%,12.548828%);fill-opacity:1;"
       d="M 403.578125 516.460938 C 398.929688 516.460938 395.125 512.65625 395.125 508.007812 L 395.125 466.035156 C 395.125 461.386719 398.929688 457.585938 403.578125 457.585938 C 408.226562 457.585938 412.03125 461.386719 412.03125 466.035156 L 412.03125 508.007812 C 412.03125 512.65625 408.226562 516.460938 403.578125 516.460938 "
       id="path69" />
    <path
       style=" stroke:none;fill-rule:nonzero;fill:rgb(13.729858%,12.159729%,12.548828%);fill-opacity:1;"
       d="M 433.195312 517.355469 C 428.542969 517.355469 424.742188 513.550781 424.742188 508.902344 L 424.742188 466.929688 C 424.742188 462.28125 428.542969 458.476562 433.195312 458.476562 C 437.84375 458.476562 441.648438 462.28125 441.648438 466.929688 L 441.648438 508.902344 C 441.648438 513.550781 437.84375 517.355469 433.195312 517.355469 "
       id="path71" />
    <path
       style=" stroke:none;fill-rule:nonzero;fill:rgb(13.729858%,12.159729%,12.548828%);fill-opacity:1;"
       d="M 403.863281 505.261719 C 403.863281 505.261719 421.078125 512.296875 441.648438 508.902344 C 441.648438 508.902344 438.640625 533.347656 403.675781 518.28125 C 403.675781 518.28125 365.546875 535.390625 367.410156 501.914062 C 367.410156 501.914062 383.753906 516.117188 403.863281 505.261719 C 423.96875 494.410156 403.863281 505.261719 403.863281 505.261719 "
       id="path73" />
  </g>
</svg>
