<?xml version="1.0" encoding="UTF-8" standalone="no"?>
<svg
   xmlns:dc="http://purl.org/dc/elements/1.1/"
   xmlns:cc="http://creativecommons.org/ns#"
   xmlns:rdf="http://www.w3.org/1999/02/22-rdf-syntax-ns#"
   xmlns:svg="http://www.w3.org/2000/svg"
   xmlns="http://www.w3.org/2000/svg"
   xmlns:sodipodi="http://sodipodi.sourceforge.net/DTD/sodipodi-0.dtd"
   xmlns:inkscape="http://www.inkscape.org/namespaces/inkscape"
   width="1280pt"
   height="1280pt"
   viewBox="0 0 1280 1280"
   version="1.1"
   id="svg2"
   inkscape:version="0.91 r13725"
   sodipodi:docname="fever.svg">
  <metadata
     id="metadata55">
    <rdf:RDF>
      <cc:Work
         rdf:about="">
        <dc:format>image/svg+xml</dc:format>
        <dc:type
           rdf:resource="http://purl.org/dc/dcmitype/StillImage" />
        <dc:title></dc:title>
      </cc:Work>
    </rdf:RDF>
  </metadata>
  <defs
     id="defs53" />
  <sodipodi:namedview
     pagecolor="#ffffff"
     bordercolor="#666666"
     borderopacity="1"
     objecttolerance="10"
     gridtolerance="10"
     guidetolerance="10"
     inkscape:pageopacity="0"
     inkscape:pageshadow="2"
     inkscape:window-width="664"
     inkscape:window-height="480"
     id="namedview51"
     showgrid="false"
     inkscape:zoom="0.1475"
     inkscape:cx="800"
     inkscape:cy="800"
     inkscape:window-x="0"
     inkscape:window-y="23"
     inkscape:window-maximized="0"
     inkscape:current-layer="svg2" />
  <g
     id="surface596">
    <path
       style=" stroke:none;fill-rule:nonzero;fill:rgb(15.361023%,9.33075%,9.864807%);fill-opacity:1;"
       d="M 551.511719 361.1875 C 551.492188 361.210938 549.734375 361.523438 549.914062 361.394531 C 549.71875 361.535156 550.09375 360.832031 550.0625 362.023438 C 549.996094 364.417969 550.03125 366.703125 549.765625 369.109375 C 549.109375 375.039062 548.566406 380.972656 548.277344 386.933594 C 547.855469 395.667969 544.40625 415.492188 558.390625 414.648438 C 568.722656 414.023438 577.375 405.660156 584.144531 398.671875 C 588.464844 394.214844 592.59375 389.585938 596.636719 384.875 C 597.953125 383.34375 599.308594 381.242188 601.070312 380.21875 C 601.609375 379.90625 602.097656 379.640625 602.667969 379.453125 C 603.476562 379.183594 601.917969 378.578125 602.023438 379.175781 C 603.699219 388.664062 618.15625 384.644531 616.488281 375.1875 C 615.382812 368.9375 609.378906 364.8125 603.265625 364.511719 C 596.535156 364.183594 591.210938 368.328125 586.992188 373.140625 C 582.160156 378.652344 577.390625 384.179688 572.238281 389.398438 C 570.140625 391.527344 568.003906 393.722656 565.632812 395.546875 C 564.335938 396.542969 559.351562 400.074219 558.109375 399.566406 C 559.601562 400.714844 561.097656 401.863281 562.589844 403.011719 C 562.433594 402.707031 562.273438 402.40625 562.117188 402.105469 C 562.457031 403.367188 562.800781 404.628906 563.140625 405.890625 C 562.457031 398.746094 563.003906 391.261719 563.429688 384.113281 C 563.84375 377.140625 565.40625 369.964844 565.175781 362.996094 C 564.96875 356.765625 562.355469 350.882812 556.613281 347.984375 C 551.503906 345.40625 544.679688 345.976562 540.902344 350.578125 C 538.316406 353.734375 537.875 358.089844 540.902344 361.1875 C 543.523438 363.863281 548.949219 364.308594 551.511719 361.1875 "
       id="path5" />
    <path
       style=" stroke:none;fill-rule:nonzero;fill:rgb(15.361023%,9.33075%,9.864807%);fill-opacity:1;"
       d="M 619.570312 415.328125 C 626.863281 419.402344 634.5625 422.640625 642.292969 425.789062 C 649.25 428.621094 656.875 429.96875 663.15625 424.867188 C 676.597656 413.957031 667.488281 395.601562 654.121094 389.9375 C 641.515625 384.597656 623.863281 384.046875 613.480469 394.261719 C 603.597656 403.984375 602.894531 420.449219 607.589844 432.78125 C 613.589844 448.535156 629.5 459.664062 646.597656 454.722656 C 655.855469 452.046875 651.917969 437.570312 642.613281 440.257812 C 622.28125 446.132812 609.523438 408.203125 629.078125 402.078125 C 635.367188 400.109375 654.332031 401.09375 654.808594 410.550781 C 655.089844 416.066406 647.867188 411.972656 645.425781 410.972656 C 639.179688 408.414062 633.039062 405.671875 627.140625 402.375 C 618.703125 397.664062 611.132812 410.613281 619.570312 415.328125 "
       id="path7" />
    <path
       style=" stroke:none;fill-rule:nonzero;fill:rgb(15.361023%,9.33075%,9.864807%);fill-opacity:1;"
       d="M 479.011719 368.523438 C 486.503906 372.214844 494.324219 375.144531 502.207031 377.894531 C 509.585938 380.464844 517.675781 381.558594 523.832031 375.652344 C 536.402344 363.585938 525.53125 346.171875 512.011719 341.335938 C 499.304688 336.796875 481.4375 337.425781 472 348.238281 C 462.597656 359.007812 463.144531 375.140625 468.664062 387.578125 C 475.253906 402.425781 491.898438 412.339844 508 406.773438 C 517.066406 403.636719 513.167969 389.144531 504.011719 392.308594 C 493.976562 395.777344 485.023438 389.007812 481.539062 379.691406 C 478.539062 371.65625 478.105469 359.109375 487.503906 355.171875 C 493.957031 352.46875 512.152344 352.605469 514.128906 361.53125 C 515.457031 367.546875 508.121094 364.105469 505.324219 363.125 C 498.953125 360.886719 492.644531 358.558594 486.582031 355.570312 C 477.953125 351.316406 470.34375 364.25 479.011719 368.523438 "
       id="path9" />
    <path
       style=" stroke:none;fill-rule:nonzero;fill:rgb(15.361023%,9.33075%,9.864807%);fill-opacity:1;"
       d="M 697.402344 405.839844 C 697.121094 407.152344 694.753906 406.390625 694.691406 406.496094 C 694.703125 406.480469 695.457031 407.890625 695.464844 408.121094 C 695.523438 410.378906 695.1875 412.367188 694.714844 414.5625 C 693.613281 419.652344 692.675781 424.753906 691.96875 429.914062 C 691.625 432.433594 690.984375 454.644531 687.167969 453.964844 L 687.167969 468.429688 C 696.429688 465.277344 702.355469 458.089844 705.878906 449.167969 C 709.613281 439.710938 708.867188 428.496094 713.898438 419.574219 C 715.28125 417.117188 717.871094 413.632812 721.140625 414.53125 C 723.582031 415.199219 724 421.230469 725.425781 423.722656 C 730.238281 432.125 742.339844 433.804688 748.808594 426.226562 C 755.042969 418.921875 744.480469 408.261719 738.203125 415.621094 C 738.097656 415.742188 737.042969 417.011719 737.664062 416.222656 C 738.242188 415.492188 738.179688 417.5 738.496094 416.363281 C 738.769531 415.386719 737.125 411.992188 736.746094 410.96875 C 735.210938 406.828125 732.605469 403.480469 728.660156 401.414062 C 720.511719 397.148438 710.53125 400.152344 704.679688 406.792969 C 698.136719 414.210938 696.378906 423.921875 694.574219 433.320312 C 693.183594 440.539062 691.246094 451.222656 683.179688 453.964844 C 676.792969 456.136719 675.332031 467.027344 683.179688 468.429688 C 693.414062 470.253906 701.796875 463.648438 704.296875 453.78125 C 705.492188 449.058594 705.472656 444.078125 705.894531 439.25 C 706.375 433.78125 707.167969 428.359375 708.238281 422.976562 C 710.074219 413.75 712.929688 403.441406 705.296875 395.890625 C 698.234375 388.902344 685.109375 391.726562 682.9375 401.851562 C 680.921875 411.265625 695.378906 415.289062 697.402344 405.839844 "
       id="path11" />
    <path
       style=" stroke:none;fill-rule:nonzero;fill:rgb(15.361023%,9.33075%,9.864807%);fill-opacity:1;"
       d="M 787.214844 368.074219 C 779.003906 379.742188 774.566406 393.457031 769.917969 406.808594 C 764.753906 421.640625 759.671875 436.503906 755.15625 451.550781 C 752.375 460.8125 766.847656 464.773438 769.621094 455.535156 C 773.953125 441.105469 778.804688 426.84375 783.75 412.613281 C 788.199219 399.8125 792.289062 386.835938 800.167969 375.644531 C 805.734375 367.734375 792.734375 360.234375 787.214844 368.074219 "
       id="path13" />
    <path
       style=" stroke:none;fill-rule:nonzero;fill:rgb(15.361023%,9.33075%,9.864807%);fill-opacity:1;"
       d="M 738.15625 498.378906 C 747.808594 498.378906 747.824219 483.378906 738.15625 483.378906 C 728.503906 483.378906 728.488281 498.378906 738.15625 498.378906 "
       id="path15" />
    <path
       style=" stroke:none;fill-rule:nonzero;fill:rgb(15.361023%,9.33075%,9.864807%);fill-opacity:1;"
       d="M 272 340.382812 C 272 340.382812 265.707031 328.253906 276.773438 332.523438 L 292.183594 343.617188 L 298.171875 338.097656 C 298.171875 338.097656 304.128906 336.5 306.078125 344.691406 L 303.007812 350.078125 L 316.046875 358.148438 C 316.046875 358.148438 319.269531 359.925781 319.875 357.542969 C 319.875 357.542969 319.117188 352.761719 320.074219 352.609375 C 320.074219 352.609375 321.785156 344.824219 326.601562 352.558594 C 326.601562 352.558594 328.484375 356.183594 327.257812 362.914062 C 327.257812 362.914062 324.558594 368.570312 315.261719 369.710938 C 315.261719 369.710938 307.792969 367.949219 305.273438 364.425781 L 298.628906 359.59375 L 294.066406 365.871094 C 294.066406 365.871094 289.535156 368.21875 290.019531 367.164062 C 290.019531 367.164062 285.371094 364.628906 285.488281 363.304688 C 285.488281 363.304688 286.761719 356.890625 288.84375 355.582031 Z M 272 340.382812 "
       id="path17" />
    <path
       style=" stroke:none;fill-rule:nonzero;fill:rgb(15.361023%,9.33075%,9.864807%);fill-opacity:1;"
       d="M 278.679688 304.613281 C 278.679688 304.613281 278.386719 309.808594 283.59375 311.964844 L 325.644531 337.929688 C 325.644531 337.929688 329 341.027344 332.8125 338.648438 C 332.8125 338.648438 335.363281 335.898438 333.535156 332.410156 L 316.105469 317.105469 C 316.105469 317.105469 311.363281 311.34375 317.882812 313.160156 C 317.882812 313.160156 333.894531 320.214844 338.359375 317.671875 C 338.359375 317.671875 347.09375 315.425781 346.476562 313.027344 C 346.476562 313.027344 349.371094 304.367188 343.070312 302.496094 C 343.070312 302.496094 340.191406 300.464844 338.335938 302.175781 C 338.335938 302.175781 336.699219 305.417969 339.570312 306.972656 C 339.570312 306.972656 342.191406 308.945312 338.636719 310.210938 C 338.636719 310.210938 319.550781 305.945312 317.417969 303.140625 C 317.417969 303.140625 310.171875 297.597656 306.425781 300.851562 C 306.425781 300.851562 301.886719 303.785156 303.070312 307.710938 C 303.070312 307.710938 302.984375 313.554688 305.308594 313.664062 C 305.308594 313.664062 286.371094 301.070312 283.144531 301.546875 C 283.144531 301.546875 279.269531 301.269531 278.679688 304.613281 "
       id="path19" />
    <path
       style="fill:none;stroke-width:25;stroke-linecap:butt;stroke-linejoin:miter;stroke:rgb(15.361023%,9.33075%,9.864807%);stroke-opacity:1;stroke-miterlimit:10;"
       d="M -0.00165 0.00183125 C 96.693663 -57.521606 132.2171 -180.322388 73.283506 -313.396606 "
       transform="matrix(1,0,0,-1,761.0329,199.5448)"
       id="path21" />
    <path
       style=" stroke:none;fill-rule:nonzero;fill:rgb(15.361023%,9.33075%,9.864807%);fill-opacity:1;"
       d="M 331.226562 279.101562 C 335.21875 273.976562 339.160156 268.296875 337.917969 261.4375 C 337.074219 256.757812 333.574219 251.207031 328.832031 249.695312 C 323.289062 247.921875 318.285156 252.4375 315.683594 256.933594 C 312.75 262 312.875 267.839844 314.925781 273.195312 C 318.957031 283.726562 331.753906 291.382812 342.738281 285.902344 C 350.539062 282.011719 353.277344 270.101562 349.820312 262.550781 C 347.859375 258.273438 341.539062 260.691406 341.433594 264.824219 C 341.398438 266.117188 341.894531 267.703125 342.167969 268.941406 C 343.414062 274.59375 352.09375 272.203125 350.84375 266.550781 C 350.835938 266.503906 350.472656 263.253906 350.433594 264.824219 C 347.636719 265.582031 344.84375 266.335938 342.046875 267.09375 C 341.503906 265.90625 342.449219 268.675781 342.484375 269.214844 C 342.585938 270.804688 341.722656 273.125 340.921875 274.8125 C 338.121094 280.714844 330.039062 278.816406 326.222656 274.75 C 322.847656 271.152344 320.953125 265.253906 323.839844 260.875 C 325.980469 257.628906 328.265625 259.574219 328.984375 262.671875 C 329.84375 266.375 326.984375 270.015625 324.863281 272.738281 C 321.347656 277.253906 327.671875 283.667969 331.226562 279.101562 "
       id="path23" />
    <path
       style=" stroke:none;fill-rule:nonzero;fill:rgb(15.361023%,9.33075%,9.864807%);fill-opacity:1;"
       d="M 346.46875 207.261719 C 346.46875 207.261719 342.324219 196.589844 351.304688 201.863281 C 351.304688 201.863281 353.648438 188.515625 364.136719 195.511719 C 364.136719 195.511719 362.910156 180.355469 371.585938 182.695312 C 371.585938 182.695312 381.355469 187.671875 389.933594 197.277344 C 389.933594 197.277344 391.164062 198.953125 391.691406 198.101562 C 391.691406 198.101562 393.128906 188.910156 398.3125 196.425781 C 398.3125 196.425781 399.570312 200.996094 398.207031 205.65625 C 398.207031 205.65625 398.367188 209.8125 392.03125 209.308594 C 392.03125 209.308594 388.476562 208.949219 382.6875 201.1875 C 382.6875 201.1875 376.40625 194.960938 374.640625 196.359375 C 374.640625 196.359375 371.132812 198.121094 375.523438 204.234375 C 375.523438 204.234375 383.375 213.789062 382.21875 217.132812 C 382.21875 217.132812 381.492188 222.96875 377.046875 220.621094 L 366.277344 207.957031 C 366.277344 207.957031 361.457031 203.28125 362.269531 209.804688 L 369.066406 224.992188 C 369.066406 224.992188 372.652344 229.953125 369.933594 233.382812 C 369.933594 233.382812 368.625 236.238281 363.058594 232.28125 Z M 346.46875 207.261719 "
       id="path25" />
    <path
       style=" stroke:none;fill-rule:nonzero;fill:rgb(15.361023%,9.33075%,9.864807%);fill-opacity:1;"
       d="M 405.332031 184.375 C 410.253906 182.050781 414.953125 178.984375 416.308594 173.367188 C 417.390625 168.875 415.8125 162.789062 412.429688 159.582031 C 408.703125 156.042969 403.179688 156.6875 399.007812 159.097656 C 394.085938 161.941406 391.835938 167.054688 391.859375 172.613281 C 391.902344 183.300781 400.328125 193.648438 411.132812 195.019531 C 419.703125 196.105469 427.152344 187.417969 426.859375 179.25 C 426.746094 176.027344 423.058594 173.394531 420.089844 175.363281 C 417.757812 176.90625 417.773438 179.292969 417.488281 181.8125 C 416.832031 187.554688 425.835938 187.507812 426.488281 181.8125 C 426.203125 181.140625 426.261719 180.691406 426.660156 180.46875 C 425.972656 181.367188 425.28125 182.261719 424.59375 183.160156 C 424.605469 183.152344 424.617188 183.144531 424.628906 183.132812 C 422.375 181.839844 420.117188 180.542969 417.859375 179.25 C 417.953125 181.808594 417.359375 183.132812 415.109375 184.808594 C 410.953125 187.898438 405.25 183.433594 402.960938 179.738281 C 401.652344 177.628906 400.878906 175.101562 400.859375 172.613281 C 400.84375 170.394531 402.066406 166.128906 405.066406 166.210938 C 407.996094 166.292969 407.949219 170.746094 406.859375 172.578125 C 405.644531 174.613281 402.839844 175.636719 400.792969 176.605469 C 395.558594 179.078125 400.121094 186.835938 405.332031 184.375 "
       id="path27" />
    <path
       style=" stroke:none;fill-rule:nonzero;fill:rgb(15.361023%,9.33075%,9.864807%);fill-opacity:1;"
       d="M 425.792969 145.667969 C 425.792969 145.667969 422.519531 140.257812 424.972656 137.707031 C 424.972656 137.707031 427.703125 132.277344 429.785156 135.785156 L 445.046875 164.285156 C 445.046875 164.285156 446.542969 167.78125 447.769531 166.566406 C 447.769531 166.566406 449.289062 164.941406 448.335938 163.160156 C 448.335938 163.160156 448.375 160.632812 449.324219 161.234375 C 449.324219 161.234375 451.722656 159.332031 452.527344 164.9375 C 452.527344 164.9375 454.339844 171.910156 451.113281 173.332031 C 451.113281 173.332031 446.964844 177.914062 442.046875 173.183594 Z M 425.792969 145.667969 "
       id="path29" />
    <path
       style=" stroke:none;fill-rule:nonzero;fill:rgb(15.361023%,9.33075%,9.864807%);fill-opacity:1;"
       d="M 463.003906 129.96875 C 463.003906 129.96875 461.320312 123.863281 464.4375 122.019531 C 464.4375 122.019531 468.628906 117.449219 469.683594 121.394531 L 476.617188 153.035156 C 476.617188 153.035156 477.097656 156.816406 478.640625 155.953125 C 478.640625 155.953125 480.582031 154.765625 480.148438 152.789062 C 480.148438 152.789062 480.898438 150.339844 481.65625 151.171875 C 481.65625 151.171875 484.539062 149.941406 483.75 155.597656 C 483.75 155.597656 483.566406 162.84375 480.011719 163.390625 C 480.011719 163.390625 474.667969 166.773438 471.183594 160.90625 Z M 463.003906 129.96875 "
       id="path31" />
    <path
       style=" stroke:none;fill-rule:nonzero;fill:rgb(15.361023%,9.33075%,9.864807%);fill-opacity:1;"
       d="M 509.613281 117.199219 C 500.269531 118.472656 495.691406 128 495.757812 136.589844 C 495.820312 145.328125 497.644531 158.640625 508.820312 158.828125 C 517.394531 158.96875 524.011719 151.589844 525.359375 143.542969 C 526.972656 133.894531 521.449219 125.140625 514.480469 118.988281 C 510.152344 115.167969 503.765625 121.511719 508.117188 125.351562 C 513.929688 130.484375 522.417969 143.941406 511.664062 149.1875 C 505.359375 152.261719 504.960938 141.496094 504.800781 137.511719 C 504.585938 132.273438 506.125 126.679688 512.007812 125.875 C 517.71875 125.101562 515.289062 116.425781 509.613281 117.199219 "
       id="path33" />
    <path
       style=" stroke:none;fill-rule:nonzero;fill:rgb(15.361023%,9.33075%,9.864807%);fill-opacity:1;"
       d="M 547.816406 104.539062 C 547.816406 104.539062 548.285156 98.621094 550.804688 98.019531 C 550.804688 98.019531 555.144531 95.675781 555.117188 103.574219 L 555.824219 118.613281 C 555.824219 118.613281 561.738281 116.78125 561.351562 119.140625 C 561.351562 119.140625 561.953125 121.664062 561.582031 123.132812 C 561.214844 124.601562 556.8125 128.085938 556.8125 128.085938 C 556.8125 128.085938 554.628906 132.824219 557.828125 139.726562 C 557.828125 139.726562 558.742188 142.683594 560.332031 140.777344 C 560.332031 140.777344 562.558594 135.789062 565.0625 138.371094 C 565.0625 138.371094 566.84375 139.175781 565.402344 143.273438 C 565.402344 143.273438 563.59375 149.605469 556.765625 148.476562 C 556.765625 148.476562 551.472656 149.644531 549.003906 132.152344 C 549.003906 132.152344 542.199219 133.960938 542.542969 128.789062 C 542.542969 128.789062 541.210938 124.492188 546.671875 123.097656 L 547.851562 122.539062 Z M 547.816406 104.539062 "
       id="path35" />
    <path
       style=" stroke:none;fill-rule:nonzero;fill:rgb(15.361023%,9.33075%,9.864807%);fill-opacity:1;"
       d="M 599.398438 115.050781 C 589.636719 115.109375 583.679688 123.503906 582.570312 132.503906 C 581.515625 141.042969 581.445312 153.988281 592.003906 156.148438 C 600.636719 157.914062 608.488281 151.246094 610.996094 143.347656 C 614.039062 133.742188 609.195312 124.167969 602.980469 117.058594 C 599.164062 112.6875 592.820312 119.078125 596.617188 123.421875 C 599.824219 127.089844 602.726562 131.644531 602.914062 136.667969 C 603.074219 140.992188 600.605469 146.285156 596.007812 147.273438 C 590.023438 148.566406 591.085938 138.699219 591.34375 134.957031 C 591.675781 130.210938 593.695312 124.085938 599.398438 124.050781 C 605.183594 124.015625 605.199219 115.015625 599.398438 115.050781 "
       id="path37" />
    <path
       style=" stroke:none;fill-rule:nonzero;fill:rgb(15.361023%,9.33075%,9.864807%);fill-opacity:1;"
       d="M 647.933594 136.617188 C 647.933594 136.617188 649.539062 134.835938 647.554688 130.964844 C 647.554688 130.964844 643.691406 128.707031 641.039062 132.332031 L 627.269531 151.667969 C 627.269531 151.667969 622.515625 158.445312 630.757812 157.515625 C 630.757812 157.515625 634.953125 159.488281 650.246094 144.613281 C 650.246094 144.613281 655.714844 140.683594 653.398438 146.714844 L 646.042969 159.191406 C 646.042969 159.191406 641.902344 163.324219 646.117188 166.433594 C 646.117188 166.433594 654.585938 172.039062 659.054688 166.277344 C 659.054688 166.277344 666.121094 163.085938 660.21875 160.46875 L 654.886719 161.203125 C 654.886719 161.203125 654.238281 160.222656 655.167969 158.84375 C 655.167969 158.84375 662.96875 145.988281 662.761719 144.628906 C 662.761719 144.628906 665.695312 138.644531 658.886719 135.648438 C 658.886719 135.648438 653.285156 134.5 649.382812 138.238281 L 646.695312 139.585938 Z M 647.933594 136.617188 "
       id="path39" />
    <path
       style=" stroke:none;fill-rule:nonzero;fill:rgb(15.361023%,9.33075%,9.864807%);fill-opacity:1;"
       d="M 690.757812 166.722656 C 695.109375 169.941406 700.203125 172.734375 705.769531 171.085938 C 710.179688 169.78125 714.734375 165.625 715.914062 161.097656 C 717.207031 156.140625 713.988281 151.589844 709.882812 149.097656 C 705.042969 146.164062 699.566406 146.613281 694.691406 149.234375 C 685.230469 154.3125 680.0625 166.835938 684.097656 177.015625 C 687.296875 185.09375 698.527344 187.222656 705.523438 183.136719 C 708.363281 181.480469 708.53125 176.980469 705.523438 175.367188 C 703.398438 174.222656 701.660156 174.984375 699.625 175.796875 C 694.304688 177.914062 696.625 186.621094 702.015625 184.476562 C 702.808594 184.160156 703.59375 183.828125 704.40625 183.570312 C 703.25 183.417969 702.09375 183.265625 700.941406 183.117188 C 700.953125 183.125 700.96875 183.128906 700.980469 183.136719 L 700.980469 175.367188 C 698.910156 176.574219 697.089844 176.636719 694.835938 175.453125 C 689.878906 172.851562 691.667969 165.050781 694.375 161.230469 C 695.613281 159.484375 697.339844 157.988281 699.234375 157.003906 C 701.097656 156.035156 705.464844 155.316406 706.632812 157.925781 C 707.835938 160.605469 703.667969 162.679688 701.507812 162.4375 C 699.238281 162.183594 697.070312 160.257812 695.300781 158.953125 C 690.640625 155.503906 686.148438 163.3125 690.757812 166.722656 "
       id="path41" />
    <path
       style=" stroke:none;fill-rule:nonzero;fill:rgb(15.361023%,9.33075%,9.864807%);fill-opacity:1;"
       d="M 750.835938 177.253906 C 750.835938 177.253906 755.039062 182.609375 756.839844 171.164062 C 756.839844 171.164062 753.839844 162.296875 740.445312 167.066406 C 740.445312 167.066406 732.460938 172.785156 733.957031 189.582031 C 733.957031 189.582031 738.320312 209.46875 724.574219 201.152344 C 724.574219 201.152344 715.734375 200.546875 722.914062 206.015625 C 722.914062 206.015625 731.875 214.203125 738.320312 209.46875 C 738.320312 209.46875 745.976562 199.417969 740.097656 189.265625 C 740.097656 189.265625 738.109375 177.429688 742.464844 174.394531 C 742.464844 174.394531 749.449219 169.84375 750.835938 177.253906 "
       id="path43" />
    <path
       style=" stroke:none;fill-rule:nonzero;fill:rgb(15.361023%,9.33075%,9.864807%);fill-opacity:1;"
       d="M 470.222656 277.78125 C 463.21875 258.03125 437.75 255.363281 423.5625 268.980469 C 405.726562 286.105469 410.902344 312.269531 415.660156 333.644531 C 419.128906 349.230469 422.597656 364.816406 426.066406 380.40625 C 430.675781 401.113281 439.839844 425.109375 429.152344 445.300781 C 424.164062 454.726562 415.59375 463.628906 405.363281 467.269531 C 396.011719 470.597656 390.265625 463.566406 385.175781 456.527344 C 382.785156 453.21875 378.679688 451.695312 374.914062 453.835938 C 371.652344 455.691406 369.859375 460.824219 372.222656 464.097656 C 377.578125 471.503906 383.648438 479.191406 392.667969 482.171875 C 401.792969 485.1875 411.449219 481.804688 419.292969 476.996094 C 437.34375 465.9375 449.269531 445.898438 449.195312 424.609375 C 449.148438 412.035156 445.691406 399.601562 442.976562 387.410156 C 441.105469 379 439.234375 370.589844 437.363281 362.179688 C 435.808594 355.191406 434.253906 348.207031 432.699219 341.21875 C 430.230469 330.121094 426.914062 318.84375 426.058594 307.484375 C 425.28125 297.125 426.886719 284.761719 435.90625 278.09375 C 441.621094 273.867188 452.964844 273.890625 455.757812 281.769531 C 458.964844 290.800781 473.460938 286.910156 470.222656 277.78125 "
       id="path45" />
    <path
       style=" stroke:none;fill-rule:nonzero;fill:rgb(15.361023%,9.33075%,9.864807%);fill-opacity:1;"
       d="M 369.953125 337.761719 C 403.570312 332.925781 437.414062 329.816406 471.339844 328.285156 C 480.957031 327.851562 481.007812 312.851562 471.339844 313.285156 C 436.0625 314.878906 400.917969 318.269531 365.964844 323.296875 C 361.964844 323.871094 359.734375 328.972656 360.726562 332.523438 C 361.933594 336.828125 365.910156 338.34375 369.953125 337.761719 "
       id="path47" />
    <path
       style="fill:none;stroke-width:25;stroke-linecap:butt;stroke-linejoin:miter;stroke:rgb(15.361023%,9.33075%,9.864807%);stroke-opacity:1;stroke-miterlimit:10;"
       d="M -0.0004 -0.0002625 C -59.574619 -132.785419 -211.047275 -179.250262 -365.473056 -124.859637 C -512.547275 -73.058856 -541.914462 5.5388 -533.465244 120.472394 "
       transform="matrix(1,0,0,-1,833.3129,512.2888)"
       id="path49" />
  </g>
</svg>
