<?xml version="1.0" encoding="UTF-8" standalone="no"?>
<svg
   xmlns:dc="http://purl.org/dc/elements/1.1/"
   xmlns:cc="http://creativecommons.org/ns#"
   xmlns:rdf="http://www.w3.org/1999/02/22-rdf-syntax-ns#"
   xmlns:svg="http://www.w3.org/2000/svg"
   xmlns="http://www.w3.org/2000/svg"
   xmlns:sodipodi="http://sodipodi.sourceforge.net/DTD/sodipodi-0.dtd"
   xmlns:inkscape="http://www.inkscape.org/namespaces/inkscape"
   width="906.328pt"
   height="833.914pt"
   viewBox="0 0 906.328 833.914"
   version="1.1"
   id="svg2"
   inkscape:version="0.91 r13725"
   sodipodi:docname="redphone.svg">
  <metadata
     id="metadata75">
    <rdf:RDF>
      <cc:Work
         rdf:about="">
        <dc:format>image/svg+xml</dc:format>
        <dc:type
           rdf:resource="http://purl.org/dc/dcmitype/StillImage" />
        <dc:title></dc:title>
      </cc:Work>
    </rdf:RDF>
  </metadata>
  <defs
     id="defs73" />
  <sodipodi:namedview
     pagecolor="#ffffff"
     bordercolor="#666666"
     borderopacity="1"
     objecttolerance="10"
     gridtolerance="10"
     guidetolerance="10"
     inkscape:pageopacity="0"
     inkscape:pageshadow="2"
     inkscape:window-width="664"
     inkscape:window-height="480"
     id="namedview71"
     showgrid="false"
     inkscape:zoom="0.22640224"
     inkscape:cx="566.455"
     inkscape:cy="521.19625"
     inkscape:window-x="0"
     inkscape:window-y="23"
     inkscape:window-maximized="0"
     inkscape:current-layer="svg2" />
  <g
     id="surface606">
    <path
       style=" stroke:none;fill-rule:nonzero;fill:rgb(63.499451%,16.099548%,10.598755%);fill-opacity:1;"
       d="M 146.699219 573.382812 L 136.003906 610.164062 C 136.003906 610.164062 140.046875 645.382812 139.769531 648.382812 C 139.769531 648.382812 136.894531 658.890625 133.964844 660.277344 C 133.964844 660.277344 101.226562 659.902344 87.488281 647.835938 C 87.488281 647.835938 84.386719 638.476562 92.308594 631.699219 L 114.699219 608.496094 L 128.339844 567.832031 C 128.339844 567.832031 145.847656 568.265625 146.699219 573.382812 "
       id="path5" />
    <path
       style=" stroke:none;fill-rule:nonzero;fill:rgb(93.699646%,32.199097%,24.699402%);fill-opacity:1;"
       d="M 697.074219 237.574219 C 697.074219 237.574219 649.734375 256.78125 481.65625 184.949219 C 481.65625 184.949219 404.847656 145.519531 338.683594 155.128906 C 338.683594 155.128906 254.777344 169.292969 216.992188 264.574219 L 243.949219 276.835938 C 243.949219 276.835938 284.550781 214.910156 342.480469 215.152344 C 342.480469 215.152344 394.160156 208.222656 442.992188 236.117188 C 442.992188 236.117188 512.863281 269.5625 523.570312 284.5625 C 523.570312 284.5625 591.011719 329.546875 586.515625 365.191406 L 588.207031 390.296875 C 579.113281 459.863281 582.597656 482.382812 582.597656 482.382812 C 582.597656 482.382812 586.804688 495.589844 593.929688 498.53125 C 605.046875 503.125 625.519531 493.113281 637.386719 483.109375 C 637.386719 483.109375 742.808594 395.402344 801.789062 229.796875 C 801.789062 229.796875 810.445312 203.671875 798.863281 194.867188 C 798.863281 194.867188 790.214844 180.757812 697.074219 237.574219 "
       id="path7" />
    <path
       style=" stroke:none;fill-rule:nonzero;fill:rgb(63.499451%,16.099548%,10.598755%);fill-opacity:1;"
       d="M 180.886719 249.484375 C 180.886719 249.484375 175.105469 243.894531 168.984375 245.921875 C 168.984375 245.921875 158.980469 259.957031 157.996094 268.859375 C 157.996094 268.859375 165.605469 273.488281 170.652344 272.53125 C 170.652344 272.53125 182.167969 252.277344 180.886719 249.484375 "
       id="path9" />
    <path
       style=" stroke:none;fill-rule:nonzero;fill:rgb(63.499451%,16.099548%,10.598755%);fill-opacity:1;"
       d="M 166.160156 287.21875 C 166.160156 287.21875 160.375 281.628906 154.257812 283.65625 C 154.257812 283.65625 144.253906 297.691406 143.269531 306.59375 C 143.269531 306.59375 150.878906 311.222656 155.921875 310.265625 C 155.921875 310.265625 167.441406 290.011719 166.160156 287.21875 "
       id="path11" />
    <path
       style=" stroke:none;fill-rule:nonzero;fill:rgb(63.499451%,16.099548%,10.598755%);fill-opacity:1;"
       d="M 151.03125 329.5 C 151.03125 329.5 145.25 323.910156 139.128906 325.9375 C 139.128906 325.9375 129.125 339.972656 128.140625 348.875 C 128.140625 348.875 135.75 353.503906 140.796875 352.546875 C 140.796875 352.546875 152.3125 332.292969 151.03125 329.5 "
       id="path13" />
    <path
       style=" stroke:none;fill-rule:nonzero;fill:rgb(93.699646%,32.199097%,24.699402%);fill-opacity:1;"
       d="M 195.351562 416.5 C 195.351562 416.5 215.796875 523.832031 305.847656 553.054688 C 395.898438 582.273438 454.40625 548.304688 487.226562 524.867188 C 487.226562 524.867188 620.457031 395.191406 513.363281 273.585938 C 513.363281 273.585938 432.03125 204.777344 342.992188 211.996094 C 342.992188 211.996094 258.832031 222.671875 243.949219 276.835938 L 281.355469 291.796875 C 281.355469 291.796875 292.980469 264.6875 346.359375 261.5625 C 346.359375 261.5625 420.175781 262.320312 464.804688 303.722656 C 464.804688 303.722656 516.394531 346.207031 500.773438 406.601562 C 500.773438 406.601562 486.511719 473.699219 423.296875 502.222656 C 423.296875 502.222656 382.109375 528.9375 331.972656 507.640625 C 331.972656 507.640625 277.882812 489.78125 264.15625 467.078125 C 209.0625 375.957031 281.355469 290.628906 281.355469 290.628906 L 216.992188 264.574219 L 131.863281 560.980469 C 128.964844 576.570312 143.578125 572.921875 143.578125 572.921875 C 151.199219 572.488281 164.929688 513.90625 164.929688 513.90625 L 195.351562 416.5 "
       id="path15" />
    <path
       style=" stroke:none;fill-rule:nonzero;fill:rgb(93.699646%,32.199097%,24.699402%);fill-opacity:1;"
       d="M 287.71875 519.488281 C 281.585938 508.371094 267.414062 506.90625 257.417969 500.917969 C 255.523438 499.785156 254.542969 498.484375 253.058594 496.882812 C 250.496094 494.121094 247.34375 491.875 244.265625 489.726562 C 237.867188 485.269531 231.753906 482.46875 223.90625 481.5625 C 207.199219 479.625 189.582031 484.039062 176.46875 494.796875 C 170.199219 499.945312 164.664062 506.28125 159.425781 512.457031 C 153.480469 519.457031 148.574219 526.824219 145.339844 535.453125 C 141.949219 544.503906 156.445312 548.414062 159.804688 539.441406 C 162.28125 532.839844 166.539062 527.074219 171.125 521.789062 C 175.722656 516.492188 180.492188 510.976562 185.851562 506.429688 C 196.1875 497.664062 211.75 494.203125 224.957031 496.769531 C 230.449219 497.835938 235.457031 501.40625 239.722656 504.917969 C 243.59375 508.101562 246.28125 511.902344 250.792969 514.414062 C 255.328125 516.933594 260.28125 518.605469 265.027344 520.65625 C 268.441406 522.125 273.027344 523.90625 274.765625 527.058594 C 279.425781 535.511719 292.386719 527.953125 287.71875 519.488281 "
       id="path17" />
    <path
       style=" stroke:none;fill-rule:nonzero;fill:rgb(93.699646%,32.199097%,24.699402%);fill-opacity:1;"
       d="M 320.691406 451.289062 C 312.742188 467.335938 304.792969 483.382812 296.84375 499.433594 C 292.570312 508.054688 305.503906 515.664062 309.792969 507.003906 C 317.742188 490.957031 325.695312 474.90625 333.644531 458.859375 C 337.914062 450.238281 324.980469 442.628906 320.691406 451.289062 "
       id="path19" />
    <path
       style=" stroke:none;fill-rule:nonzero;fill:rgb(93.699646%,32.199097%,24.699402%);fill-opacity:1;"
       d="M 417.015625 327.875 C 427.429688 308.757812 435.167969 288.296875 439.847656 267.035156 C 441.917969 257.628906 427.460938 253.609375 425.382812 263.046875 C 420.96875 283.097656 413.886719 302.273438 404.0625 320.304688 C 399.445312 328.785156 412.390625 336.363281 417.015625 327.875 "
       id="path21" />
    <path
       style=" stroke:none;fill-rule:nonzero;fill:rgb(93.699646%,32.199097%,24.699402%);fill-opacity:1;"
       d="M 201.921875 286.496094 L 449.671875 377.257812 C 449.671875 377.257812 452.578125 362.144531 426.5625 356.050781 L 361.542969 332.691406 L 318.890625 318.433594 C 318.890625 318.433594 304.921875 314.3125 307.117188 308.066406 C 307.117188 308.066406 310.671875 302.125 317.289062 305.449219 L 436.808594 348.007812 C 436.808594 348.007812 474.84375 363.042969 480.527344 368.75 C 480.527344 368.75 492.585938 372.207031 494.640625 371.527344 C 494.640625 371.527344 498.53125 362.566406 466.804688 347.8125 C 466.804688 347.8125 391.976562 316.746094 387.886719 318.101562 C 387.886719 318.101562 349.167969 303.691406 329.273438 297.847656 C 329.273438 297.847656 305.117188 290.453125 301.675781 292.582031 C 301.675781 292.582031 297.25 292.523438 295.785156 293.980469 L 210.992188 261.242188 "
       id="path23" />
    <path
       style=" stroke:none;fill-rule:nonzero;fill:rgb(93.699646%,32.199097%,24.699402%);fill-opacity:1;"
       d="M 277.679688 370.574219 C 277.679688 370.574219 290.753906 378.105469 296.347656 370.800781 C 296.347656 370.800781 301.941406 363.5 295.980469 360.984375 L 254.820312 347.050781 L 217.125 331.964844 L 188.566406 321.230469 L 197.460938 298.726562 L 293.917969 332.746094 C 293.917969 332.746094 297.859375 335.59375 305.550781 331.660156 C 305.550781 331.660156 315.765625 328.339844 324.832031 334.09375 L 459.382812 381.0625 C 459.382812 381.0625 477.410156 387.425781 478.734375 380.621094 C 478.734375 380.621094 483.355469 375.632812 480.527344 368.75 L 494.640625 371.527344 C 494.640625 371.527344 496.375 387.472656 492.527344 395.535156 C 492.527344 395.535156 483.789062 404.402344 459.351562 395.390625 C 434.910156 386.375 385.863281 372.75 385.863281 372.75 L 323.054688 351.191406 C 323.054688 351.191406 315.234375 351.699219 318.570312 359.949219 L 352.0625 370.882812 C 352.0625 370.882812 360.289062 379.320312 346.148438 384.910156 C 346.148438 384.910156 333.015625 385.335938 315.273438 378.238281 C 315.273438 378.238281 310.117188 375.421875 308.382812 382.03125 L 306.742188 387.097656 C 306.742188 387.097656 304.652344 391.714844 310.71875 392.722656 C 310.71875 392.722656 384.652344 415.234375 385.890625 418.976562 C 385.890625 418.976562 402.558594 426.425781 400.164062 447.972656 "
       id="path25" />
    <path
       style=" stroke:none;fill-rule:nonzero;fill:rgb(93.699646%,32.199097%,24.699402%);fill-opacity:1;"
       d="M 379.101562 367.703125 C 379.101562 367.703125 358.886719 401.09375 368.84375 406.09375 C 368.84375 406.09375 375.570312 413.140625 386.300781 393.964844 L 394.253906 372.292969 L 408.605469 377.304688 C 408.605469 377.304688 397.121094 406 384.0625 416.671875 C 384.0625 416.671875 375.980469 429.113281 357.378906 423.070312 C 357.378906 423.070312 345.078125 419.824219 351.125 399.757812 L 365.554688 362.277344 Z M 379.101562 367.703125 "
       id="path27" />
    <path
       style=" stroke:none;fill-rule:nonzero;fill:rgb(93.699646%,32.199097%,24.699402%);fill-opacity:1;"
       d="M 148.621094 337.566406 C 148.621094 337.566406 151.742188 341.546875 169.921875 337.730469 C 169.921875 337.730469 176.78125 335.457031 182.1875 339.675781 L 173.117188 364.929688 C 173.117188 364.929688 164.398438 361.601562 159.90625 352.269531 C 159.90625 352.269531 155.890625 344.167969 146.410156 342.710938 Z M 148.621094 337.566406 "
       id="path29" />
    <path
       style=" stroke:none;fill-rule:nonzero;fill:rgb(93.699646%,32.199097%,24.699402%);fill-opacity:1;"
       d="M 162.789062 297.386719 C 162.789062 297.386719 163.359375 299.539062 178.988281 299.410156 C 178.988281 299.410156 192.054688 294.503906 197.460938 298.726562 L 188.566406 321.230469 C 188.566406 321.230469 179.765625 318.625 175.410156 309.175781 C 175.410156 309.175781 171.109375 304.085938 160.195312 302.226562 Z M 162.789062 297.386719 "
       id="path31" />
    <path
       style=" stroke:none;fill-rule:nonzero;fill:rgb(93.699646%,32.199097%,24.699402%);fill-opacity:1;"
       d="M 177.234375 259.621094 C 177.234375 259.621094 180.355469 263.597656 198.535156 259.78125 C 198.535156 259.78125 205.398438 257.511719 210.800781 261.730469 L 201.730469 286.984375 C 201.730469 286.984375 193.011719 283.65625 188.519531 274.324219 C 188.519531 274.324219 184.503906 266.222656 175.023438 264.765625 Z M 177.234375 259.621094 "
       id="path33" />
    <path
       style=" stroke:none;fill-rule:nonzero;fill:rgb(93.699646%,32.199097%,24.699402%);fill-opacity:1;"
       d="M 182.191406 339.675781 L 297.183594 372.230469 L 295.789062 400.273438 L 173.117188 364.929688 "
       id="path35" />
    <path
       style=" stroke:none;fill-rule:nonzero;fill:rgb(93.699646%,32.199097%,24.699402%);fill-opacity:1;"
       d="M 400.164062 447.972656 L 382.023438 442.207031 C 382.023438 442.207031 382.324219 452.011719 346.519531 441.480469 C 346.519531 441.480469 285.976562 419.066406 273.421875 412.988281 C 273.421875 412.988281 262.089844 403.859375 260.632812 389.894531 C 259.175781 375.925781 256.640625 386.394531 256.640625 386.394531 C 256.640625 386.394531 254.152344 390.660156 254.386719 384.589844 C 254.617188 378.515625 254.386719 384.589844 254.386719 384.589844 L 244.488281 383.230469 C 244.488281 383.230469 248.554688 413.296875 254.578125 420.167969 C 254.578125 420.167969 307.628906 452.605469 356.25 458.523438 C 356.25 458.523438 392.28125 469.84375 400.164062 447.972656 "
       id="path37" />
    <path
       style=" stroke:none;fill-rule:nonzero;fill:rgb(93.699646%,32.199097%,24.699402%);fill-opacity:1;"
       d="M 400.164062 447.972656 C 400.164062 447.972656 404.527344 428.667969 378.949219 416.574219 L 293.292969 385.785156 C 293.292969 385.785156 293.816406 392.398438 289.046875 397.433594 C 284.273438 402.46875 289.046875 397.433594 289.046875 397.433594 L 349.601562 420.75 C 349.601562 420.75 379.324219 427.5 382.023438 442.207031 "
       id="path39" />
    <path
       style=" stroke:none;fill-rule:nonzero;fill:rgb(63.499451%,16.099548%,10.598755%);fill-opacity:1;"
       d="M 544.453125 277.765625 C 577.265625 303.867188 593.875 321.867188 626.6875 347.96875 C 635.351562 354.863281 644.1875 361.945312 650.089844 371.3125 C 655.085938 379.238281 657.730469 388.449219 659.082031 397.71875 C 663.980469 431.402344 649.964844 468.738281 620.554688 485.878906 C 612.519531 490.566406 600.980469 493.109375 594.894531 486.070312 C 591.640625 482.304688 591.121094 476.953125 591 471.976562 C 590.390625 446.910156 596.082031 422.148438 598.054688 397.152344 C 600.03125 372.15625 597.769531 345.414062 583.222656 324.992188 C 569.898438 306.289062 551.007812 293.710938 541.707031 272.71875 "
       id="path41" />
    <path
       style=" stroke:none;fill-rule:nonzero;fill:rgb(63.499451%,16.099548%,10.598755%);fill-opacity:1;"
       d="M 197.644531 356.367188 C 197.644531 356.367188 194.222656 360.261719 195.996094 364.742188 L 298.074219 400.222656 C 298.074219 400.222656 305.910156 393.75 299.355469 391.417969 Z M 197.644531 356.367188 "
       id="path43" />
    <path
       style=" stroke:none;fill-rule:nonzero;fill:rgb(92.89856%,85.099792%,68.199158%);fill-opacity:1;"
       d="M 197.644531 356.367188 C 197.644531 356.367188 197.257812 350.769531 202.015625 350.792969 L 303.242188 386.269531 C 303.242188 386.269531 305.101562 393.894531 298.566406 391.644531 Z M 197.644531 356.367188 "
       id="path45" />
    <path
       style=" stroke:none;fill-rule:nonzero;fill:rgb(63.499451%,16.099548%,10.598755%);fill-opacity:1;"
       d="M 211.804688 315.953125 C 211.804688 315.953125 210.214844 318.785156 210.074219 324.214844 L 312.152344 359.699219 C 312.152344 359.699219 319.988281 353.226562 313.429688 350.890625 Z M 211.804688 315.953125 "
       id="path47" />
    <path
       style=" stroke:none;fill-rule:nonzero;fill:rgb(92.89856%,85.099792%,68.199158%);fill-opacity:1;"
       d="M 211.804688 315.953125 C 211.804688 315.953125 213.5625 310.730469 216.089844 310.269531 L 317.316406 345.746094 C 317.316406 345.746094 319.179688 353.371094 312.644531 351.121094 Z M 211.804688 315.953125 "
       id="path49" />
    <path
       style=" stroke:none;fill-rule:nonzero;fill:rgb(92.89856%,85.099792%,68.199158%);fill-opacity:1;"
       d="M 225.753906 278.726562 C 225.753906 278.726562 225.9375 274.742188 228.824219 272.308594 L 322.785156 305.503906 C 322.785156 305.503906 324.644531 313.128906 318.109375 310.878906 Z M 225.753906 278.726562 "
       id="path51" />
    <path
       style=" stroke:none;fill-rule:nonzero;fill:rgb(63.499451%,16.099548%,10.598755%);fill-opacity:1;"
       d="M 254.390625 219.15625 C 268.777344 200.800781 290.777344 189.542969 313.507812 184.34375 C 336.242188 179.148438 359.859375 179.515625 383.136719 180.929688 C 397.492188 181.800781 411.910156 183.074219 425.832031 186.707031 C 440.332031 190.488281 454.035156 196.753906 467.859375 202.539062 C 534.101562 230.246094 604.253906 247.179688 674.058594 264 C 609.660156 263.230469 549.246094 234.945312 486.84375 219.011719 C 466.019531 213.699219 444.878906 209.746094 423.757812 205.796875 C 396.789062 200.757812 369.539062 195.695312 342.128906 196.804688 C 309.214844 198.136719 276.714844 208.582031 249.1875 226.671875 "
       id="path53" />
    <path
       style=" stroke:none;fill-rule:nonzero;fill:rgb(92.89856%,85.099792%,68.199158%);fill-opacity:1;"
       d="M 504.914062 435.503906 C 532.363281 400.914062 539.28125 360.640625 523.625 326.609375 C 507.96875 292.574219 469.949219 265.246094 420.824219 252.714844 C 462.886719 270.132812 497.359375 295.636719 514.78125 327.308594 C 532.199219 358.976562 531.59375 396.953125 508.703125 430.769531 "
       id="path55" />
    <path
       style=" stroke:none;fill-rule:nonzero;fill:rgb(63.499451%,16.099548%,10.598755%);fill-opacity:1;"
       d="M 225.753906 278.726562 C 225.753906 278.726562 224.730469 281.390625 224.359375 286.988281 L 317.617188 319.457031 C 317.617188 319.457031 325.453125 312.984375 318.898438 310.648438 Z M 225.753906 278.726562 "
       id="path57" />
    <path
       style=" stroke:none;fill-rule:nonzero;fill:rgb(92.89856%,85.099792%,68.199158%);fill-opacity:1;"
       d="M 337.121094 298.683594 C 345.875 305.246094 347.914062 317.308594 341.683594 325.621094 C 335.449219 333.9375 323.300781 335.359375 314.546875 328.796875 C 305.796875 322.234375 303.753906 310.175781 309.988281 301.859375 C 316.222656 293.542969 328.367188 292.125 337.121094 298.683594 "
       id="path59" />
    <path
       style=" stroke:none;fill-rule:nonzero;fill:rgb(92.89856%,85.099792%,68.199158%);fill-opacity:1;"
       d="M 301.148438 375.308594 C 309.902344 381.871094 311.941406 393.929688 305.707031 402.246094 C 299.476562 410.558594 287.324219 411.980469 278.574219 405.417969 C 269.820312 398.855469 267.777344 386.796875 274.011719 378.480469 C 280.246094 370.167969 292.394531 368.746094 301.148438 375.308594 "
       id="path61" />
    <path
       style=" stroke:none;fill-rule:nonzero;fill:rgb(92.89856%,85.099792%,68.199158%);fill-opacity:1;"
       d="M 319.292969 339.253906 C 328.046875 345.816406 330.085938 357.875 323.851562 366.191406 C 317.621094 374.503906 305.46875 375.925781 296.71875 369.363281 C 287.964844 362.800781 285.921875 350.742188 292.15625 342.425781 C 298.390625 334.113281 310.539062 332.691406 319.292969 339.253906 "
       id="path63" />
    <path
       style=" stroke:none;fill-rule:nonzero;fill:rgb(63.499451%,16.099548%,10.598755%);fill-opacity:1;"
       d="M 311.4375 349.730469 C 314.101562 351.726562 314.722656 355.394531 312.824219 357.921875 C 310.929688 360.453125 307.234375 360.882812 304.574219 358.886719 C 301.910156 356.894531 301.289062 353.222656 303.1875 350.695312 C 305.082031 348.167969 308.777344 347.734375 311.4375 349.730469 "
       id="path65" />
    <path
       style=" stroke:none;fill-rule:nonzero;fill:rgb(63.499451%,16.099548%,10.598755%);fill-opacity:1;"
       d="M 293.292969 385.785156 C 295.957031 387.78125 296.578125 391.449219 294.679688 393.976562 C 292.785156 396.507812 289.089844 396.9375 286.429688 394.941406 C 283.765625 392.945312 283.144531 389.277344 285.042969 386.75 C 286.9375 384.222656 290.632812 383.789062 293.292969 385.785156 "
       id="path67" />
    <path
       style=" stroke:none;fill-rule:nonzero;fill:rgb(63.499451%,16.099548%,10.598755%);fill-opacity:1;"
       d="M 329.265625 309.164062 C 331.929688 311.160156 332.550781 314.824219 330.65625 317.355469 C 328.757812 319.882812 325.0625 320.316406 322.402344 318.320312 C 319.742188 316.324219 319.121094 312.65625 321.015625 310.128906 C 322.910156 307.597656 326.605469 307.167969 329.265625 309.164062 "
       id="path69" />
  </g>
</svg>
