<?xml version="1.0" encoding="UTF-8" standalone="no"?>
<svg
   xmlns:dc="http://purl.org/dc/elements/1.1/"
   xmlns:cc="http://creativecommons.org/ns#"
   xmlns:rdf="http://www.w3.org/1999/02/22-rdf-syntax-ns#"
   xmlns:svg="http://www.w3.org/2000/svg"
   xmlns="http://www.w3.org/2000/svg"
   xmlns:sodipodi="http://sodipodi.sourceforge.net/DTD/sodipodi-0.dtd"
   xmlns:inkscape="http://www.inkscape.org/namespaces/inkscape"
   width="1280pt"
   height="1280pt"
   viewBox="0 0 1280 1280"
   version="1.1"
   id="svg2"
   inkscape:version="0.91 r13725"
   sodipodi:docname="logo.svg">
  <metadata
     id="metadata53">
    <rdf:RDF>
      <cc:Work
         rdf:about="">
        <dc:format>image/svg+xml</dc:format>
        <dc:type
           rdf:resource="http://purl.org/dc/dcmitype/StillImage" />
        <dc:title></dc:title>
      </cc:Work>
    </rdf:RDF>
  </metadata>
  <defs
     id="defs51" />
  <sodipodi:namedview
     pagecolor="#ffffff"
     bordercolor="#666666"
     borderopacity="1"
     objecttolerance="10"
     gridtolerance="10"
     guidetolerance="10"
     inkscape:pageopacity="0"
     inkscape:pageshadow="2"
     inkscape:window-width="664"
     inkscape:window-height="480"
     id="namedview49"
     showgrid="false"
     inkscape:zoom="0.1475"
     inkscape:cx="800"
     inkscape:cy="800"
     inkscape:window-x="0"
     inkscape:window-y="23"
     inkscape:window-maximized="0"
     inkscape:current-layer="svg2" />
  <g
     id="surface722">
    <path
       style=" stroke:none;fill-rule:nonzero;fill:rgb(15.361023%,9.33075%,9.864807%);fill-opacity:1;"
       d="M 378.503906 354.585938 C 384.367188 353.199219 388 355.871094 389.625 360.734375 C 390.003906 361.859375 390.21875 363.175781 391.199219 363.847656 C 391.757812 364.230469 392.46875 364.316406 393.144531 364.3125 C 399.375 364.28125 403.773438 356.894531 402.203125 350.863281 C 400.628906 344.832031 394.730469 340.703125 388.625 339.445312 C 382.523438 338.1875 376.203125 339.277344 370.097656 340.527344 C 367.980469 340.957031 365.828125 341.425781 363.964844 342.515625 C 362.144531 343.574219 360.699219 345.175781 359.417969 346.847656 C 348.808594 360.714844 348.957031 381.785156 359.761719 395.503906 C 366.164062 403.632812 375.535156 409.015625 382.019531 417.078125 C 387.277344 423.613281 390.4375 431.808594 390.9375 440.179688 C 391.074219 442.484375 390.988281 444.90625 389.886719 446.933594 C 389.042969 448.488281 387.65625 449.695312 386.125 450.585938 C 380.21875 454.023438 371.890625 452.445312 367.648438 447.085938 C 365.21875 444.011719 364.125 440.054688 361.714844 436.964844 C 359.304688 433.875 354.5 431.902344 351.523438 434.453125 C 349.316406 436.34375 349.253906 439.6875 349.476562 442.582031 C 349.816406 446.972656 350.425781 451.40625 352.125 455.46875 C 356.492188 465.917969 368.210938 472.511719 379.5 471.652344 C 390.792969 470.789062 401.0625 462.984375 405.722656 452.660156 C 410.382812 442.339844 409.628906 429.9375 404.546875 419.820312 C 399.222656 409.214844 389.792969 401.378906 382.242188 392.226562 C 374.691406 383.078125 368.753906 370.890625 372.382812 359.59375 C 373.144531 357.226562 375.503906 355.84375 377.351562 354.789062 "
       id="path5" />
    <path
       style=" stroke:none;fill-rule:nonzero;fill:rgb(15.361023%,9.33075%,9.864807%);fill-opacity:1;"
       d="M 433.632812 360.394531 C 434.628906 356.097656 441.449219 354.960938 445.855469 355.078125 C 448.992188 355.160156 452.714844 355.945312 453.867188 358.863281 C 454.34375 360.066406 454.261719 361.40625 454.171875 362.695312 C 453.757812 368.625 453.347656 374.554688 452.933594 380.484375 C 452.640625 384.695312 452.613281 389.582031 455.832031 392.316406 C 457.632812 393.84375 460.070312 394.324219 462.394531 394.75 C 468.226562 395.816406 470.765625 395.535156 474.042969 390.589844 C 475.695312 388.089844 476.183594 383.675781 476.167969 380.675781 C 476.128906 374.324219 475.671875 366.679688 475.632812 360.328125 C 475.628906 359.460938 477.804688 357.898438 478.65625 357.730469 C 479.832031 357.503906 482.308594 356.984375 483.015625 356.839844 C 486.460938 356.140625 491.097656 355.421875 493.023438 358.015625 C 495.875 361.863281 496.382812 367.542969 496.027344 372.316406 C 493.792969 402.53125 497.71875 432.855469 497.414062 463.148438 C 497.359375 468.40625 496.335938 474.882812 491.363281 476.585938 C 487.796875 477.804688 482.367188 475.417969 478.894531 473.960938 C 474.09375 471.9375 475.476562 463.835938 475.246094 460.078125 C 474.515625 448.15625 476.34375 437.660156 474.925781 426.273438 C 474.773438 425.066406 473.925781 424.027344 473.113281 423.117188 C 470.5 420.183594 465.976562 420.238281 462.058594 420.523438 C 460.382812 420.644531 458.585938 420.8125 457.292969 421.886719 C 455.785156 423.132812 455.382812 425.238281 455.078125 427.171875 C 452.964844 440.570312 456.332031 456.441406 454.625 469.902344 C 454.140625 473.726562 451.023438 475.246094 447.398438 476.558594 C 444.691406 477.535156 438.402344 476.664062 436.652344 474.378906 C 434.898438 472.097656 434.242188 469.175781 433.796875 466.332031 C 432.707031 459.351562 432.625 452.257812 432.542969 445.195312 C 432.25 419.480469 431.957031 393.769531 431.664062 368.058594 C 431.617188 364.222656 431.988281 359.632812 435.339844 357.773438 "
       id="path7" />
    <path
       style=" stroke:none;fill-rule:nonzero;fill:rgb(15.361023%,9.33075%,9.864807%);fill-opacity:1;"
       d="M 550.496094 380.25 C 552.582031 379.894531 554.679688 379.683594 557.007812 379.894531 C 554.84375 379.695312 557.160156 380.050781 558.027344 380.28125 C 559.015625 380.542969 561.113281 381.050781 561.503906 381.382812 C 560.90625 380.878906 561.253906 381.554688 561.429688 381.847656 C 562.070312 382.929688 562.742188 384.011719 563.226562 385.175781 C 564.714844 388.761719 565.25 392.820312 565.882812 396.628906 C 568.085938 409.8125 572.921875 425.964844 568.222656 439.058594 C 565.019531 447.976562 556.621094 452.972656 548.015625 445.992188 C 538.816406 438.535156 536.667969 423.410156 536.792969 412.332031 C 536.878906 404.589844 538.484375 395.859375 541.320312 389.261719 C 541.996094 387.683594 544.082031 384.082031 544.992188 383.058594 C 546.921875 380.878906 547.464844 380.671875 550.496094 380.25 C 556.921875 379.359375 560.433594 371.148438 558.875 365.488281 C 556.972656 358.566406 550.5625 356.214844 544.113281 357.105469 C 522.628906 360.085938 515.082031 387.140625 513.210938 405.136719 C 511.152344 424.914062 515.867188 449.847656 531.652344 463.414062 C 540.199219 470.757812 551.140625 474.679688 562.40625 472.8125 C 572.246094 471.179688 580.351562 464.835938 585.898438 456.75 C 598.855469 437.871094 592.886719 413.824219 589.476562 392.988281 C 587.574219 381.378906 584.683594 368.835938 574.585938 361.523438 C 565.761719 355.128906 554.316406 355.363281 544.113281 357.105469 C 537.722656 358.199219 534.140625 366.066406 535.734375 371.867188 C 537.59375 378.632812 544.085938 381.347656 550.496094 380.25 "
       id="path9" />
    <path
       style=" stroke:none;fill-rule:nonzero;fill:rgb(15.361023%,9.33075%,9.864807%);fill-opacity:1;"
       d="M 606.65625 371.523438 C 608.480469 397.703125 605.296875 418.863281 612.8125 444.347656 C 614.136719 448.839844 620.324219 465.917969 624.867188 468.621094 C 634.464844 474.339844 646.652344 478.332031 656.320312 474.679688 C 665.984375 471.027344 672.054688 462.269531 675.417969 453.9375 C 678.78125 445.609375 680.273438 427.304688 680.414062 418.523438 L 678.300781 368.035156 C 678.300781 368.035156 679.003906 365.832031 674.601562 366.78125 L 661.636719 367.773438 C 661.636719 367.773438 657.398438 367.734375 658.375 370.144531 C 659.355469 372.554688 660.78125 434.398438 660.78125 434.398438 C 660.78125 434.398438 662.367188 449.730469 648.925781 455.253906 C 648.925781 455.253906 636.3125 458.1875 633.117188 439.398438 L 626.347656 373.582031 L 626.003906 369.007812 C 626.003906 369.007812 624.777344 367.648438 622.027344 367.648438 L 609.152344 369.074219 C 609.152344 369.074219 606.566406 370.242188 606.65625 371.523438 "
       id="path11" />
    <path
       style=" stroke:none;fill-rule:nonzero;fill:rgb(15.361023%,9.33075%,9.864807%);fill-opacity:1;"
       d="M 550.929688 324.011719 C 550.929688 324.011719 543.445312 322.144531 545.257812 330.6875 L 546.195312 339.683594 C 546.195312 339.683594 546.65625 343.304688 551.421875 342.589844 C 551.421875 342.589844 665.019531 335.121094 678.824219 338.429688 C 692.628906 341.742188 699.75 338.242188 702.988281 356.292969 L 713.144531 458.292969 C 713.144531 458.292969 717.847656 475.988281 726.722656 473.296875 C 726.722656 473.296875 737.84375 468.867188 732.054688 452.648438 L 724.582031 390.632812 L 720.289062 347.023438 C 720.289062 347.023438 719.695312 338.976562 725.875 337.582031 L 734.9375 335.925781 C 734.9375 335.925781 739.0625 335.96875 739.292969 334.019531 L 739.894531 322.695312 C 739.894531 322.695312 740 318.476562 735.117188 319.925781 Z M 550.929688 324.011719 "
       id="path13" />
    <path
       style=" stroke:none;fill-rule:nonzero;fill:rgb(15.361023%,9.33075%,9.864807%);fill-opacity:1;"
       d="M 772.875 423.398438 L 771.371094 423.515625 C 766.328125 423.910156 761.921875 420.144531 761.527344 415.101562 L 753.917969 318.042969 C 753.523438 313.003906 757.292969 308.59375 762.332031 308.199219 L 763.835938 308.082031 C 768.878906 307.6875 773.285156 311.453125 773.679688 316.496094 L 781.285156 413.554688 C 781.679688 418.597656 777.914062 423.003906 772.875 423.398438 "
       id="path15" />
    <path
       style=" stroke:none;fill-rule:nonzero;fill:rgb(15.361023%,9.33075%,9.864807%);fill-opacity:1;"
       d="M 789.449219 465.660156 C 786.78125 472.851562 778.527344 476.417969 771.011719 473.632812 C 763.492188 470.84375 759.5625 462.757812 762.226562 455.570312 C 764.890625 448.378906 773.148438 444.808594 780.664062 447.59375 C 788.179688 450.382812 792.113281 458.46875 789.449219 465.660156 "
       id="path17" />
    <path
       style=" stroke:none;fill-rule:nonzero;fill:rgb(15.361023%,9.33075%,9.864807%);fill-opacity:1;"
       d="M 310.578125 434.421875 C 310.578125 434.421875 323.980469 431.742188 316.808594 441.1875 L 301.871094 452.914062 L 305.511719 460.203125 C 305.511719 460.203125 305.390625 466.367188 296.980469 465.964844 L 292.660156 461.519531 L 281.285156 471.808594 C 281.285156 471.808594 278.683594 474.410156 280.804688 475.652344 C 280.804688 475.652344 285.609375 476.253906 285.488281 477.214844 C 285.488281 477.214844 292.492188 481.019531 283.726562 483.5 C 283.726562 483.5 279.71875 484.300781 273.59375 481.253906 C 273.59375 481.253906 268.914062 477.089844 270.394531 467.84375 C 270.394531 467.84375 274.160156 461.15625 278.246094 459.714844 L 284.734375 454.671875 L 279.96875 448.546875 C 279.96875 448.546875 278.96875 443.539062 279.851562 444.300781 C 279.851562 444.300781 283.574219 440.539062 284.816406 441.019531 C 284.816406 441.019531 290.621094 444.023438 291.300781 446.386719 Z M 310.578125 434.421875 "
       id="path19" />
    <path
       style=" stroke:none;fill-rule:nonzero;fill:rgb(15.361023%,9.33075%,9.864807%);fill-opacity:1;"
       d="M 339.835938 489.996094 C 339.835938 489.996094 335.378906 487.308594 331.042969 490.910156 L 288.445312 515.96875 C 288.445312 515.96875 284.140625 517.492188 284.460938 521.972656 C 284.460938 521.972656 285.703125 525.511719 289.640625 525.523438 L 311.3125 517.253906 C 311.3125 517.253906 318.625 515.753906 313.972656 520.671875 C 313.972656 520.671875 300.257812 531.535156 300.421875 536.671875 C 300.421875 536.671875 298.328125 545.441406 300.738281 546.019531 C 300.738281 546.019531 307.042969 552.621094 311.640625 547.925781 C 311.640625 547.925781 314.78125 546.324219 314.132812 543.886719 C 314.132812 543.886719 312.03125 540.925781 309.316406 542.738281 C 309.316406 542.738281 306.347656 544.136719 306.886719 540.402344 C 306.886719 540.402344 319.574219 525.515625 323.046875 524.9375 C 323.046875 524.9375 331.335938 521.121094 330.207031 516.285156 C 330.207031 516.285156 329.734375 510.902344 325.707031 510.117188 C 325.707031 510.117188 320.582031 507.3125 319.398438 509.316406 C 319.398438 509.316406 339.378906 498.453125 340.464844 495.375 C 340.464844 495.375 342.519531 492.078125 339.835938 489.996094 "
       id="path21" />
    <path
       style="fill:none;stroke-width:25;stroke-linecap:butt;stroke-linejoin:miter;stroke:rgb(15.361023%,9.33075%,9.864807%);stroke-opacity:1;stroke-miterlimit:10;"
       d="M 0.00035 -0.00076875 C 4.371444 145.471888 134.269881 259.6047 290.133163 254.9172 C 445.996444 250.233606 568.801131 128.507044 564.430038 -16.965612 "
       transform="matrix(1,0,0,-1,286.2809,390.6672)"
       id="path23" />
    <path
       style=" stroke:none;fill-rule:nonzero;fill:rgb(15.361023%,9.33075%,9.864807%);fill-opacity:1;"
       d="M 337.378906 560.566406 C 341.15625 564.910156 345.652344 569.277344 351.703125 569.804688 C 356.789062 570.25 363.976562 567.832031 366.347656 562.894531 C 368.753906 557.886719 365.488281 552.433594 361.769531 549.089844 C 357.203125 544.980469 351.289062 544.027344 345.375 545.109375 C 334.199219 547.152344 324.527344 558.652344 328.113281 570.367188 C 330.53125 578.261719 341.433594 583.285156 349.21875 581.40625 C 353.457031 580.386719 353.558594 573.695312 349.21875 572.730469 C 347.847656 572.425781 346.433594 572.535156 345.042969 572.570312 C 339.261719 572.710938 339.238281 581.714844 345.042969 581.570312 C 344.917969 581.574219 348.480469 581.777344 346.824219 581.40625 L 346.824219 572.730469 C 348.132812 572.414062 345.347656 572.894531 344.714844 572.832031 C 342.898438 572.648438 341.347656 571.695312 339.785156 570.652344 C 334.238281 566.949219 336.632812 559.707031 341.433594 556.269531 C 345.375 553.449219 354.101562 551.683594 356.984375 557.113281 C 358.921875 560.765625 353.246094 561.296875 350.777344 560.355469 C 347.871094 559.242188 345.714844 556.472656 343.742188 554.203125 C 339.929688 549.828125 333.589844 556.214844 337.378906 560.566406 "
       id="path25" />
    <path
       style=" stroke:none;fill-rule:nonzero;fill:rgb(15.361023%,9.33075%,9.864807%);fill-opacity:1;"
       d="M 475.8125 638.367188 C 475.8125 638.367188 483.554688 629.933594 482.792969 640.320312 C 482.792969 640.320312 495.800781 636.523438 494.164062 649.023438 C 494.164062 649.023438 507.21875 641.222656 508.953125 650.042969 C 508.953125 650.042969 508.804688 661.003906 503.976562 672.941406 C 503.976562 672.941406 503.015625 674.789062 504.015625 674.882812 C 504.015625 674.882812 512.898438 672.113281 508.445312 680.082031 C 508.445312 680.082031 504.902344 683.234375 500.121094 684.070312 C 500.121094 684.070312 496.460938 686.046875 494.113281 680.140625 C 494.113281 680.140625 492.867188 676.792969 497.265625 668.171875 C 497.265625 668.171875 500.078125 659.789062 498.042969 658.820312 C 498.042969 658.820312 494.910156 656.453125 491.371094 663.089844 C 491.371094 663.089844 486.269531 674.359375 482.757812 674.800781 C 482.757812 674.800781 477.203125 676.722656 477.34375 671.703125 L 483.945312 656.445312 C 483.945312 656.445312 486.007812 650.054688 480.515625 653.664062 L 469.894531 666.472656 C 469.894531 666.472656 467.03125 671.882812 462.753906 670.960938 C 462.753906 670.960938 459.613281 671.046875 460.699219 664.308594 Z M 475.8125 638.367188 "
       id="path27" />
    <path
       style=" stroke:none;fill-rule:nonzero;fill:rgb(15.361023%,9.33075%,9.864807%);fill-opacity:1;"
       d="M 536.402344 675.71875 C 541.25 678 546.542969 680.070312 551.832031 677.878906 C 556.308594 676.019531 560.289062 670.859375 560.746094 665.984375 C 561.214844 660.996094 557.621094 657.289062 553.316406 655.433594 C 547.875 653.082031 542.433594 654.34375 537.902344 657.996094 C 529.363281 664.894531 526.636719 678.34375 532.820312 687.734375 C 537.667969 695.09375 549.109375 694.414062 555.089844 689.113281 C 557.71875 686.78125 556.167969 682.527344 553.101562 681.59375 C 550.921875 680.925781 549.136719 682.277344 547.421875 683.390625 C 542.582031 686.53125 547.085938 694.324219 551.964844 691.160156 C 552.679688 690.695312 553.386719 690.21875 554.132812 689.804688 C 552.976562 689.953125 551.820312 690.105469 550.667969 690.257812 C 550.679688 690.261719 550.695312 690.265625 550.710938 690.269531 C 550.050781 687.765625 549.386719 685.257812 548.726562 682.75 C 547.121094 684.171875 545.519531 684.488281 543.195312 683.964844 C 537.613281 682.703125 537.789062 674.527344 539.589844 670.28125 C 540.9375 667.101562 546.929688 659.921875 550.78125 664.222656 C 552.390625 666.019531 550.261719 668.59375 548.300781 669.394531 C 545.820312 670.40625 543.222656 669.019531 540.945312 667.945312 C 535.734375 665.492188 531.160156 673.246094 536.402344 675.71875 "
       id="path29" />
    <path
       style=" stroke:none;fill-rule:nonzero;fill:rgb(15.361023%,9.33075%,9.864807%);fill-opacity:1;"
       d="M 590.0625 651.980469 C 590.0625 651.980469 590.027344 645.660156 593.441406 644.726562 C 593.441406 644.726562 598.566406 641.464844 598.558594 645.546875 L 597.046875 677.839844 C 597.046875 677.839844 596.539062 681.605469 598.214844 681.191406 C 598.214844 681.191406 600.351562 680.578125 600.445312 678.558594 C 600.445312 678.558594 601.78125 676.410156 602.28125 677.414062 C 602.28125 677.414062 605.316406 677.007812 603.132812 682.230469 C 603.132812 682.230469 601.113281 689.152344 597.617188 688.714844 C 597.617188 688.714844 591.707031 690.519531 589.910156 683.9375 Z M 590.0625 651.980469 "
       id="path31" />
    <path
       style=" stroke:none;fill-rule:nonzero;fill:rgb(15.361023%,9.33075%,9.864807%);fill-opacity:1;"
       d="M 625.074219 641.988281 C 625.074219 641.988281 624.492188 635.6875 627.886719 634.421875 C 627.886719 634.421875 632.824219 630.660156 633.164062 634.730469 L 634.394531 667.097656 C 634.394531 667.097656 634.199219 670.910156 635.871094 670.332031 C 635.871094 670.332031 637.992188 669.507812 637.914062 667.484375 C 637.914062 667.484375 639.085938 665.207031 639.683594 666.15625 C 639.683594 666.15625 642.738281 665.457031 640.964844 670.882812 C 640.964844 670.882812 639.503906 677.984375 635.90625 677.894531 C 635.90625 677.894531 630.050781 680.277344 627.65625 673.890625 Z M 625.074219 641.988281 "
       id="path33" />
    <path
       style=" stroke:none;fill-rule:nonzero;fill:rgb(15.361023%,9.33075%,9.864807%);fill-opacity:1;"
       d="M 680.820312 625.746094 C 671.046875 626.046875 665.277344 634.421875 664.316406 643.5 C 663.414062 652 663.71875 665.0625 674.222656 666.988281 C 682.898438 668.578125 690.605469 661.835938 692.972656 653.859375 C 695.832031 644.21875 690.800781 634.691406 684.425781 627.746094 C 680.496094 623.46875 674.144531 629.847656 678.058594 634.109375 C 681.363281 637.707031 684.402344 642.132812 684.757812 647.164062 C 685.0625 651.472656 682.785156 656.792969 678.277344 658.015625 C 672.128906 659.683594 673 649.765625 673.152344 645.957031 C 673.34375 641.292969 675.136719 634.921875 680.820312 634.746094 C 686.601562 634.570312 686.625 625.570312 680.820312 625.746094 "
       id="path35" />
    <path
       style=" stroke:none;fill-rule:nonzero;fill:rgb(15.361023%,9.33075%,9.864807%);fill-opacity:1;"
       d="M 703.292969 600.105469 C 703.292969 600.105469 702.730469 594.195312 705.109375 593.167969 C 705.109375 593.167969 708.980469 590.109375 710.316406 597.898438 L 713.605469 612.585938 C 713.605469 612.585938 719.113281 609.765625 719.136719 612.15625 C 719.136719 612.15625 720.167969 614.535156 720.058594 616.046875 C 719.945312 617.558594 716.210938 621.746094 716.210938 621.746094 C 716.210938 621.746094 714.875 626.792969 719.214844 633.039062 C 719.214844 633.039062 720.625 635.792969 721.863281 633.644531 C 721.863281 633.644531 723.195312 628.34375 726.109375 630.457031 C 726.109375 630.457031 728.003906 630.941406 727.289062 635.226562 C 727.289062 635.226562 726.597656 641.777344 719.679688 641.84375 C 719.679688 641.84375 714.667969 643.90625 709.21875 627.097656 C 709.21875 627.097656 702.828125 630.054688 702.277344 624.902344 C 702.277344 624.902344 700.222656 620.894531 705.359375 618.582031 L 706.425781 617.828125 Z M 703.292969 600.105469 "
       id="path37" />
    <path
       style=" stroke:none;fill-rule:nonzero;fill:rgb(15.361023%,9.33075%,9.864807%);fill-opacity:1;"
       d="M 746.675781 571.550781 C 737.339844 575.421875 734.613281 585.253906 737.230469 594.523438 C 739.519531 602.632812 744.320312 614.648438 754.808594 612.601562 C 763.371094 610.929688 768.167969 602.0625 767.601562 593.828125 C 766.925781 583.957031 759.136719 576.675781 750.777344 572.492188 C 745.613281 569.90625 741.050781 577.667969 746.234375 580.261719 C 753.113281 583.707031 764.460938 594.054688 756.109375 602.109375 C 751.113281 606.925781 748.59375 599.316406 747.066406 595.472656 C 745.347656 591.148438 743.152344 582.679688 749.070312 580.230469 C 754.34375 578.042969 752.03125 569.332031 746.675781 571.550781 "
       id="path39" />
    <path
       style=" stroke:none;fill-rule:nonzero;fill:rgb(15.361023%,9.33075%,9.864807%);fill-opacity:1;"
       d="M 774.355469 544.1875 C 774.355469 544.1875 773.535156 541.9375 769.183594 541.878906 C 769.183594 541.878906 765.382812 544.242188 767.347656 548.28125 L 778.011719 569.488281 C 778.011719 569.488281 781.78125 576.855469 784.8125 569.136719 C 784.8125 569.136719 788.515625 566.347656 782.507812 545.878906 C 782.507812 545.878906 781.585938 539.207031 785.835938 544.074219 L 793.429688 556.40625 C 793.429688 556.40625 795.152344 561.996094 799.871094 559.726562 C 799.871094 559.726562 808.785156 554.855469 805.777344 548.210938 C 805.777344 548.210938 806.257812 540.472656 801.183594 544.46875 L 799.34375 549.523438 C 799.34375 549.523438 798.171875 549.640625 797.390625 548.175781 C 797.390625 548.175781 789.667969 535.273438 788.367188 534.820312 C 788.367188 534.820312 784.449219 529.429688 778.617188 534.046875 C 778.617188 534.046875 774.988281 538.464844 776.46875 543.660156 L 776.40625 546.667969 Z M 774.355469 544.1875 "
       id="path41" />
    <path
       style=" stroke:none;fill-rule:nonzero;fill:rgb(15.361023%,9.33075%,9.864807%);fill-opacity:1;"
       d="M 816.03125 513.964844 C 820.375 510.878906 824.757812 507.316406 825.472656 501.671875 C 826.066406 496.964844 823.71875 491.335938 820.015625 488.363281 C 815.621094 484.835938 809.640625 486.476562 805.75 489.972656 C 801.542969 493.753906 800.34375 499.054688 801.40625 504.515625 C 803.460938 515.027344 813.707031 523.765625 824.667969 522.984375 C 833.460938 522.359375 838.574219 512.148438 836.878906 504.277344 C 836.140625 500.851562 831.683594 500.074219 829.355469 502.289062 C 827.714844 503.855469 827.996094 506.027344 828.125 508.058594 C 828.480469 513.8125 837.484375 513.851562 837.125 508.058594 C 837.070312 507.207031 837 506.355469 837.007812 505.503906 C 836.566406 506.5625 836.128906 507.625 835.6875 508.6875 C 835.699219 508.675781 835.710938 508.664062 835.722656 508.652344 C 833.214844 507.992188 830.707031 507.328125 828.199219 506.667969 C 828.597656 508.515625 828.253906 509.890625 826.847656 511.699219 C 823.304688 516.265625 816.507812 512.753906 813.40625 509.230469 C 811.144531 506.664062 807.140625 498.027344 812.4375 496.132812 C 815.84375 494.914062 817.164062 499.148438 816.25 501.617188 C 815.519531 503.59375 813.101562 505.046875 811.488281 506.191406 C 806.804688 509.519531 811.292969 517.328125 816.03125 513.964844 "
       id="path43" />
    <path
       style=" stroke:none;fill-rule:nonzero;fill:rgb(15.361023%,9.33075%,9.864807%);fill-opacity:1;"
       d="M 842.226562 440.578125 C 842.226562 440.578125 849.03125 440.421875 840.941406 432.125 C 840.941406 432.125 832.042969 429.214844 827.847656 442.800781 C 827.847656 442.800781 827.640625 452.617188 841.992188 461.480469 C 841.992188 461.480469 860.53125 469.894531 845.636719 475.921875 C 845.636719 475.921875 839.855469 482.636719 848.535156 480.164062 C 848.535156 480.164062 860.464844 477.890625 860.53125 469.894531 C 860.53125 469.894531 857.066406 457.742188 845.414062 456.375 C 845.414062 456.375 834.746094 450.875 834.921875 445.570312 C 834.921875 445.570312 835.460938 437.25 842.226562 440.578125 "
       id="path45" />
    <path
       style="fill:none;stroke-width:25;stroke-linecap:butt;stroke-linejoin:miter;stroke:rgb(15.361023%,9.33075%,9.864807%);stroke-opacity:1;stroke-miterlimit:10;"
       d="M 0.00020625 -0.00184375 C 0.00020625 -0.00184375 38.21505 -37.732312 62.550988 -33.912 "
       transform="matrix(1,0,0,-1,370.0037,605.963)"
       id="path47" />
  </g>
</svg>
