<?xml version="1.0" encoding="UTF-8" standalone="no"?>
<svg
   xmlns:dc="http://purl.org/dc/elements/1.1/"
   xmlns:cc="http://creativecommons.org/ns#"
   xmlns:rdf="http://www.w3.org/1999/02/22-rdf-syntax-ns#"
   xmlns:svg="http://www.w3.org/2000/svg"
   xmlns="http://www.w3.org/2000/svg"
   xmlns:sodipodi="http://sodipodi.sourceforge.net/DTD/sodipodi-0.dtd"
   xmlns:inkscape="http://www.inkscape.org/namespaces/inkscape"
   width="906.328pt"
   height="833.914pt"
   viewBox="0 0 906.328 833.914"
   version="1.1"
   id="svg2"
   inkscape:version="0.91 r13725"
   sodipodi:docname="phone.svg">
  <metadata
     id="metadata77">
    <rdf:RDF>
      <cc:Work
         rdf:about="">
        <dc:format>image/svg+xml</dc:format>
        <dc:type
           rdf:resource="http://purl.org/dc/dcmitype/StillImage" />
        <dc:title></dc:title>
      </cc:Work>
    </rdf:RDF>
  </metadata>
  <defs
     id="defs75" />
  <sodipodi:namedview
     pagecolor="#ffffff"
     bordercolor="#666666"
     borderopacity="1"
     objecttolerance="10"
     gridtolerance="10"
     guidetolerance="10"
     inkscape:pageopacity="0"
     inkscape:pageshadow="2"
     inkscape:window-width="664"
     inkscape:window-height="480"
     id="namedview73"
     showgrid="false"
     inkscape:zoom="0.22640224"
     inkscape:cx="566.455"
     inkscape:cy="521.19625"
     inkscape:window-x="0"
     inkscape:window-y="23"
     inkscape:window-maximized="0"
     inkscape:current-layer="svg2" />
  <g
     id="surface630">
    <path
       style=" stroke:none;fill-rule:nonzero;fill:rgb(76.098633%,51.399231%,12.89978%);fill-opacity:1;"
       d="M 147.664062 576.910156 L 137.3125 614.695312 C 137.3125 614.695312 142.007812 650.65625 141.773438 653.726562 C 141.773438 653.726562 139 664.519531 136.027344 665.984375 C 136.027344 665.984375 102.535156 666.125 88.289062 654 C 88.289062 654 84.96875 644.476562 92.960938 637.417969 L 115.492188 613.328125 L 128.796875 571.523438 C 128.796875 571.523438 146.714844 571.6875 147.664062 576.910156 "
       id="path5" />
    <path
       style=" stroke:none;fill-rule:nonzero;fill:rgb(88.598633%,63.09967%,21.598816%);fill-opacity:1;"
       d="M 705.246094 224.6875 C 705.246094 224.6875 657.128906 245.085938 484.078125 174.285156 C 484.078125 174.285156 404.890625 135.179688 337.371094 146.0625 C 337.371094 146.0625 251.78125 161.886719 214.648438 259.941406 L 242.414062 272.050781 C 242.414062 272.050781 282.957031 208.066406 342.210938 207.394531 C 342.210938 207.394531 394.957031 199.484375 445.347656 227.238281 C 445.347656 227.238281 517.339844 260.335938 528.535156 275.507812 C 528.535156 275.507812 598.226562 320.441406 594.195312 356.972656 L 596.324219 382.621094 C 588.128906 453.921875 592.050781 476.898438 592.050781 476.898438 C 592.050781 476.898438 596.5625 490.335938 603.898438 493.234375 C 615.34375 497.757812 636.121094 487.1875 648.101562 476.769531 C 648.101562 476.769531 754.53125 385.382812 812.222656 215.066406 C 812.222656 215.066406 820.660156 188.207031 808.671875 179.386719 C 808.671875 179.386719 799.605469 165.089844 705.246094 224.6875 "
       id="path7" />
    <path
       style=" stroke:none;fill-rule:nonzero;fill:rgb(90.99884%,82.398987%,62.399292%);fill-opacity:1;"
       d="M 177.480469 245.082031 C 177.480469 245.082031 171.476562 239.457031 165.25 241.625 C 165.25 241.625 155.238281 256.140625 154.375 265.261719 C 154.375 265.261719 162.230469 269.875 167.375 268.816406 C 167.375 268.816406 178.835938 247.917969 177.480469 245.082031 "
       id="path9" />
    <path
       style=" stroke:none;fill-rule:nonzero;fill:rgb(90.99884%,82.398987%,62.399292%);fill-opacity:1;"
       d="M 163.015625 283.910156 C 163.015625 283.910156 157.011719 278.28125 150.785156 280.453125 C 150.785156 280.453125 140.777344 294.96875 139.914062 304.089844 C 139.914062 304.089844 147.769531 308.703125 152.914062 307.644531 C 152.914062 307.644531 164.371094 286.742188 163.015625 283.910156 "
       id="path11" />
    <path
       style=" stroke:none;fill-rule:nonzero;fill:rgb(90.99884%,82.398987%,62.399292%);fill-opacity:1;"
       d="M 148.21875 327.394531 C 148.21875 327.394531 142.214844 321.769531 135.988281 323.941406 C 135.988281 323.941406 125.976562 338.453125 125.113281 347.578125 C 125.113281 347.578125 132.96875 352.1875 138.113281 351.128906 C 138.113281 351.128906 149.574219 330.230469 148.21875 327.394531 "
       id="path13" />
    <path
       style=" stroke:none;fill-rule:nonzero;fill:rgb(88.598633%,63.09967%,21.598816%);fill-opacity:1;"
       d="M 194.929688 415.671875 C 194.929688 415.671875 217.550781 525.125 310.117188 553.582031 C 402.6875 582.035156 461.988281 546.359375 495.183594 521.867188 C 495.183594 521.867188 629.386719 387.117188 517.917969 264.441406 C 517.917969 264.441406 433.636719 195.359375 342.683594 204.160156 C 342.683594 204.160156 256.773438 216.417969 242.414062 272.050781 L 280.914062 286.761719 C 280.914062 286.761719 292.371094 258.847656 346.914062 254.800781 C 346.914062 254.800781 422.429688 254.402344 468.730469 296.035156 C 468.730469 296.035156 522.175781 338.667969 507.15625 400.691406 C 507.15625 400.691406 493.640625 469.542969 429.433594 499.726562 C 429.433594 499.726562 387.734375 527.703125 336.113281 506.71875 C 336.113281 506.71875 280.511719 489.3125 266.109375 466.3125 C 208.308594 373.988281 280.894531 285.566406 280.894531 285.566406 L 214.648438 259.941406 L 132.292969 564.457031 C 129.578125 580.449219 144.46875 576.484375 144.46875 576.484375 C 152.253906 575.921875 165.367188 515.785156 165.367188 515.785156 L 194.929688 415.671875 "
       id="path15" />
    <path
       style=" stroke:none;fill-rule:nonzero;fill:rgb(88.598633%,63.09967%,21.598816%);fill-opacity:1;"
       d="M 292.25 518.972656 C 285.78125 507.632812 271.8125 506.09375 261.292969 500.367188 C 256.9375 497.996094 252.992188 492.933594 248.109375 489.53125 C 241.214844 484.722656 234.53125 481.472656 226.078125 480.53125 C 208.359375 478.554688 189.757812 483.464844 176.011719 495.035156 C 169.675781 500.363281 164.101562 506.972656 158.855469 513.363281 C 152.742188 520.816406 147.679688 528.546875 144.425781 537.667969 C 140.523438 548.597656 157.90625 553.300781 161.78125 542.453125 C 164.125 535.890625 168.226562 530.070312 172.683594 524.773438 C 177.304688 519.28125 182.101562 513.574219 187.503906 508.828125 C 197.710938 499.855469 213.527344 496.101562 226.785156 498.710938 C 237.71875 500.859375 243.414062 511.261719 252.695312 516.164062 C 257.601562 518.753906 262.917969 520.453125 268.019531 522.59375 C 269.960938 523.410156 271.886719 524.292969 273.699219 525.371094 C 275.515625 526.445312 276.113281 527.019531 276.707031 528.054688 C 282.445312 538.117188 298.003906 529.058594 292.25 518.972656 "
       id="path17" />
    <path
       style=" stroke:none;fill-rule:nonzero;fill:rgb(88.598633%,63.09967%,21.598816%);fill-opacity:1;"
       d="M 322.59375 448.484375 C 314.71875 465.027344 306.84375 481.566406 298.96875 498.109375 C 296.878906 502.496094 297.753906 507.824219 302.195312 510.421875 C 306.121094 512.71875 312.410156 511.601562 314.511719 507.191406 C 322.386719 490.652344 330.261719 474.113281 338.136719 457.570312 C 340.226562 453.183594 339.351562 447.855469 334.90625 445.257812 C 330.984375 442.960938 324.691406 444.078125 322.59375 448.484375 "
       id="path19" />
    <path
       style=" stroke:none;fill-rule:nonzero;fill:rgb(88.598633%,63.09967%,21.598816%);fill-opacity:1;"
       d="M 421.324219 322.273438 C 431.730469 302.453125 439.402344 281.320312 443.871094 259.378906 C 446.175781 248.070312 428.828125 243.234375 426.515625 254.59375 C 422.347656 275.046875 415.488281 294.703125 405.785156 313.191406 C 400.402344 323.4375 415.933594 332.546875 421.324219 322.273438 "
       id="path21" />
    <path
       style=" stroke:none;fill-rule:nonzero;fill:rgb(88.598633%,63.09967%,21.598816%);fill-opacity:1;"
       d="M 199.582031 282.601562 L 454.425781 371.492188 C 454.425781 371.492188 457.15625 355.984375 430.453125 350.167969 L 363.578125 327.308594 L 319.726562 313.40625 C 319.726562 313.40625 305.375 309.414062 307.519531 302.992188 C 307.519531 302.992188 311.058594 296.855469 317.882812 300.152344 L 440.804688 341.777344 C 440.804688 341.777344 479.945312 356.550781 485.847656 362.296875 C 485.847656 362.296875 498.238281 365.644531 500.328125 364.914062 C 500.328125 364.914062 504.164062 355.6875 471.476562 341.101562 C 471.476562 341.101562 394.453125 310.515625 390.289062 311.96875 C 390.289062 311.96875 350.460938 297.84375 330.019531 292.183594 C 330.019531 292.183594 305.191406 285.007812 301.707031 287.238281 C 301.707031 287.238281 297.179688 287.246094 295.703125 288.761719 L 208.460938 256.628906 "
       id="path23" />
    <path
       style=" stroke:none;fill-rule:nonzero;fill:rgb(88.598633%,63.09967%,21.598816%);fill-opacity:1;"
       d="M 278.40625 367.390625 C 278.40625 367.390625 291.894531 374.886719 297.503906 367.328125 C 297.503906 367.328125 303.109375 359.769531 296.972656 357.292969 L 254.652344 343.691406 L 215.855469 328.867188 L 186.472656 318.339844 L 195.214844 295.183594 L 294.410156 328.441406 C 294.410156 328.441406 298.488281 331.292969 306.292969 327.144531 C 306.292969 327.144531 316.6875 323.589844 326.050781 329.328125 L 464.417969 375.226562 C 464.417969 375.226562 482.957031 381.449219 484.203125 374.464844 C 484.203125 374.464844 488.851562 369.292969 485.847656 362.296875 L 500.328125 364.914062 C 500.328125 364.914062 502.355469 381.191406 498.546875 389.5 C 498.546875 389.5 489.75 398.710938 464.613281 389.882812 C 439.472656 381.050781 389.089844 367.894531 389.089844 367.894531 L 324.507812 346.84375 C 324.507812 346.84375 316.515625 347.488281 320.058594 355.871094 L 354.488281 366.523438 C 354.488281 366.523438 363.039062 375.023438 348.664062 380.964844 C 348.664062 380.964844 335.238281 381.609375 316.980469 374.632812 C 316.980469 374.632812 311.660156 371.832031 309.992188 378.621094 L 308.394531 383.832031 C 308.394531 383.832031 306.328125 388.585938 312.550781 389.519531 C 312.550781 389.519531 388.527344 411.367188 389.851562 415.171875 C 389.851562 415.171875 407.019531 422.53125 404.914062 444.605469 "
       id="path25" />
    <path
       style=" stroke:none;fill-rule:nonzero;fill:rgb(88.598633%,63.09967%,21.598816%);fill-opacity:1;"
       d="M 382.09375 362.839844 C 382.09375 362.839844 361.949219 397.3125 372.210938 402.269531 C 372.210938 402.269531 379.203125 409.371094 389.875 389.585938 L 397.667969 367.296875 L 412.421875 372.191406 C 412.421875 372.191406 401.132812 401.726562 387.945312 412.847656 C 387.945312 412.847656 379.875 425.699219 360.757812 419.8125 C 360.757812 419.8125 348.125 416.6875 353.988281 396.074219 L 368.152344 357.503906 Z M 382.09375 362.839844 "
       id="path27" />
    <path
       style=" stroke:none;fill-rule:nonzero;fill:rgb(88.598633%,63.09967%,21.598816%);fill-opacity:1;"
       d="M 145.878906 335.6875 C 145.878906 335.6875 149.136719 339.703125 167.667969 335.511719 C 167.667969 335.511719 174.648438 333.078125 180.246094 337.308594 L 171.371094 363.28125 C 171.371094 363.28125 162.402344 360.019531 157.65625 350.542969 C 157.65625 350.542969 153.421875 342.320312 143.699219 340.980469 Z M 145.878906 335.6875 "
       id="path29" />
    <path
       style=" stroke:none;fill-rule:nonzero;fill:rgb(88.598633%,63.09967%,21.598816%);fill-opacity:1;"
       d="M 159.730469 294.363281 C 159.730469 294.363281 160.347656 296.558594 176.332031 296.171875 C 176.332031 296.171875 189.617188 290.949219 195.214844 295.183594 L 186.472656 318.339844 C 186.472656 318.339844 177.429688 315.816406 172.824219 306.222656 C 172.824219 306.222656 168.347656 301.082031 157.15625 299.355469 Z M 159.730469 294.363281 "
       id="path31" />
    <path
       style=" stroke:none;fill-rule:nonzero;fill:rgb(88.598633%,63.09967%,21.598816%);fill-opacity:1;"
       d="M 173.90625 255.507812 C 173.90625 255.507812 177.160156 259.527344 195.691406 255.332031 C 195.691406 255.332031 202.675781 252.898438 208.273438 257.128906 L 199.394531 283.101562 C 199.394531 283.101562 190.425781 279.839844 185.679688 270.363281 C 185.679688 270.363281 181.445312 262.144531 171.722656 260.800781 Z M 173.90625 255.507812 "
       id="path33" />
    <path
       style=" stroke:none;fill-rule:nonzero;fill:rgb(88.598633%,63.09967%,21.598816%);fill-opacity:1;"
       d="M 180.246094 337.308594 L 298.378906 368.773438 L 297.398438 397.480469 L 171.367188 363.28125 "
       id="path35" />
    <path
       style=" stroke:none;fill-rule:nonzero;fill:rgb(88.598633%,63.09967%,21.598816%);fill-opacity:1;"
       d="M 404.914062 444.605469 L 386.265625 438.996094 C 386.265625 438.996094 386.730469 449.019531 349.941406 438.816406 C 349.941406 438.816406 287.664062 416.855469 274.726562 410.839844 C 274.726562 410.839844 262.988281 401.683594 261.277344 387.421875 C 259.566406 373.160156 257.140625 383.90625 257.140625 383.90625 C 257.140625 383.90625 254.660156 388.3125 254.804688 382.097656 C 254.945312 375.878906 254.804688 382.097656 254.804688 382.097656 L 244.660156 380.863281 C 244.660156 380.863281 249.296875 411.550781 255.566406 418.480469 C 255.566406 418.480469 310.339844 450.816406 360.164062 456.097656 C 360.164062 456.097656 397.199219 467.101562 404.914062 444.605469 "
       id="path37" />
    <path
       style=" stroke:none;fill-rule:nonzero;fill:rgb(88.598633%,63.09967%,21.598816%);fill-opacity:1;"
       d="M 404.914062 444.605469 C 404.914062 444.605469 409.070312 424.789062 382.714844 412.828125 L 294.617188 382.699219 C 294.617188 382.699219 295.257812 389.457031 290.457031 394.683594 C 285.65625 399.910156 290.457031 394.683594 290.457031 394.683594 L 352.765625 417.566406 C 352.765625 417.566406 383.273438 424 386.265625 438.996094 "
       id="path39" />
    <path
       style=" stroke:none;fill-rule:nonzero;fill:rgb(76.098633%,51.399231%,12.89978%);fill-opacity:1;"
       d="M 549.78125 268.222656 C 583.757812 294.398438 601.03125 312.539062 635.007812 338.71875 C 643.980469 345.632812 653.128906 352.730469 659.316406 362.222656 C 664.550781 370.246094 667.40625 379.625 668.929688 389.085938 C 674.480469 423.460938 660.738281 461.867188 630.933594 479.867188 C 622.785156 484.789062 611.023438 487.574219 604.691406 480.472656 C 601.300781 476.675781 600.683594 471.207031 600.480469 466.117188 C 599.460938 440.492188 604.886719 415.074219 606.507812 389.480469 C 608.128906 363.878906 605.390625 336.5625 590.1875 315.90625 C 576.265625 296.992188 556.738281 284.429688 546.894531 263.105469 "
       id="path41" />
    <path
       style=" stroke:none;fill-rule:nonzero;fill:rgb(76.098633%,51.399231%,12.89978%);fill-opacity:1;"
       d="M 196.316406 354.132812 C 196.316406 354.132812 192.878906 358.171875 194.769531 362.722656 L 299.738281 397.390625 C 299.738281 397.390625 307.648438 390.648438 300.90625 388.363281 Z M 196.316406 354.132812 "
       id="path43" />
    <path
       style=" stroke:none;fill-rule:nonzero;fill:rgb(90.99884%,82.398987%,62.399292%);fill-opacity:1;"
       d="M 196.316406 354.132812 C 196.316406 354.132812 195.835938 348.417969 200.699219 348.363281 L 304.800781 383.039062 C 304.800781 383.039062 306.824219 390.804688 300.105469 388.609375 Z M 196.316406 354.132812 "
       id="path45" />
    <path
       style=" stroke:none;fill-rule:nonzero;fill:rgb(76.098633%,51.399231%,12.89978%);fill-opacity:1;"
       d="M 210.15625 312.574219 C 210.15625 312.574219 208.578125 315.492188 208.519531 321.050781 L 313.488281 355.71875 C 313.488281 355.71875 321.402344 348.972656 314.65625 346.691406 Z M 210.15625 312.574219 "
       id="path47" />
    <path
       style=" stroke:none;fill-rule:nonzero;fill:rgb(90.99884%,82.398987%,62.399292%);fill-opacity:1;"
       d="M 210.15625 312.574219 C 210.15625 312.574219 211.875 307.203125 214.453125 306.691406 L 318.550781 341.367188 C 318.550781 341.367188 320.578125 349.132812 313.855469 346.9375 Z M 210.15625 312.574219 "
       id="path49" />
    <path
       style=" stroke:none;fill-rule:nonzero;fill:rgb(90.99884%,82.398987%,62.399292%);fill-opacity:1;"
       d="M 223.835938 274.277344 C 223.835938 274.277344 223.960938 270.195312 226.871094 267.660156 L 323.503906 300.117188 C 323.503906 300.117188 325.527344 307.886719 318.804688 305.691406 Z M 223.835938 274.277344 "
       id="path51" />
    <path
       style=" stroke:none;fill-rule:nonzero;fill:rgb(76.098633%,51.399231%,12.89978%);fill-opacity:1;"
       d="M 252.175781 212.890625 C 266.597656 193.890625 288.917969 182.023438 312.085938 176.347656 C 335.253906 170.667969 359.417969 170.667969 383.246094 171.746094 C 397.945312 172.40625 412.710938 173.480469 427.007812 176.972656 C 441.898438 180.609375 456.015625 186.804688 470.246094 192.5 C 538.4375 219.785156 610.460938 235.988281 682.125 252.082031 C 616.246094 252.316406 554.003906 224.347656 489.921875 209.046875 C 468.542969 203.941406 446.859375 200.234375 425.191406 196.535156 C 397.527344 191.808594 369.578125 187.0625 341.558594 188.632812 C 307.914062 190.519531 274.84375 201.722656 246.976562 220.664062 "
       id="path53" />
    <path
       style=" stroke:none;fill-rule:nonzero;fill:rgb(90.99884%,82.398987%,62.399292%);fill-opacity:1;"
       d="M 244.714844 220.484375 C 259.507812 196.8125 284.5625 177.320312 312.460938 167.777344 C 340.355469 158.238281 370.714844 158.78125 394.542969 169.25 C 369.617188 163.15625 341.601562 162.972656 314.753906 170.929688 C 287.902344 178.890625 262.425781 195.363281 246.730469 217.234375 "
       id="path55" />
    <path
       style=" stroke:none;fill-rule:nonzero;fill:rgb(90.99884%,82.398987%,62.399292%);fill-opacity:1;"
       d="M 511.855469 430.183594 C 539.375 394.371094 545.8125 353.066406 529.257812 318.507812 C 512.703125 283.949219 473.382812 256.601562 422.941406 244.566406 C 466.234375 261.714844 501.902344 287.25 520.222656 319.367188 C 538.542969 351.480469 538.527344 390.332031 515.65625 425.28125 "
       id="path57" />
    <path
       style=" stroke:none;fill-rule:nonzero;fill:rgb(76.098633%,51.399231%,12.89978%);fill-opacity:1;"
       d="M 223.835938 274.277344 C 223.835938 274.277344 222.832031 277.019531 222.539062 282.746094 L 318.441406 314.472656 C 318.441406 314.472656 326.351562 307.726562 319.609375 305.445312 Z M 223.835938 274.277344 "
       id="path59" />
    <path
       style=" stroke:none;fill-rule:nonzero;fill:rgb(90.99884%,82.398987%,62.399292%);fill-opacity:1;"
       d="M 338.058594 292.917969 C 347.117188 299.488281 349.394531 311.792969 343.152344 320.394531 C 336.910156 329 324.503906 330.648438 315.449219 324.074219 C 306.394531 317.503906 304.113281 305.199219 310.355469 296.597656 C 316.597656 287.992188 329.003906 286.347656 338.058594 292.917969 "
       id="path61" />
    <path
       style=" stroke:none;fill-rule:nonzero;fill:rgb(90.99884%,82.398987%,62.399292%);fill-opacity:1;"
       d="M 302.484375 371.859375 C 311.539062 378.429688 313.820312 390.734375 307.578125 399.335938 C 301.332031 407.941406 288.929688 409.589844 279.875 403.015625 C 270.816406 396.445312 268.535156 384.140625 274.78125 375.539062 C 281.023438 366.933594 293.425781 365.289062 302.484375 371.859375 "
       id="path63" />
    <path
       style=" stroke:none;fill-rule:nonzero;fill:rgb(90.99884%,82.398987%,62.399292%);fill-opacity:1;"
       d="M 320.46875 334.695312 C 329.523438 341.265625 331.804688 353.570312 325.5625 362.171875 C 319.316406 370.777344 306.914062 372.421875 297.859375 365.851562 C 288.800781 359.28125 286.519531 346.976562 292.765625 338.371094 C 299.007812 329.769531 311.410156 328.121094 320.46875 334.695312 "
       id="path65" />
    <path
       style=" stroke:none;fill-rule:nonzero;fill:rgb(30.999756%,26.298523%,19.999695%);fill-opacity:1;"
       d="M 312.601562 345.535156 C 315.355469 347.535156 316.050781 351.273438 314.148438 353.890625 C 312.25 356.507812 308.480469 357.007812 305.726562 355.011719 C 302.972656 353.011719 302.277344 349.269531 304.175781 346.652344 C 306.074219 344.035156 309.847656 343.535156 312.601562 345.535156 "
       id="path67" />
    <path
       style=" stroke:none;fill-rule:nonzero;fill:rgb(30.999756%,26.298523%,19.999695%);fill-opacity:1;"
       d="M 294.617188 382.699219 C 297.371094 384.699219 298.066406 388.441406 296.164062 391.058594 C 294.265625 393.671875 290.496094 394.175781 287.742188 392.175781 C 284.988281 390.175781 284.292969 386.433594 286.191406 383.820312 C 288.089844 381.203125 291.863281 380.699219 294.617188 382.699219 "
       id="path69" />
    <path
       style=" stroke:none;fill-rule:nonzero;fill:rgb(30.999756%,26.298523%,19.999695%);fill-opacity:1;"
       d="M 330.191406 303.757812 C 332.945312 305.757812 333.640625 309.5 331.742188 312.117188 C 329.84375 314.730469 326.070312 315.230469 323.316406 313.234375 C 320.5625 311.234375 319.867188 307.492188 321.765625 304.878906 C 323.664062 302.261719 327.4375 301.757812 330.191406 303.757812 "
       id="path71" />
  </g>
</svg>
